<svg xmlns="http://www.w3.org/2000/svg" width="404.197" height="408.417" viewBox="0 0 404.197 408.417">
  <g id="Group_204" data-name="Group 204" transform="translate(-140 -10)" opacity="0.2">
    <g id="Group_162" data-name="Group 162" transform="translate(144.004 10)">
      <path id="Path_924" data-name="Path 924" d="M719.7,334.3a112.264,112.264,0,0,0-1.026-12.989,103.113,103.113,0,0,0-2.267-11.569c-.511-1.948-1.059-3.875-1.661-5.793a65.216,65.216,0,0,0-2.238-6.175c-.772-1.777-1.591-3.534-2.5-5.241-.984-1.836-2.047-3.638-3.144-5.411-2.292-3.708-4.73-7.338-7.367-10.814-1.163-1.541-2.342-3.069-3.6-4.522-1.167-1.35-2.363-2.653-3.588-3.941-1.25-1.316-2.517-2.616-3.829-3.87-1.254-1.188-2.529-2.338-3.829-3.476l.025.012c-.141-.125-.283-.245-.424-.365l-.071-.071q-2.093-1.812-4.244-3.538a109.642,109.642,0,0,0-9.024-6.6,54.972,54.972,0,0,0-10.635-5.29c-1.665-.623-3.372-1.109-5.075-1.628-2.176-.943-4.39-1.8-6.649-2.529a91.767,91.767,0,0,0-12.338-2.994c-.423-.075-.851-.133-1.279-.2.577-.843,1.167-1.669,1.678-2.562.328-.552.631-1.121.955-1.682.291-.486.594-.972.905-1.449.033-.05.067-.1.1-.154v0l0-.008.008-.008.012-.017h0l.008-.008.017-.021v0l.037-.066q.5-.741,1.009-1.487l-.037.046.112-.158,0-.008v0l.009-.017.008-.008v-.008l0,0c.312-.469.6-.947.9-1.428.332-.548.685-1.076,1.034-1.6.237-.357.461-.714.677-1.08l.154-.054a.013.013,0,1,0,0-.025l-.121.029.058-.1a1.052,1.052,0,0,0,.4-.34,1,1,0,0,0,.158-.694c.017-.042.037-.071.054-.116a.259.259,0,0,0,0-.39.262.262,0,0,0-.266-.066H642.8a1.743,1.743,0,0,0-.631-.473c.569-.71,1.134-1.428,1.7-2.147,1.271-1.6,2.521-3.223,3.771-4.838q1.831-2.355,3.642-4.734c.619-.822,1.225-1.644,1.806-2.5s1.138-1.7,1.715-2.537c.6-.868,1.171-1.748,1.732-2.641a12.921,12.921,0,0,0,.71-1.312,1.2,1.2,0,0,0,.137-.9,1.167,1.167,0,0,0-.253-1.017c-.083-.071-.158-.141-.241-.212-.166-.149-.34-.307-.519-.453-.307-.253-.627-.49-.93-.747-.428-.357-.847-.723-1.279-1.067-.623-.49-1.237-.988-1.86-1.47-.76-.59-1.516-1.2-2.267-1.811-2.741-2.218-5.452-4.46-8.285-6.565-1.428-1.059-2.87-2.085-4.252-3.21-.515-.424-1.009-.885-1.541-1.283a3.448,3.448,0,0,0-.544-.361,2.769,2.769,0,0,0-.661-.287,1.386,1.386,0,0,0-.943.029l-.158,0c-.108,0-.212.008-.316,0-.191-.008-.373-.008-.561,0-.523.025-1.047.058-1.57.091l.062,0c-1.537.087-3.073.041-4.614.021-.972-.012-1.943,0-2.911,0-1.03,0-2.056,0-3.085.008-2.213.008-4.431.079-6.644.141-2.242.062-4.477.108-6.719.166-2.209.058-4.418.125-6.628.237-2.3.108-4.605.3-6.9.548-2.168.228-4.319.507-6.47.831-1.03.149-2.06.295-3.09.448-.478.071-.947.129-1.416.228a3.217,3.217,0,0,0-.905.3,1.077,1.077,0,0,0-.507.071,2.376,2.376,0,0,0-.54.374c-.1.1-.212.187-.307.287a4.831,4.831,0,0,1-.469.449c-.515.453-1.026.909-1.524,1.383-.656.627-1.3,1.262-1.96,1.889-.735.71-1.47,1.42-2.2,2.134-1.516,1.528-2.986,3.1-4.456,4.663-.768.822-1.532,1.653-2.271,2.5-.706.8-1.391,1.628-2.068,2.454s-1.325,1.653-1.993,2.479c-.324.39-.648.785-.98,1.167-.158.183-.312.365-.465.544a2.024,2.024,0,0,0-.154.191c-.478.432.05,1.267.32,1.707.507.814,1.038,1.6,1.594,2.375.5.7,1.009,1.391,1.5,2.093s.955,1.4,1.437,2.1c.606.876,1.2,1.765,1.806,2.637s1.208,1.727,1.815,2.591c.557.8,1.138,1.59,1.74,2.35.527.665,1.067,1.321,1.578,1.989.374.482.727.972,1.113,1.445.29.357.573.718.843,1.088.2.278.4.552.6.831l-.1.087a.9.9,0,0,0-.229.461l-.025-.013a.357.357,0,0,0-.141-.075.272.272,0,0,0-.183.5,2.854,2.854,0,0,0,.216.378c.166.228.349.448.523.66.37.44.723.893,1.092,1.337,1.358,1.611,2.749,3.189,4.074,4.821.635.781,1.275,1.57,1.923,2.342q.891,1.053,1.806,2.072A75.6,75.6,0,0,0,576.594,244c-1.81.831-3.567,1.773-5.286,2.77-1.74,1.009-3.48,2.043-5.154,3.168q-2.741,1.825-5.419,3.754c-1.6,1.15-3.168,2.371-4.709,3.6-3.235,2.579-6.328,5.311-9.335,8.16-1.8,1.707-3.526,3.48-5.2,5.3-.594-.822-1.188-1.645-1.8-2.454-1.312-1.732-2.641-3.459-4.061-5.1-1.312-1.516-2.662-2.99-4.041-4.439-1.412-1.487-2.84-2.957-4.319-4.369-1.495-1.424-3.032-2.8-4.58-4.157l.071.062c-.083-.079-.175-.154-.262-.228l-.025-.029,0,.012q-2.392-2.074-4.842-4.049a124.766,124.766,0,0,0-10.182-7.446,61.759,61.759,0,0,0-11.993-5.967c-1.885-.7-3.812-1.258-5.723-1.835-2.462-1.067-4.962-2.039-7.5-2.853a103.73,103.73,0,0,0-13.916-3.38,111.306,111.306,0,0,0-13.745-1.5,127.078,127.078,0,0,0-14.061.183q-6.777.43-13.492,1.379a103.742,103.742,0,0,0-12.927,2.57,84.07,84.07,0,0,0-13.035,4.713c-2.039.934-4.024,1.993-5.967,3.123-1.96,1.142-3.92,2.309-5.81,3.576q-3.1,2.055-6.113,4.227c-1.811,1.3-3.571,2.674-5.311,4.07-3.65,2.911-7.143,5.992-10.527,9.207a125.943,125.943,0,0,0-10.145,10.855c-1.453,1.74-2.9,3.5-4.248,5.332-1.312,1.769-2.541,3.6-3.733,5.457a137.189,137.189,0,0,0-7.184,12.778,119.987,119.987,0,0,0-5.515,12.529,105.584,105.584,0,0,0-3.829,12.99,131.866,131.866,0,0,0-2.463,13.857,87.887,87.887,0,0,0-.449,13.907,108.369,108.369,0,0,0,1.5,14.036,131.532,131.532,0,0,0,2.957,13.147,91.522,91.522,0,0,0,4.929,13.413,108.255,108.255,0,0,0,5.976,11.457,124.281,124.281,0,0,0,7.745,11.42,76.073,76.073,0,0,0,8.646,9.48c1.765,1.619,3.617,3.139,5.506,4.609,1.723,1.341,3.484,2.637,5.3,3.866,1.89,1.279,3.833,2.483,5.843,3.584,2.147,1.184,4.364,2.255,6.6,3.268,2.089.959,4.19,1.885,6.329,2.728,2.1.818,4.232,1.528,6.379,2.176,2.193.664,4.418,1.213,6.628,1.8,2.035.544,4.078,1.08,6.129,1.541q6.6,1.482,13.318,2.375a131.232,131.232,0,0,0,13.691,1.067q2.08.062,4.153.062c3.206,0,6.412-.112,9.609-.316,2.172-.141,4.344-.291,6.507-.507,2.28-.22,4.556-.519,6.823-.86,4.157-.623,8.3-1.383,12.375-2.4a143.572,143.572,0,0,0,14.044-4.389q6.3-2.286,12.35-5.17c3.517-1.665,6.985-3.447,10.336-5.423a96.524,96.524,0,0,0,10.635-7.329,111.313,111.313,0,0,0,9.6-8.579q2.211-2.205,4.3-4.522c1.142,1.233,2.325,2.433,3.567,3.571,1.565,1.437,3.206,2.791,4.879,4.09,1.528,1.184,3.089,2.338,4.7,3.422,1.678,1.138,3.4,2.209,5.183,3.185,1.906,1.046,3.87,1.993,5.851,2.894,1.848.847,3.717,1.674,5.61,2.417,1.856.731,3.75,1.354,5.652,1.935,1.948.581,3.92,1.071,5.876,1.595,1.806.482,3.613.955,5.436,1.366,3.9.876,7.84,1.57,11.8,2.11a117.473,117.473,0,0,0,12.142.938c1.229.033,2.458.058,3.687.058q4.254,0,8.509-.282c1.927-.125,3.85-.257,5.768-.444,2.023-.2,4.041-.461,6.046-.764,3.684-.557,7.354-1.221,10.976-2.13A126.991,126.991,0,0,0,656.1,424.38q5.575-2.031,10.951-4.584c3.114-1.474,6.192-3.052,9.161-4.8a84.688,84.688,0,0,0,9.431-6.5,103.417,103.417,0,0,0,15.909-15.826c1.346-1.674,2.658-3.389,3.858-5.174a61.486,61.486,0,0,0,3.314-5.56,98.31,98.31,0,0,0,4.788-10.672,102.042,102.042,0,0,0,3.82-11.681A71.641,71.641,0,0,0,719.333,347C719.628,342.764,719.793,338.528,719.7,334.3Zm-95.664-98.139c-1.836-.091-3.671-.112-5.511-.1,1.046-.075,2.089-.15,3.127-.245q1.594-.15,3.181-.332c1.08-.12,2.155-.245,3.218-.436,1.038-.191,2.076-.4,3.1-.656s2.035-.577,3.036-.914c.249-.083.49-.183.735-.274l-.428.565c-.461.615-.9,1.246-1.358,1.865-.32.428-.66.843-1.009,1.246C629.44,236.535,626.737,236.294,624.034,236.161Zm-43.217-18.384c.241-2.022.411-4.036.6-6.059.141-1.586.274-3.177.415-4.767q4.716-.193,9.427-.4,6.765-.3,13.529-.619,1.19-.056,2.38-.12c-1.458,1.071-2.915,2.139-4.394,3.189-1.806,1.287-3.609,2.587-5.39,3.908-3.584,2.662-7.176,5.311-10.847,7.865-1.773,1.233-3.559,2.446-5.328,3.688-.395.274-.785.556-1.179.835.058-.49.108-.984.158-1.474C580.393,221.805,580.584,219.787,580.817,217.777Zm1.823-18.994c.108-1.055.17-2.114.237-3.173.058-1.092.137-2.18.2-3.264.054-1.03.083-2.064.087-3.094,0-.345,0-.694,0-1.042.141.1.287.2.428.3.424.3.843.606,1.271.905.889.623,1.769,1.254,2.662,1.873,1.8,1.242,3.63,2.45,5.465,3.634,3.733,2.413,7.491,4.776,11.187,7.234.768.511,1.524,1.03,2.28,1.549l-5.178.312q-6.815.423-13.629.88l-5.66.374Q582.318,202.029,582.64,198.783Zm50.467-11.9c.291-.278.581-.565.86-.855,0,.772.033,1.549.083,2.321l-.012-.133c.075,1.071.145,2.143.286,3.21.116.934.249,1.869.39,2.8.3,2,.693,3.987,1.063,5.967.112.623.229,1.242.345,1.865-.614.029-1.229.054-1.844.087-2.159.116-4.319.208-6.478.336-4.406.262-8.812.469-13.218.735l-1.022.062q1.022-.822,2.039-1.653c1.723-1.412,3.438-2.824,5.17-4.223,1.678-1.354,3.359-2.708,5.025-4.082,1.641-1.35,3.26-2.741,4.855-4.157Q631.9,188.051,633.107,186.886Zm3.4,17.346c.129.743.253,1.487.366,2.23.158,1.047.324,2.085.465,3.127.137,1.026.266,2.047.415,3.065.307,2.08.582,4.157.814,6.246.087.793.166,1.586.249,2.379-.448-.282-.9-.569-1.345-.86-.814-.527-1.644-1.026-2.463-1.541-.872-.548-1.757-1.075-2.641-1.6-1.781-1.055-3.525-2.184-5.286-3.276-1.9-1.179-3.808-2.371-5.7-3.571s-3.758-2.409-5.631-3.617l-2.055-1.333q2.211-.106,4.419-.224c2.172-.116,4.344-.224,6.516-.349,2.188-.12,4.381-.228,6.569-.365C632.962,204.435,634.735,204.335,636.5,204.232Zm-55.886,23.7q1.532-1.071,3.056-2.155,5.407-3.825,10.71-7.79c3.559-2.662,7.072-5.382,10.614-8.06,1.661-1.262,3.33-2.512,4.979-3.8q2.492,1.694,5.029,3.305c1.86,1.188,3.742,2.33,5.635,3.463,1.919,1.146,3.8,2.342,5.693,3.526,1.744,1.1,3.492,2.172,5.274,3.193s3.588,1.964,5.411,2.894l-.033-.017.079.041.075.037-.037-.017q.965.5,1.89,1.075c-.922.029-1.856.116-2.782.17-1.009.062-2.026.112-3.031.179-2.106.129-4.215.2-6.316.332-4.356.278-8.692.689-13.023,1.146-2.155.224-4.3.457-6.457.685-2.135.228-4.265.4-6.408.54-2.184.141-4.373.253-6.561.4s-4.389.34-6.582.5c-2.109.158-4.207.307-6.32.407-.357.012-.714.038-1.076.058Zm72.136-22.561q-.947,1.258-1.893,2.529c-.6.8-1.175,1.611-1.786,2.4-1.208,1.578-2.454,3.131-3.7,4.684q-1.022,1.277-2.043,2.562c-.6.764-1.187,1.549-1.769,2.33l-.058.079c-.278-2.01-.623-4.007-.947-6.009-.162-1.017-.345-2.027-.519-3.048s-.345-2.068-.527-3.106c-.187-1.013-.366-2.022-.561-3.04-.046-.216-.091-.436-.141-.656,1.753-.112,3.5-.22,5.257-.3,2.093-.1,4.194-.22,6.291-.286,1.051-.033,2.105-.033,3.156-.079.274-.012.552-.037.831-.058C653.8,204.02,653.268,204.684,652.753,205.365Zm-15.232-16.951c1.366,1.026,2.741,2.035,4.09,3.073,2.857,2.188,5.5,4.63,8.372,6.8,1.212.918,2.446,1.806,3.683,2.687l.012.008c-.133.008-.266.008-.4.017-1.038.083-2.076.187-3.115.262q-1.582.124-3.173.216c-2.08.125-4.165.262-6.254.357-.8.037-1.6.079-2.4.116l-.058-.253c-.507-2.147-1.034-4.29-1.5-6.445-.44-2.047-.851-4.115-1.167-6.192-.129-.81-.233-1.632-.34-2.446l.112.087C636.089,187.293,636.795,187.87,637.521,188.414Zm-47.589-1.208c2.18-.3,4.369-.519,6.557-.727s4.356-.361,6.545-.507q3.986-.237,7.973-.324,6.684-.149,13.372-.033c1.952.033,3.912.05,5.868.042.569,0,1.126.013,1.69.017.374,0,.743.008,1.117,0-.395.316-.785.635-1.183.951-.934.752-1.856,1.512-2.782,2.276-3.368,2.766-6.868,5.365-10.294,8.04-1.715,1.341-3.443,2.654-5.158,3.987q-1.6,1.246-3.222,2.475l-.125-.079q-2.759-1.713-5.531-3.4c-1.852-1.13-3.716-2.251-5.56-3.393-1.923-1.192-3.87-2.346-5.822-3.48q-2.89-1.663-5.768-3.355-1.376-.816-2.766-1.6l-.253-.137c.345-.042.69-.091,1.034-.141C587.058,187.609,588.491,187.4,589.932,187.206Zm-26.158,18.749c.585-.635,1.163-1.271,1.752-1.906,1.429-1.553,2.882-3.081,4.344-4.609s2.932-3.04,4.46-4.5c1.449-1.4,2.94-2.753,4.456-4.082.552-.482,1.121-.947,1.69-1.416.315-.253.627-.519.959-.752.166-.1.337-.208.5-.324.054-.037.108-.083.162-.124-.013.141-.029.278-.037.415-.05.868-.091,1.74-.187,2.608-.116,1.067-.27,2.13-.4,3.2-.133,1.046-.261,2.093-.4,3.135q-.417,3.289-.884,6.57c-.058.411-.1.826-.158,1.242-1.952.133-3.9.261-5.851.4-2.213.162-4.431.316-6.648.5-1.055.087-2.105.179-3.16.274-.436.037-.876.083-1.316.125C563.3,206.462,563.542,206.212,563.774,205.955Zm11.15,16.515c-.594-.714-1.167-1.449-1.757-2.164-1.337-1.628-2.62-3.285-3.866-4.983-.6-.822-1.2-1.649-1.806-2.463-.569-.752-1.167-1.474-1.748-2.209-.66-.831-1.254-1.707-1.877-2.558-.129-.174-.253-.345-.386-.515l.984-.013c4.406-.083,8.808-.262,13.206-.436.718-.025,1.433-.062,2.151-.091-.37,3.206-.619,6.428-.98,9.638-.224,2.026-.581,4.028-.955,6.034-.17.872-.341,1.74-.453,2.624l-.141-.149c-.345-.382-.677-.777-1.022-1.163C575.813,223.512,575.365,223,574.924,222.47Zm5.465,9.9c-.76-.76-1.528-1.507-2.321-2.234-.112-.1-.237-.2-.349-.3.149-.083.295-.166.44-.257l.071.017h.075a1.451,1.451,0,0,0,.494-.1c.585.029,1.171.037,1.761.037.37,0,.743,0,1.121,0,1.055-.008,2.106-.021,3.16-.054,2.192-.071,4.377-.137,6.574-.237,2.159-.1,4.331-.129,6.495-.17s4.306-.091,6.457-.191c2.205-.1,4.4-.286,6.59-.457s4.364-.341,6.544-.507c2.13-.162,4.265-.3,6.4-.407,2.168-.1,4.335-.2,6.5-.345,1.013-.071,2.043-.149,3.052-.282,1.026-.133,2.039-.316,3.06-.482.926-.154,1.865-.241,2.787-.419.336-.062.673-.141,1.009-.216-.071.079-.137.162-.208.245-.843.158-1.686.312-2.533.469-1.777.332-3.551.673-5.34.947-.789.112-1.578.2-2.363.291-1.038.125-2.081.237-3.119.353-1.1.129-2.205.291-3.306.44s-2.2.27-3.3.395q-1.576.187-3.156.349c-1.072.112-2.143.224-3.222.311-1.051.087-2.11.166-3.169.253-2.205.182-4.406.345-6.623.477-2.234.137-4.477.224-6.719.361-1.055.062-2.109.145-3.168.133-.507,0-1.009-.017-1.52-.033-.274-.008-.544-.021-.818-.021-.166,0-.332,0-.494-.013h0l-.021,0c-.021,0-.029.017-.013.025a.809.809,0,0,0,.175.021c.154.008.315.012.477.017l1.109.071c.739.05,1.478.083,2.214.087h.369c.993,0,1.985-.012,2.978-.012,1.113,0,2.222,0,3.334,0,2.23,0,4.464,0,6.7-.037,1.038-.017,2.081-.033,3.119-.071,1.071-.042,2.147-.1,3.21-.145,1.084-.054,2.168-.112,3.251-.2.515-.042,1.034-.087,1.537-.145.639-.071,1.279-.162,1.91-.262l-.174.025.552-.079c1.561-.224,3.115-.411,4.672-.64,1.524-.22,3.052-.436,4.564-.743,2.01-.415,4-.926,5.992-1.445.835-.216,1.657-.444,2.479-.7l-.012.021c-.129.15-.249.3-.37.457-.3.079-.606.149-.905.233-.656.187-1.312.386-1.968.586-.984.3-1.96.61-2.944.9s-1.96.536-2.944.772c-2.126.511-4.269.922-6.428,1.25h.025l-.042,0-.058.012-.017,0h0l-.029,0h0c-1.163.166-2.342.3-3.513.44-1.067.129-2.126.245-3.189.345-1.117.1-2.226.179-3.339.291-1.026.1-2.055.229-3.089.324-1.092.1-2.189.187-3.285.257-2.184.141-4.368.154-6.557.216-1.076.029-2.151.05-3.227.054l-1.632.012a10.935,10.935,0,0,1-1.167-.033h0l-.087-.008c-.013-.012-.029,0-.021.021l.066.017c.083.012.17.017.249.025.32.029.635.033.955.042.773.029,1.541.075,2.309.1,1.549.079,3.1.108,4.647.178,1.728.066,3.455.133,5.178.133.449,0,.905,0,1.354-.012,1.063-.017,2.122-.079,3.185-.108s2.139-.075,3.206-.145c1.084-.066,2.168-.149,3.252-.257s2.184-.3,3.268-.494c2.143-.39,4.285-.806,6.4-1.333,1.042-.266,2.085-.544,3.106-.876s2-.7,2.986-1.067c1.349-.511,2.678-1.076,4.024-1.6-.611.781-1.179,1.59-1.732,2.413-.369.129-.739.249-1.109.378-.9.307-1.806.594-2.724.843-.984.274-1.985.511-2.982.739-2.031.457-4.065.88-6.117,1.2v0l-.025,0-.1.013.046,0-.05.012,0-.008c-.71.1-1.432.187-2.147.245-2.08.174-4.169.291-6.246.49-2.147.208-4.289.419-6.441.619-1.1.1-2.217.216-3.326.307-1.088.1-2.172.17-3.26.241-1.071.062-2.139.125-3.214.2-.486.025-.98.062-1.466.108a6.034,6.034,0,0,0-.909.1l0,.029.045-.008h0a8.626,8.626,0,0,1,1.084-.054c1.047-.017,2.1,0,3.156,0s2.134.025,3.2.008c1.125-.012,2.255-.058,3.384-.1q1.62-.056,3.231-.129c2.126-.1,4.244-.249,6.354-.419,1.059-.087,2.11-.166,3.164-.241,1.022-.075,2.039-.149,3.056-.274a38.386,38.386,0,0,0,6.266-1.4c.976-.287,1.952-.577,2.911-.905.934-.311,1.848-.685,2.753-1.084h-.008l.025-.008.008,0c.411-.179.814-.374,1.217-.569l-.266.39.017-.017-.021.029,0-.012-.025.046-.025.042-.042.054-.008.012.05-.079c-.037.054-.071.112-.108.162l0,0,.008-.008c-.241.37-.486.739-.731,1.109l.021-.029-.042.058-.021.029.008-.012c-.237.357-.473.714-.727,1.059l-.05.066c-.112.029-.224.066-.336.1-.7.187-1.4.353-2.105.519-1.512.357-3.048.635-4.58.868l-.864.116c-2.147.27-4.3.407-6.457.594-2.209.2-4.423.4-6.628.635-2.247.245-4.5.519-6.752.714-1.088.1-2.18.174-3.268.257-.532.042-1.067.079-1.6.1-.324.008-.644.008-.968.025v.029c.228,0,.465,0,.694,0,.079,0,.154,0,.228,0,.345,0,.693,0,1.042-.017.889-.033,1.778-.066,2.666-.091l.315-.012c-2.317.224-4.634.49-6.943.814a92.922,92.922,0,0,0-11.432,2.276l-.033-.033c-.386-.361-.789-.706-1.171-1.071q-1.109-1.071-2.238-2.122C583.255,235.214,581.822,233.79,580.389,232.366Zm-47.17,167.792c-2.624,2.894-5.432,5.627-8.33,8.247a99.409,99.409,0,0,1-10.24,8.114q-3.052,2.018-6.258,3.8a146.926,146.926,0,0,1-23.143,10.274c-3.546,1.183-7.122,2.276-10.76,3.148-4.111.988-8.28,1.711-12.462,2.317-4.294.619-8.613.984-12.94,1.254q-4.69.262-9.372.216c-2.267-.025-4.522-.15-6.79-.278-2.284-.133-4.555-.324-6.827-.6-4.2-.5-8.364-1.217-12.5-2.06-1.6-.345-3.214-.714-4.8-1.125-4.419-1.154-8.845-2.292-13.172-3.771-2.176-.752-4.306-1.64-6.42-2.57-1.889-.839-3.766-1.694-5.614-2.608a72.124,72.124,0,0,1-8.866-5.369c-2.641-1.865-5.216-3.82-7.67-5.926A72.442,72.442,0,0,1,360.025,406a94.22,94.22,0,0,1-5.959-7.878c-.241-.357-.482-.714-.714-1.076-1.271-1.977-2.542-3.962-3.7-6.009-1.046-1.844-2.022-3.725-2.969-5.627-.963-1.931-1.894-3.887-2.757-5.868-.905-2.072-1.715-4.173-2.454-6.312-.179-.544-.361-1.1-.531-1.64a104.859,104.859,0,0,1-3.115-12.935,117.217,117.217,0,0,1-1.7-12.952,98.823,98.823,0,0,1,.17-12.74,101.864,101.864,0,0,1,1.815-12.279c.241-1.113.478-2.218.739-3.318a103.247,103.247,0,0,1,3.9-12.948c1.595-4.169,3.422-8.222,5.4-12.217.349-.693.706-1.387,1.071-2.072a133.46,133.46,0,0,1,6.9-11.744,103.427,103.427,0,0,1,8.21-10.78q1.862-2.093,3.812-4.1c3.326-3.418,6.8-6.707,10.427-9.8A118.928,118.928,0,0,1,389,245.58a115.811,115.811,0,0,1,10.809-6.495c1.96-1.03,3.928-2.039,5.955-2.924,1.819-.806,3.671-1.507,5.552-2.163,1.541-.5,3.089-.976,4.655-1.4a122.983,122.983,0,0,1,12.923-2.608c4.456-.685,8.937-1.192,13.442-1.474.266-.021.531-.029.8-.042a1.139,1.139,0,0,0,.208.029c4.443-.021,8.874-.075,13.313.042,1.69.112,3.376.27,5.049.5,2.2.3,4.394.681,6.566,1.125.747.154,1.483.316,2.222.49a133.258,133.258,0,0,1,13.118,3.725c2.109.735,4.211,1.495,6.283,2.35,1.877.764,3.712,1.62,5.535,2.521,3,1.516,5.93,3.173,8.8,4.929q2.367,1.445,4.667,3.015c.291.22.59.44.885.673,3.1,2.363,6.146,4.817,9.082,7.379,1.432,1.262,2.84,2.537,4.219,3.87a118.459,118.459,0,0,1,8.305,8.895c2.056,2.45,3.987,5.016,5.839,7.633-1.121,1.362-2.238,2.732-3.293,4.157-1.159,1.57-2.251,3.185-3.314,4.838-.855,1.333-1.665,2.7-2.458,4.065-1.5-2.292-3.073-4.543-4.726-6.723-1.084-1.433-2.18-2.857-3.356-4.215-1.08-1.254-2.2-2.471-3.339-3.671-1.167-1.225-2.346-2.442-3.567-3.609s-2.5-2.309-3.787-3.43l.041.033-.191-.17-.033-.025.012.008c-1.312-1.142-2.649-2.251-4-3.343a102.152,102.152,0,0,0-8.413-6.15,50.916,50.916,0,0,0-9.908-4.929c-1.549-.581-3.139-1.038-4.726-1.516-2.03-.88-4.094-1.686-6.2-2.363a85.888,85.888,0,0,0-11.5-2.786,91.26,91.26,0,0,0-11.353-1.242,103.089,103.089,0,0,0-11.607.154q-5.6.349-11.15,1.138a85.688,85.688,0,0,0-10.672,2.118,69.984,69.984,0,0,0-10.768,3.9c-1.686.772-3.326,1.649-4.929,2.583-1.624.943-3.239,1.906-4.8,2.948q-2.548,1.7-5.045,3.5c-1.5,1.076-2.953,2.209-4.385,3.359q-4.522,3.613-8.7,7.6a104.954,104.954,0,0,0-8.384,8.966c-1.2,1.441-2.388,2.894-3.509,4.406-1.084,1.462-2.1,2.973-3.081,4.506a112.963,112.963,0,0,0-5.934,10.56,100.085,100.085,0,0,0-4.56,10.344,88.271,88.271,0,0,0-3.156,10.731,107.947,107.947,0,0,0-2.035,11.445,72.2,72.2,0,0,0-.369,11.486,91.235,91.235,0,0,0,1.229,11.6,109.775,109.775,0,0,0,2.446,10.863,75.9,75.9,0,0,0,4.07,11.075,90.107,90.107,0,0,0,4.938,9.464,102.717,102.717,0,0,0,6.395,9.431,62.9,62.9,0,0,0,7.143,7.832c1.462,1.341,2.99,2.6,4.551,3.808,1.42,1.109,2.878,2.18,4.377,3.193,1.561,1.059,3.164,2.056,4.825,2.961,1.777.98,3.6,1.86,5.448,2.7,1.723.789,3.467,1.557,5.232,2.255,1.728.681,3.488,1.262,5.27,1.8,1.806.548,3.646,1,5.473,1.491,1.678.444,3.364.889,5.062,1.267,3.634.822,7.309,1.466,11,1.968a109.422,109.422,0,0,0,11.307.88c1.142.029,2.288.05,3.434.05q3.968,0,7.932-.262c1.794-.116,3.584-.241,5.374-.419,1.885-.183,3.766-.424,5.635-.706,3.434-.519,6.856-1.142,10.224-1.985a116.854,116.854,0,0,0,11.6-3.629q5.2-1.887,10.2-4.265c2.9-1.379,5.768-2.849,8.534-4.485a78.524,78.524,0,0,0,8.787-6.055,89.708,89.708,0,0,0,7.932-7.084,91.988,91.988,0,0,0,6.9-7.658c.32-.4.639-.806.955-1.213v0l.008-.008.008-.013-.012.013.033-.054,0,.008c.1-.2.22-.4.332-.6.083-.145.166-.291.257-.432.1-.158.208-.307.32-.461.062-.083.116-.174.187-.258.444-.552.934-1.063,1.383-1.607.112-.141.228-.291.345-.436.361-.548.714-1.109,1.042-1.678l-.02-.042c.137-.22.282-.436.415-.656s.253-.465.391-.694l.062-.091c.34-.59.664-1.179.98-1.777a87.4,87.4,0,0,0,3.808-8.293,4.475,4.475,0,0,1,.149-.457c.133-.34.287-.681.436-1.022.021-.054.041-.116.062-.174.079-.2.149-.39.224-.59l.017.037c.046-.129.1-.257.141-.386.091-.262.187-.527.278-.793l0-.008.067-.187q.392-1.109.785-2.226c.357-1.009.71-2.031,1.079-3.035.033-.1.075-.2.116-.307l-.046-.166c.32-1.067.631-2.139.9-3.222a66.68,66.68,0,0,0,1.869-11.723c.27-3.941.424-7.89.345-11.831a105.378,105.378,0,0,0-.964-12.1c-.32-2.309-.727-4.618-1.213-6.906.245-.714.494-1.424.764-2.13.037-.091.075-.179.108-.27.075.295.145.594.216.893.179.785.353,1.582.523,2.371.4,1.785.739,3.588,1.067,5.382.2,1.076.4,2.143.59,3.214s.34,2.126.494,3.193c.32,2.251.586,4.5.781,6.756q.106,1.408.178,2.824c.054.98.1,1.964.1,2.944.016,1.914-.021,3.837-.162,5.747-.312,4.456-.752,8.9-1.474,13.317v-.008l0,.021v.008c-.046.253-.087.507-.125.752v0l-.012.05,0-.008c-.025.149-.054.295-.075.44l.008-.079c-.6,3.409-1.246,6.806-1.873,10.211l.013.017.013-.008c.631-2.633,1.262-5.257,1.927-7.878.544-2.126,1.084-4.256,1.5-6.408q.666-3.407,1.088-6.856c.262-2.2.444-4.414.532-6.636a53.545,53.545,0,0,0-.162-6.827l0,.008q-.156-1.844-.386-3.675c-.278-2.163-.669-4.315-1.092-6.453-.216-1.067-.465-2.126-.71-3.189s-.49-2.105-.76-3.152c-.266-1.017-.511-2.031-.8-3.044-.266-.926-.548-1.856-.847-2.782-.149-.461-.3-.93-.457-1.391q.865-2.224,1.844-4.393c.071.258.145.519.216.777.291,1.038.573,2.081.859,3.119s.548,2.068.8,3.11c.249,1.021.49,2.047.694,3.081.216,1.113.394,2.23.581,3.347s.357,2.23.511,3.351c.291,2.118.556,4.244.83,6.366.27,2.1.465,4.194.648,6.3V339.4l0,.062,0,.042,0-.017c.012.137.025.278.037.419.158,1.931.262,3.858.282,5.8s-.083,3.912-.174,5.868l.012.017.012-.017c.141-1.018.274-2.039.411-3.052s.278-2.047.382-3.073a47.146,47.146,0,0,0,.224-5.88c-.042-2.234-.174-4.46-.386-6.682q-.305-3.2-.851-6.366c-.183-1.084-.411-2.163-.652-3.231-.249-1.1-.5-2.213-.789-3.306-.557-2.089-1.225-4.148-1.968-6.179l.021.075c-.511-1.412-1.051-2.807-1.566-4.215.245-.548.494-1.1.752-1.636.469,1.6.963,3.189,1.532,4.755.374,1.042.755,2.085,1.1,3.135a23.368,23.368,0,0,1,.872,3.044l0-.012a6.45,6.45,0,0,1,.083.693l.016.012.013-.012a11.643,11.643,0,0,0-.145-1.611c-.125-.926-.278-1.852-.44-2.774v-.017l-.008-.05-.021-.1a32,32,0,0,0-1.62-6.138c-.262-.677-.556-1.345-.864-2,.166-.345.328-.689.5-1.03.15-.3.307-.594.461-.889l.075.233c.3.914.561,1.844.839,2.77.615,2.068,1.246,4.128,1.848,6.2.615,2.122,1.2,4.256,1.744,6.4.523,2.072.968,4.165,1.354,6.27.042.216.079.44.112.66l0-.05.013.1v0c.3,1.7.569,3.413.868,5.124v-.008c.154.893.332,1.777.5,2.666v0l.008.042h0l0,.029.012.017.012-.021c-.029-.266-.083-.523-.125-.789-.058-.378-.116-.764-.166-1.146-.112-.76-.216-1.524-.32-2.292-.22-1.549-.415-3.106-.6-4.655a81.8,81.8,0,0,0-2.641-13.272q-.891-3.065-2.06-6.034c-.349-.889-.719-1.765-1.151-2.62l-.062-.116.062-.125q.5-.947,1.013-1.881c.2.656.4,1.312.615,1.964q.785,2.454,1.553,4.912c.631,2.018,1.271,4.041,1.873,6.067.3,1.022.6,2.043.893,3.073q.217.754.423,1.52c.129.473.257.955.349,1.441v-.008a1.366,1.366,0,0,1,.021.224l.021.017.008-.008,0-.008c0-.062,0-.129-.008-.191-.021-.208-.046-.415-.079-.627-.058-.423-.12-.855-.191-1.283q-.224-1.358-.44-2.72c-.286-1.86-.61-3.721-1.026-5.56a34.579,34.579,0,0,0-1.977-6.05c-.423-.98-.872-1.948-1.37-2.894-.1-.179-.2-.357-.3-.536q1.233-2.2,2.57-4.331.368.947.7,1.9c.386,1.146.739,2.3,1.084,3.459a120.246,120.246,0,0,1,3.106,13.234A122.953,122.953,0,0,1,556,329.542c.012.187.021.378.033.573a137.826,137.826,0,0,1-.1,14.173c-.133,2.33-.27,4.659-.535,6.976-.253,2.226-.615,4.435-1.059,6.64-.029.129-.054.257-.087.382a103.2,103.2,0,0,1-4.082,13.264c-.756,2-1.541,3.986-2.375,5.955-.012.054-.025.112-.037.162a5.219,5.219,0,0,1-.208.652c-.108.274-.224.544-.345.822-.1.274-.22.552-.345.818-.216.469-.432.93-.677,1.387-.166.312-.345.615-.527.918-.071.174-.154.353-.224.532-.191.432-.4.855-.619,1.271l-.058.112c-.22.407-.453.81-.7,1.2-.062.1-.125.2-.191.295a64.267,64.267,0,0,1-3.659,5.78c-.606.855-1.233,1.7-1.873,2.537-.075.116-.158.232-.233.353a13.366,13.366,0,0,1-.914,1.138c-.062.075-.129.15-.2.228-.045.062-.1.121-.149.179-.212.241-.424.486-.639.727-.594.673-1.175,1.35-1.765,2.022-.208.253-.423.5-.639.743l.054.071Zm-19.825-56.945a95.608,95.608,0,0,0,1.325,12.445,117,117,0,0,0,2.62,11.656,80.8,80.8,0,0,0,4.369,11.885c.694,1.507,1.412,3.011,2.159,4.493l-.008.017q-2.28,3.214-4.879,6.2c-.295.332-.594.664-.889,1-2.172,2.388-4.489,4.647-6.881,6.81a81.584,81.584,0,0,1-8.455,6.7q-2.523,1.669-5.178,3.131a119.75,119.75,0,0,1-19.111,8.488c-2.928.984-5.884,1.877-8.891,2.6-3.393.814-6.835,1.412-10.29,1.914-3.551.515-7.118.814-10.693,1.038-2.575.137-5.153.207-7.74.174-1.869-.021-3.729-.121-5.6-.228-1.89-.112-3.766-.266-5.644-.5-3.459-.411-6.906-1-10.328-1.7-1.325-.291-2.649-.585-3.966-.934-3.65-.951-7.309-1.89-10.88-3.115-1.8-.619-3.559-1.35-5.3-2.122-1.491-.66-2.982-1.337-4.443-2.051l.162.079c-.075-.033-.145-.071-.22-.108l-.137-.066a60.87,60.87,0,0,1-7.325-4.439c-2.18-1.536-4.311-3.16-6.337-4.892a59.577,59.577,0,0,1-5.8-5.963,76.326,76.326,0,0,1-4.925-6.5c-.2-.3-.394-.59-.59-.889-1.051-1.636-2.1-3.272-3.061-4.963-.864-1.524-1.669-3.085-2.45-4.651-.793-1.591-1.565-3.21-2.28-4.846-.743-1.715-1.416-3.447-2.027-5.207-.15-.457-.291-.905-.436-1.358a86.819,86.819,0,0,1-2.575-10.685,98.019,98.019,0,0,1-1.408-10.7,83.24,83.24,0,0,1,.137-10.527,84.225,84.225,0,0,1,1.507-10.145c.2-.918.386-1.827.611-2.745a84.145,84.145,0,0,1,3.214-10.689c1.316-3.443,2.828-6.794,4.464-10.1.287-.569.581-1.142.88-1.711a110.722,110.722,0,0,1,5.7-9.7,86.539,86.539,0,0,1,6.781-8.9q1.538-1.732,3.148-3.393c2.749-2.819,5.619-5.535,8.609-8.1a102.333,102.333,0,0,1,8.4-6.557l.075-.05.15-.1a98.74,98.74,0,0,1,8.924-5.361c1.624-.847,3.256-1.69,4.925-2.421,1.5-.656,3.032-1.237,4.584-1.781,1.271-.415,2.554-.8,3.845-1.15a100.18,100.18,0,0,1,10.677-2.155c3.675-.561,7.383-.98,11.1-1.217.224-.017.444-.025.665-.033a.787.787,0,0,0,.17.017c3.663-.012,7.329-.058,11,.037,1.4.1,2.791.224,4.169.415,1.819.245,3.625.561,5.424.922.614.137,1.225.266,1.835.407a111.357,111.357,0,0,1,10.834,3.077c1.74.606,3.484,1.237,5.191,1.943,1.553.64,3.069,1.341,4.576,2.085,2.471,1.254,4.9,2.625,7.263,4.07,1.3.8,2.587,1.632,3.858,2.491.245.183.49.366.731.552,2.558,1.956,5.075,3.982,7.5,6.1,1.175,1.038,2.346,2.1,3.48,3.2a97.056,97.056,0,0,1,6.86,7.346,109.8,109.8,0,0,1,6.657,8.941q1.065,1.595,2.076,3.231c-.357.685-.71,1.366-1.055,2.056a105.543,105.543,0,0,0-4.888,11.1,93.32,93.32,0,0,0-3.393,11.515,117.229,117.229,0,0,0-2.184,12.284A77.9,77.9,0,0,0,513.395,343.212Zm22.615,1.906a73.725,73.725,0,0,1,.125-9.335c.133-1.723.357-3.438.631-5.145.05.644.1,1.287.145,1.931.012.158.016.316.025.469a113.639,113.639,0,0,1-.083,11.715c-.091,1.665-.2,3.326-.37,4.983C536.28,348.2,536.118,346.659,536.01,345.118Zm38.516-73.19.075-.05a.959.959,0,0,0,.125-.091,88.1,88.1,0,0,1,7.923-4.755c1.433-.752,2.878-1.495,4.356-2.139,1.333-.59,2.7-1.1,4.07-1.582,1.13-.374,2.259-.718,3.409-1.022a88.2,88.2,0,0,1,9.464-1.91c3.26-.5,6.545-.872,9.842-1.08.2-.012.39-.021.59-.033a.449.449,0,0,0,.149.021c3.252-.017,6.5-.054,9.75.033,1.238.083,2.471.191,3.7.365,1.607.22,3.214.5,4.809.818.544.12,1.088.241,1.624.361a98.017,98.017,0,0,1,9.609,2.728c1.541.536,3.081,1.1,4.6,1.719,1.375.569,2.72,1.192,4.057,1.848,2.193,1.113,4.339,2.33,6.441,3.613,1.158.706,2.3,1.445,3.417,2.2.224.166.436.328.652.49,2.263,1.736,4.5,3.53,6.653,5.4,1.046.926,2.072,1.865,3.085,2.841a85.8,85.8,0,0,1,6.08,6.511,95.446,95.446,0,0,1,5.9,7.923c1.616,2.429,3.152,4.917,4.543,7.483a49.955,49.955,0,0,1,3.376,7.608c.274.839.536,1.678.785,2.529a87.2,87.2,0,0,1,2.276,9.688,90.642,90.642,0,0,1,1.154,9.817c.008.141.013.287.021.419a99.532,99.532,0,0,1-.075,10.386c-.1,1.7-.2,3.405-.386,5.1-.183,1.57-.432,3.123-.743,4.676l-.037.183c-.021.1-.042.191-.062.291a75.91,75.91,0,0,1-2.994,9.7c-1.071,2.853-2.234,5.664-3.575,8.4a48.236,48.236,0,0,1-3.721,6.175c-1.35,1.9-2.8,3.733-4.323,5.494-.262.3-.523.59-.8.884-1.914,2.118-3.97,4.115-6.092,6.038a72.691,72.691,0,0,1-7.5,5.938c-1.487.988-3.019,1.918-4.58,2.774a106.329,106.329,0,0,1-16.947,7.529c-2.6.872-5.22,1.665-7.878,2.309-3.011.718-6.067,1.25-9.128,1.694-3.148.457-6.3.727-9.476.926-2.284.12-4.572.179-6.86.154-1.661-.025-3.314-.108-4.967-.2-1.682-.1-3.343-.241-5.008-.44-3.069-.37-6.121-.893-9.148-1.512-1.179-.257-2.35-.523-3.521-.826-3.235-.843-6.474-1.674-9.642-2.762-1.595-.548-3.156-1.2-4.7-1.877-1.312-.586-2.625-1.179-3.916-1.815l.125.067c-.066-.029-.125-.067-.191-.1a1.313,1.313,0,0,0-.133-.062,53.957,53.957,0,0,1-6.486-3.937c-1.931-1.362-3.829-2.8-5.619-4.335a53.372,53.372,0,0,1-5.149-5.291c-.922-1.075-1.794-2.2-2.641-3.347a112.463,112.463,0,0,0,4.622-10.5,114.919,114.919,0,0,0,4.319-13.176,80.912,80.912,0,0,0,2.255-14.194c.336-4.767.519-9.543.415-14.323a127.353,127.353,0,0,0-1.158-14.655,115.241,115.241,0,0,0-2.558-13.043q-.853-3.289-1.873-6.536a70.473,70.473,0,0,0-2.529-6.964c-.166-.386-.345-.768-.519-1.154q1.365-1.757,2.816-3.447,1.364-1.532,2.791-3.006c2.438-2.5,4.983-4.908,7.637-7.18A91.185,91.185,0,0,1,574.526,271.928Zm139.363,71.741c-.116,2.064-.233,4.128-.47,6.183-.224,1.977-.548,3.937-.939,5.889l-.075.341a91.771,91.771,0,0,1-3.625,11.756c-1.3,3.451-2.708,6.852-4.327,10.162a58.4,58.4,0,0,1-4.51,7.479c-1.632,2.3-3.388,4.518-5.228,6.653-.32.353-.64.706-.959,1.063-2.33,2.562-4.817,4.987-7.387,7.313a86.6,86.6,0,0,1-9.078,7.193q-2.7,1.794-5.548,3.359a128.162,128.162,0,0,1-20.51,9.111c-3.148,1.055-6.32,2.018-9.547,2.791-3.646.88-7.338,1.52-11.046,2.06-3.808.548-7.637.868-11.47,1.113-2.77.15-5.535.22-8.305.187-2.01-.021-4.011-.133-6.017-.245-2.031-.116-4.04-.291-6.054-.532-3.717-.444-7.408-1.075-11.084-1.823-1.424-.311-2.849-.631-4.261-1-3.92-1.021-7.836-2.031-11.673-3.343-1.935-.665-3.82-1.453-5.689-2.276-1.674-.739-3.335-1.5-4.975-2.309a64.089,64.089,0,0,1-7.865-4.759c-2.342-1.653-4.63-3.4-6.8-5.253a63.527,63.527,0,0,1-4.8-4.775c.121-.145.245-.291.366-.44.295-.366.581-.735.872-1.1l.154.187c1.071,1.291,2.218,2.517,3.4,3.708a51.649,51.649,0,0,0,4.825,4.261c.855.673,1.723,1.321,2.616,1.943.93.64,1.877,1.254,2.832,1.852.86.54,1.707,1.1,2.57,1.632.9.561,1.81,1.1,2.712,1.653.951.573,1.881,1.171,2.84,1.732.9.519,1.831.984,2.766,1.445.955.469,1.927.934,2.894,1.375,1.009.461,2.018.884,3.052,1.271.984.37,1.977.719,2.986,1.017,1.121.324,2.251.627,3.376.93h0c.008,0,.021-.021,0-.025-1.088-.394-2.172-.8-3.231-1.262-.943-.415-1.873-.864-2.8-1.321-1.815-.905-3.58-1.914-5.336-2.94l.013.013-.021-.017-.121-.067.071.038c-.9-.544-1.782-1.1-2.67-1.665s-1.79-1.117-2.679-1.678-1.744-1.13-2.62-1.69-1.777-1.13-2.674-1.682c-1.856-1.159-3.729-2.284-5.548-3.5-1.778-1.184-3.492-2.479-5.141-3.833-1.4-1.158-2.765-2.371-4.069-3.642.332-.428.664-.856.992-1.292.1.133.208.27.32.395.511.6,1.047,1.183,1.586,1.757.735.777,1.474,1.553,2.226,2.3.789.785,1.62,1.52,2.458,2.251.806.693,1.632,1.366,2.487,2q1.377,1.009,2.836,1.885,1.408.847,2.849,1.64c.939.519,1.906.98,2.882,1.429,2.043.93,4.124,1.777,6.192,2.649h0l0-.029c-1.6-.843-3.173-1.732-4.726-2.653l.066.041-.311-.187.033.021c-1.495-.893-2.957-1.844-4.406-2.816-1.528-1.026-3.065-2.06-4.58-3.11-1.8-1.25-3.6-2.5-5.32-3.858-.8-.627-1.578-1.279-2.354-1.935-.731-.619-1.453-1.246-2.139-1.923q.629-.835,1.233-1.686c.283.3.565.6.856.893l-.021-.021c1.059,1.071,2.139,2.134,3.243,3.16,1.038.972,2.093,1.927,3.21,2.811a44.494,44.494,0,0,0,5.7,3.767q1.383.785,2.8,1.5c1.021.507,2.064.988,3.1,1.474h0l.012-.021c-1.79-1.117-3.555-2.276-5.269-3.5-.885-.639-1.781-1.267-2.666-1.9q-1.233-.891-2.442-1.79c-1.786-1.312-3.555-2.633-5.286-4-.847-.673-1.711-1.333-2.546-2.022-.2-.162-.39-.332-.586-.494.278-.4.561-.8.831-1.2.731-1.088,1.42-2.2,2.085-3.33a55.218,55.218,0,0,0,6.158,6.719c1.292,1.188,2.645,2.3,4.032,3.38,1.262.98,2.55,1.931,3.879,2.828,1.383.938,2.811,1.823,4.277,2.633,1.574.86,3.2,1.64,4.834,2.388,1.528.7,3.069,1.383,4.634,2,1.532.6,3.094,1.121,4.672,1.595,1.607.486,3.235.889,4.855,1.321,1.495.395,2.986.785,4.485,1.125q4.84,1.09,9.75,1.74a95.459,95.459,0,0,0,10.029.781c1.022.033,2.031.046,3.048.046q3.513,0,7.03-.228c1.586-.1,3.181-.216,4.763-.374,1.669-.162,3.335-.378,5-.631,3.048-.449,6.075-1,9.061-1.752a104.516,104.516,0,0,0,10.282-3.218q4.616-1.676,9.049-3.787c2.575-1.217,5.116-2.521,7.566-3.966a71.443,71.443,0,0,0,7.79-5.369,81.289,81.289,0,0,0,7.031-6.287,79.616,79.616,0,0,0,6.108-6.79c1.117-1.383,2.2-2.795,3.189-4.269a51.3,51.3,0,0,0,2.737-4.593,81.725,81.725,0,0,0,3.949-8.816,83.8,83.8,0,0,0,3.164-9.655,58.988,58.988,0,0,0,1.648-10.39c.245-3.492.386-6.993.307-10.49a93.65,93.65,0,0,0-.847-10.726,84.916,84.916,0,0,0-1.877-9.559q-.629-2.4-1.366-4.78a51.237,51.237,0,0,0-1.856-5.1c-.631-1.47-1.3-2.919-2.068-4.331-.814-1.516-1.686-3.007-2.6-4.468-1.885-3.064-3.908-6.063-6.08-8.936-.963-1.267-1.935-2.529-2.973-3.737-.963-1.109-1.952-2.184-2.969-3.247-1.03-1.092-2.072-2.164-3.161-3.2s-2.217-2.047-3.355-3.04l.029.021c-.054-.05-.108-.1-.162-.141l-.029-.029.008.013c-1.159-1.013-2.342-2-3.542-2.965a90.44,90.44,0,0,0-7.458-5.452,44.993,44.993,0,0,0-8.783-4.368c-1.375-.515-2.782-.922-4.19-1.341-1.8-.781-3.634-1.495-5.494-2.1a76.367,76.367,0,0,0-10.191-2.471,81.746,81.746,0,0,0-10.062-1.1,92.526,92.526,0,0,0-10.294.133c-3.306.2-6.6.548-9.883,1.009a76.243,76.243,0,0,0-9.46,1.881,62.254,62.254,0,0,0-9.551,3.451c-1.495.685-2.948,1.462-4.369,2.292s-2.874,1.69-4.261,2.612q-2.255,1.514-4.464,3.1c-1.333.951-2.62,1.96-3.9,2.973-2.674,2.134-5.232,4.393-7.707,6.748a92.609,92.609,0,0,0-7.105,7.558l-.008-.017c-.249.295-.5.594-.752.9l-.311.411-.1.116c-.291.374-.577.748-.86,1.125-.739.988-1.449,2-2.139,3.023l-.087.125v.008c-.494.731-.984,1.47-1.462,2.217-.478.764-.968,1.516-1.458,2.263-.22.341-.427.681-.664,1-.1.133-.2.257-.307.378l-.025.021c-1.154,1.993-2.23,4.02-3.256,6.071q-.567,1.14-1.117,2.28c-.154.353-.3.7-.453,1.051-.208.477-.4.963-.594,1.445l0-.008c-.2.49-.407.988-.6,1.486l-.058.137q-.76,1.956-1.532,3.9c-.3.984-.6,1.964-.943,2.923l-.029.075-.046.129h0c-.116.307-.228.615-.345.922-.419,1.437-.793,2.89-1.121,4.348a98.923,98.923,0,0,0-1.806,10.145,64.722,64.722,0,0,0-.328,10.191,80.636,80.636,0,0,0,1.092,10.278c.444,2.525.98,5.045,1.615,7.537-.461,1.5-.968,2.982-1.5,4.456-.154-.548-.316-1.1-.507-1.636-.295-.83-.664-1.636-.9-2.483v.013l-.025-.091h0a1.75,1.75,0,0,1-.071-.353v-.025c0-.021-.021-.021-.021,0v0a1.34,1.34,0,0,0,.012.386,12.866,12.866,0,0,0,.307,1.728,11.375,11.375,0,0,0,.577,1.765c.149.357.32.7.5,1.038-.116.32-.228.644-.349.959-.357.955-.731,1.906-1.109,2.853-.129-.561-.257-1.117-.4-1.674-.357-1.4-.83-2.774-1.2-4.173l0,.025c-.087-.336-.17-.681-.233-1.022a2.274,2.274,0,0,1-.054-.407v-.017c0-.017-.025-.013-.025,0v0a1.215,1.215,0,0,0,.013.349c.033.453.079.9.129,1.345a29.13,29.13,0,0,0,.44,3.065,19.324,19.324,0,0,0,.847,2.952c.041.12.1.237.145.353-.448,1.092-.91,2.18-1.4,3.26-.183-.876-.349-1.752-.527-2.629-.316-1.6-.681-3.185-1.092-4.763v0l-.008-.025-.008-.042-.012-.033v.008c-.316-1.221-.66-2.434-.98-3.65v0c-.179-.685-.345-1.379-.482-2.076-.054-.274-.112-.544-.158-.818a1.469,1.469,0,0,1-.046-.266l-.033,0c.013.158.046.32.062.478.054.457.1.914.141,1.37q.143,1.458.353,2.907a53.763,53.763,0,0,0,1.2,6.113,27.9,27.9,0,0,0,.951,3.015c.125.32.258.631.386.947-.307.677-.623,1.354-.951,2.022l-.071.133c-.075-.283-.153-.561-.228-.839-.017-.062-.029-.129-.046-.191l.012.058c-.274-1.071-.527-2.155-.764-3.239-.428-1.981-.847-3.97-1.233-5.963-.4-2.068-.856-4.128-1.317-6.183-.477-2.126-.972-4.248-1.366-6.391-.2-1.071-.374-2.135-.515-3.21a21.449,21.449,0,0,1-.224-2.919l0-.233c0-.017-.021-.021-.021,0a3.982,3.982,0,0,0-.029.544c-.008.378,0,.76,0,1.134.012.835.054,1.661.112,2.487.116,1.7.3,3.4.515,5.079a100.794,100.794,0,0,0,2.238,12.632l-.017-.062a48.139,48.139,0,0,0,1.482,4.7c.37.988.789,1.952,1.229,2.911-.149.287-.3.573-.457.856-.49-1.03-.972-2.064-1.429-3.11-.8-1.831-1.52-3.7-2.168-5.59-.162-.486-.328-.972-.477-1.457a92.833,92.833,0,0,1-2.758-11.466,104.015,104.015,0,0,1-1.507-11.486,87.667,87.667,0,0,1,.145-11.3,90.731,90.731,0,0,1,1.611-10.884c.208-.98.419-1.964.656-2.944a91.168,91.168,0,0,1,3.451-11.474c1.125-2.944,2.392-5.826,3.746-8.671l.075.137.042-.1c.494-1.134,1.046-2.226,1.636-3.31.017-.029.033-.066.058-.1.174-.386.365-.772.561-1.15.174-.336.349-.681.531-1.017l-.046-.071c1.628-3,3.376-5.955,5.253-8.8.523-.793,1.055-1.574,1.607-2.346a7.43,7.43,0,0,1,.411-.76,16.047,16.047,0,0,1,.926-1.379c.295-.411.635-.8.968-1.183.432-.494.876-.984,1.32-1.466.062-.075.133-.149.2-.224l.037-.037c.17-.183.341-.361.507-.536.6-.731,1.217-1.437,1.852-2.139l-.033-.05c.939-1.042,1.89-2.068,2.865-3.077,2.944-3.023,6.026-5.938,9.236-8.687a107.652,107.652,0,0,1,9.19-7.155l0,0c.025-.017.046-.029.066-.046a104.658,104.658,0,0,1,9.58-5.756c1.74-.909,3.488-1.806,5.278-2.591,1.62-.714,3.26-1.337,4.925-1.914,1.366-.449,2.737-.86,4.128-1.242a108.441,108.441,0,0,1,11.457-2.309c3.953-.611,7.927-1.055,11.918-1.308.232-.008.473-.025.71-.037a.647.647,0,0,0,.182.029c3.929-.025,7.865-.066,11.8.033,1.491.1,2.99.241,4.477.444q2.928.4,5.818.992c.66.145,1.312.282,1.964.436a116.63,116.63,0,0,1,11.632,3.3c1.864.648,3.737,1.325,5.573,2.085,1.661.685,3.293,1.437,4.9,2.238,2.662,1.35,5.257,2.816,7.8,4.369,1.4.855,2.774,1.748,4.136,2.67.266.2.523.4.785.594,2.749,2.1,5.453,4.277,8.056,6.545,1.263,1.121,2.521,2.259,3.738,3.434a103.939,103.939,0,0,1,7.358,7.882,115.743,115.743,0,0,1,7.147,9.6c1.956,2.932,3.8,5.951,5.494,9.053a61.627,61.627,0,0,1,4.086,9.211c.332,1.017.652,2.035.951,3.06a105.5,105.5,0,0,1,2.757,11.731,111.088,111.088,0,0,1,1.4,11.889c0,.17.016.341.025.511A122.048,122.048,0,0,1,713.889,343.669Z" transform="translate(-319.532 -130.61)" fill="#72c484"/>
      <path id="Path_925" data-name="Path 925" d="M404.067,194.8h0v0Z" transform="translate(-85.009 -93.975)" fill="#72c484"/>
      <path id="Path_926" data-name="Path 926" d="M334.848,298.8c-.32-2.251-.569-4.522-.673-6.8-.112-2.35-.1-4.7-.029-7.051l0,.191c.013-.266.025-.519.033-.785l0,.008,0-.1v-.029h0v-.079l0-.1v.021a97.364,97.364,0,0,1,1.113-11.308,104.385,104.385,0,0,1,3.052-13.372l.008-.037.012-.033c.017-.054.033-.108.05-.166l0-.017.013-.037c.037-.12.079-.245.116-.365a77.9,77.9,0,0,1,3.356-8.758,97.889,97.889,0,0,1,6.594-12.051l-.075.12c.1-.145.183-.287.274-.432l.1-.158-.029.033q1.782-2.753,3.7-5.428c1.267-1.756,2.591-3.472,3.937-5.162,1.478-1.856,3.023-3.658,4.593-5.432,1.545-1.74,3.139-3.422,4.726-5.12,3.185-3.413,6.565-6.653,10.029-9.792,1.163-1.055,2.351-2.089,3.55-3.106.6-.511,1.213-1.018,1.827-1.512.432-.345.885-.681,1.283-1.063l-.021-.017c-.224.2-.469.382-.7.565-.345.258-.689.519-1.03.781-.752.557-1.495,1.13-2.234,1.7q-2.716,2.105-5.369,4.286c-1.753,1.445-3.48,2.923-5.166,4.452l.1-.087c-.905.818-1.81,1.636-2.7,2.475-1.682,1.578-3.314,3.214-4.871,4.913-.839.922-1.653,1.86-2.467,2.795-.748.851-1.466,1.727-2.164,2.62-1.474,1.869-2.9,3.779-4.294,5.7-1.358,1.865-2.712,3.729-3.941,5.677l.017-.033c-.947,1.478-1.873,2.977-2.782,4.481-.876,1.449-1.723,2.919-2.525,4.414-1.071,2.018-2.1,4.057-2.99,6.158-.448,1.038-.88,2.093-1.287,3.148-.416,1.08-.826,2.155-1.175,3.256-.7,2.2-1.325,4.423-1.827,6.682-.507,2.3-.947,4.626-1.308,6.956A92.7,92.7,0,0,0,332.659,286a61.006,61.006,0,0,0,.374,6.91,62.02,62.02,0,0,0,1.2,6.877l-.025-.091c.025.1.05.2.075.3h0l.008.025.012.058v-.008c.382,1.678.843,3.322,1.329,4.967.523,1.765,1.051,3.53,1.615,5.274l.009.008.012-.012c-.42-1.57-.8-3.139-1.163-4.722C335.6,303.339,335.163,301.085,334.848,298.8Z" transform="translate(-310.118 -74.803)" fill="#72c484"/>
      <path id="Path_927" data-name="Path 927" d="M345.009,283.475c-.748-1.458-1.429-2.944-2.056-4.46-.652-1.582-1.242-3.189-1.785-4.8-.366-1.076-.69-2.163-1.013-3.252-.307-1.038-.61-2.08-.893-3.123-.565-2.056-1.092-4.111-1.574-6.187-.008-.05-.021-.1-.029-.141l.008.042c-.432-1.927-.843-3.858-1.192-5.8-.34-1.91-.623-3.833-.835-5.764-.237-2.172-.4-4.36-.453-6.54-.054-2.247-.016-4.493.063-6.74l0,.042c.116-2.969.32-5.942.727-8.887.307-2.242.752-4.464,1.275-6.665.486-2.043,1.013-4.086,1.624-6.1v0a.639.639,0,0,1,.029-.1h0a1.523,1.523,0,0,1,.1-.27c0-.021-.025-.029-.029-.013a4.536,4.536,0,0,0-.17.469c-.1.291-.2.586-.295.876-.2.6-.386,1.192-.573,1.79l.008-.021c-.037.137-.083.27-.129.4l.008-.017c-.042.129-.087.262-.124.394l.008-.008a1.309,1.309,0,0,0-.058.166h0l-.071.2v0c-.029.121-.066.237-.108.357v0c-.112.374-.224.752-.34,1.121l.008-.025c-.718,2.292-1.358,4.618-1.864,6.964q-.71,3.3-1.142,6.657c-.295,2.28-.511,4.572-.586,6.873v-.046c0,.208-.017.423-.025.639.008-.075.008-.145.012-.216-.07,1.831-.033,3.659.054,5.494.05,1.1.121,2.2.241,3.3s.233,2.172.415,3.247.361,2.155.577,3.218c.249,1.233.515,2.454.793,3.671l.021.091v.017c.365,1.6.748,3.193,1.2,4.759.316,1.092.652,2.176,1,3.26.336,1.03.669,2.056,1.03,3.077a66.227,66.227,0,0,0,2.662,6.366,57.65,57.65,0,0,0,3.16,5.884q1.869,2.952,3.858,5.818l0,0,.012-.012c-1.246-1.985-2.487-3.978-3.575-6.055Z" transform="translate(-307.473 -31.165)" fill="#72c484"/>
      <path id="Path_928" data-name="Path 928" d="M383.3,216.541h0v0Z" transform="translate(-150.466 -25.419)" fill="#72c484"/>
      <path id="Path_929" data-name="Path 929" d="M387.233,239.243l.008,0-.058-.033Z" transform="translate(-138.223 46.06)" fill="#72c484"/>
      <path id="Path_930" data-name="Path 930" d="M414.535,207.745c.93-.669,1.869-1.325,2.824-1.96s1.923-1.221,2.89-1.819q2.915-1.8,5.855-3.559c.021-.008.008-.033-.012-.025-1.811.939-3.609,1.9-5.407,2.853s-3.613,1.89-5.365,2.94c-1.939,1.167-3.85,2.4-5.7,3.717-1.84,1.3-3.621,2.67-5.357,4.09q-1.439,1.184-2.836,2.409c-.839.739-1.64,1.512-2.45,2.284s-1.582,1.57-2.354,2.371-1.512,1.616-2.23,2.45c-1.445,1.686-2.807,3.442-4.111,5.236-1.316,1.823-2.575,3.692-3.808,5.573-1.241,1.9-2.491,3.8-3.579,5.793-.515.955-1,1.927-1.433,2.923q-.536,1.221-.984,2.487l.017.012.008-.008a33.676,33.676,0,0,1,1.889-4.011c.806-1.454,1.74-2.845,2.687-4.215v0c.469-.652.93-1.3,1.4-1.939,1.333-1.794,2.72-3.538,4.119-5.274s2.836-3.4,4.315-5.045c.743-.831,1.5-1.645,2.276-2.45.756-.789,1.524-1.574,2.3-2.338.81-.785,1.611-1.561,2.45-2.3s1.715-1.495,2.57-2.234c.224-.191.444-.378.669-.565l-.025.012.062-.05.021-.008h-.008l.029-.025v0l0-.008.017-.013-.008.008c.216-.183.424-.357.644-.544v0c1.354-1.121,2.695-2.251,4.078-3.339Q412.226,209.414,414.535,207.745Z" transform="translate(-159.359 -76.368)" fill="#72c484"/>
      <path id="Path_931" data-name="Path 931" d="M382.849,228.131l.013-.025v0l0,0a10.85,10.85,0,0,1,.718-.913c.345-.411.7-.818,1.071-1.213.706-.756,1.445-1.474,2.188-2.188,1.607-1.528,3.239-3.023,4.925-4.46l-.058.054c.905-.772,1.831-1.524,2.757-2.272.909-.735,1.823-1.466,2.749-2.18,1.79-1.387,3.613-2.728,5.486-4.02,1.894-1.312,3.8-2.612,5.731-3.883,1.9-1.254,3.816-2.463,5.743-3.671q2.946-1.85,5.893-3.7c.008-.012,0-.029-.021-.021q-3.146,1.588-6.262,3.227c-2.068,1.076-4.14,2.134-6.154,3.3a63.192,63.192,0,0,0-5.677,3.684c-.905.656-1.8,1.316-2.67,2.006q-1.4,1.115-2.757,2.3c-1.728,1.516-3.413,3.069-5.087,4.643-1.644,1.553-3.222,3.177-4.784,4.821-.76.8-1.508,1.6-2.222,2.433-.353.4-.69.818-1.017,1.246-.2.266-.419.536-.594.818l.008.017Z" transform="translate(-151.966 -78.698)" fill="#72c484"/>
      <path id="Path_932" data-name="Path 932" d="M423.509,200.54c-2.234.262-4.456.573-6.665.968a60.065,60.065,0,0,0-6.516,1.478,54.444,54.444,0,0,0-6.4,2.28,47.139,47.139,0,0,0-6.026,3.1c-1.927,1.192-3.808,2.467-5.672,3.766A51.665,51.665,0,0,0,387.194,216h0l-.013.008v.025h0l.037-.025c.071-.062.145-.12.208-.179l0,0a36.747,36.747,0,0,1,5-3.4c1.744-1.017,3.509-2.022,5.328-2.9l-.042.025c1.263-.61,2.537-1.183,3.837-1.7,1.038-.424,2.08-.835,3.135-1.221,1.009-.37,2.018-.727,3.04-1.08,2.126-.731,4.252-1.437,6.416-2.039,2.135-.59,4.286-1.134,6.437-1.678,2.226-.561,4.439-1.15,6.665-1.7l0-.025C426.005,200.249,424.755,200.39,423.509,200.54Z" transform="translate(-138.214 -77.228)" fill="#72c484"/>
      <path id="Path_933" data-name="Path 933" d="M421.081,224.6l0,.008v.011Z" transform="translate(-31.368 0)" fill="#72c484"/>
      <path id="Path_934" data-name="Path 934" d="M428.381,238.261c-.116-1.084-.27-2.172-.432-3.252-.158-1.03-.32-2.064-.523-3.09q-.3-1.514-.681-3.011c-.569-2.267-1.312-4.481-2.064-6.686v.012c-.017-.054-.038-.112-.054-.17l0-.021v.008L424.6,222l0-.017,0,.008,0-.017c-.041-.129-.087-.257-.133-.382v0l0,0c-.046-.141-.1-.286-.15-.44-.349-.988-.714-1.977-1.125-2.948-.382-.905-.793-1.8-1.221-2.687-.453-.926-.914-1.844-1.391-2.757-.228-.444-.457-.893-.706-1.325-.162-.27-.336-.536-.507-.8v0c-.025-.025-.042-.075-.062-.1l-.025.021.008.008,0,0c.046.071.087.145.137.216v0a10.745,10.745,0,0,1,.747,1.416q.43.928.818,1.881c.511,1.262.98,2.537,1.42,3.829.631,1.923,1.134,3.883,1.6,5.851.241,1.022.478,2.047.69,3.077.2,1,.415,2,.61,3,.39,2.08.714,4.173.955,6.275s.494,4.232.656,6.349c.008.079.013.158.017.233v-.021l0,.046v.062l0,.029h0c.1,1.59.154,3.181.128,4.78-.029,1.694-.112,3.393-.2,5.083-.237,4.335-.735,8.646-1.32,12.94-.287,2.093-.585,4.186-.93,6.275-.345,2.126-.7,4.244-1.109,6.362v-.012l0,.021,0,0,0,.021-.013.054,0,.012v.008l0,.008v.025l0,0-.013.079.017-.108,0-.021-.025.129c-.428,2.134-.914,4.257-1.549,6.341-.332,1.092-.669,2.18-1.042,3.26-.386,1.117-.8,2.226-1.2,3.339l.012.021.013-.013c1.287-2.9,2.6-5.805,3.637-8.808.719-2.068,1.292-4.173,1.823-6.3q.779-3.1,1.4-6.229l-.013.046.017-.079a1.323,1.323,0,0,0,.029-.137l0,.029c.033-.158.066-.32.1-.478.025-.116.05-.233.075-.357l-.013.042.025-.112.008-.046,0-.021,0-.021,0,0v0l.008-.042-.008.037v0c.266-1.345.527-2.7.743-4.049.2-1.275.395-2.554.581-3.833.3-2.1.474-4.207.607-6.324.075-1.146.146-2.3.183-3.447.029-1.071.046-2.135.054-3.206.021-2.213-.083-4.431-.266-6.644C428.584,240.362,428.5,239.308,428.381,238.261ZM424.6,221.987h0v0Z" transform="translate(-37.052 -44.346)" fill="#72c484"/>
      <path id="Path_935" data-name="Path 935" d="M437.79,239.315c.237-1.08.465-2.151.636-3.239.311-1.956.54-3.924.735-5.9.1-1,.2-2,.295-3,.1-.934.2-1.869.378-2.795.05-.224.1-.453.174-.673l-.025-.008a16.3,16.3,0,0,0-.528,2.255c-.191.972-.361,1.948-.552,2.919l.012-.05c-.017.075-.029.15-.041.224v0q-.386,1.919-.851,3.812c-.345,1.4-.752,2.795-1.15,4.182-.295,1.034-.6,2.064-.93,3.081-.337,1.042-.7,2.076-1.084,3.11a60.963,60.963,0,0,1-2.566,5.967c-.158.311-.316.615-.474.926a60.587,60.587,0,0,1-3.376,5.677c-1.271,1.9-2.6,3.754-3.961,5.589-1.321,1.786-2.666,3.563-4.032,5.315-.7.9-1.4,1.8-2.126,2.683-.7.851-1.42,1.69-2.155,2.516-.648.718-1.3,1.412-1.964,2.109l.008.025.008,0q2.118-1.931,4.19-3.933c1.6-1.545,3.123-3.185,4.593-4.863,1.487-1.7,2.957-3.426,4.381-5.187s2.824-3.542,4.065-5.428c.61-.922,1.2-1.856,1.728-2.824.586-1.067,1.125-2.159,1.632-3.272a43.2,43.2,0,0,0,2.222-6.175C437.313,241.354,437.566,240.337,437.79,239.315Z" transform="translate(-53.039 -2.847)" fill="#72c484"/>
      <path id="Path_936" data-name="Path 936" d="M393.544,195.083h0Z" transform="translate(-118.168 -93.071)" fill="#72c484"/>
      <path id="Path_937" data-name="Path 937" d="M400.577,194.624l.017,0-.023,0Z" transform="translate(-96.014 -94.528)" fill="#72c484"/>
      <path id="Path_938" data-name="Path 938" d="M419.908,191.366c-2.317-.075-4.634-.058-6.956-.012-2.288.037-4.584.145-6.868.353-2.313.208-4.622.428-6.922.76-2.355.345-4.7.768-7.035,1.254-2.28.473-4.547,1.022-6.8,1.611-2.234.585-4.456,1.233-6.661,1.919s-4.389,1.42-6.561,2.213c-2.23.818-4.448,1.661-6.64,2.575-2.1.868-4.165,1.823-6.179,2.853l.017-.017c-1.74.889-3.455,1.806-5.149,2.782-1.57.9-3.11,1.865-4.626,2.845-1.927,1.25-3.8,2.562-5.681,3.879-1.939,1.362-3.9,2.707-5.83,4.078l.008.021h0c1.507-.939,3.015-1.873,4.535-2.791q3.009-1.819,6.059-3.559c.98-.565,1.964-1.121,2.965-1.649s2.026-1.063,3.04-1.586c3.634-1.815,7.346-3.476,11.087-5.041a129.309,129.309,0,0,1,13.06-4.622c2.279-.685,4.576-1.32,6.881-1.923,2.122-.556,4.244-1.055,6.379-1.52,1.947-.395,3.9-.764,5.859-1.076,1.989-.32,3.978-.59,5.971-.822q6.864-.8,13.778-.972c2.313-.05,4.63-.071,6.943-.037,2.272.037,4.543.145,6.81.282h-.017c.465.033.926.062,1.4.092,2.251.154,4.5.361,6.74.635q1.688.205,3.363.486c.527.087,1.051.187,1.574.291.307.062.61.145.922.179.02,0,.025-.025.008-.029a7.219,7.219,0,0,1-.735-.158c-.461-.112-.926-.216-1.387-.32-.959-.2-1.923-.407-2.894-.581-2.209-.4-4.435-.752-6.657-1.08-2.3-.336-4.609-.631-6.927-.864C424.5,191.59,422.2,191.432,419.908,191.366Z" transform="translate(-293.236 -104.95)" fill="#72c484"/>
      <path id="Path_939" data-name="Path 939" d="M368.719,195.993c-2.163.619-4.319,1.3-6.445,2.056q-1.657.592-3.309,1.221c-1.08.415-2.151.855-3.223,1.287-2.043.835-4.07,1.74-6.038,2.737-.129.062-.245.125-.361.183l.062-.033q-2.112,1.071-4.177,2.222-2.143,1.171-4.252,2.4l.008.029.008,0c.777-.4,1.549-.81,2.33-1.208l0,0c.345-.166.694-.341,1.038-.519q3.009-1.5,6.117-2.774c2.114-.872,4.273-1.649,6.445-2.4,4.252-1.47,8.567-2.795,12.911-4.011,4.36-1.221,8.741-2.363,13.172-3.3l-.046.012c1.686-.349,3.385-.669,5.079-.955,1.64-.274,3.289-.527,4.933-.735,2.246-.282,4.5-.565,6.756-.723,1.113-.083,2.23-.158,3.343-.2,1.2-.046,2.392-.083,3.588-.1,2.238-.037,4.476-.079,6.711-.149,1.129-.037,2.259-.083,3.384-.125.885-.029,1.765-.075,2.645-.083v-.025c-1.1-.012-2.2,0-3.306,0-2.276,0-4.559-.033-6.839-.125-2.226-.087-4.456-.2-6.69-.2-2.321,0-4.647.091-6.964.274-2.259.187-4.506.453-6.748.781-4.535.66-9.028,1.62-13.48,2.724C373.15,194.793,370.928,195.37,368.719,195.993Z" transform="translate(-283.901 -107.626)" fill="#72c484"/>
      <path id="Path_940" data-name="Path 940" d="M335.554,221.47q2.417-2.068,4.913-4.036c1.811-1.428,3.65-2.807,5.535-4.14s3.808-2.608,5.747-3.858c1.885-1.2,3.808-2.367,5.747-3.488.955-.552,1.922-1.1,2.894-1.628s1.947-1.034,2.927-1.541c1.163-.569,2.317-1.146,3.492-1.686,1.258-.577,2.513-1.138,3.779-1.686,2.047-.9,4.119-1.752,6.192-2.6,2.114-.86,4.236-1.682,6.387-2.438q3.2-1.134,6.466-2.043c1.113-.311,2.242-.615,3.372-.9,1.1-.27,2.192-.519,3.3-.752l0,0c.477-.1.959-.2,1.445-.291a5.574,5.574,0,0,1,.909-.124c.021,0,.013-.029,0-.029a9.056,9.056,0,0,0-1.292.158c-.586.1-1.171.2-1.752.311-2.23.424-4.447.905-6.653,1.429s-4.406,1.1-6.574,1.781c-2.2.689-4.385,1.412-6.54,2.209-2.176.8-4.348,1.628-6.495,2.487-2.126.86-4.211,1.8-6.266,2.8-.984.478-1.96.98-2.923,1.491-1.013.54-2.018,1.08-3.011,1.649-1.013.581-2.014,1.171-3,1.79-.959.6-1.927,1.208-2.857,1.852s-1.868,1.3-2.782,1.977c-.889.656-1.777,1.325-2.645,2.01-1.819,1.437-3.592,2.928-5.295,4.5s-3.393,3.148-5.033,4.776l.008.025Z" transform="translate(-301.045 -108.344)" fill="#72c484"/>
      <path id="Path_941" data-name="Path 941" d="M406.411,304.313c-3.721-1.561-7.4-3.231-11.009-5.041-2.06-1.038-4.115-2.085-6.142-3.185-1.072-.585-2.143-1.171-3.21-1.765-1.013-.569-2.014-1.163-3.019-1.748-.909-.531-1.811-1.1-2.7-1.669-.984-.635-1.968-1.275-2.94-1.939-1.923-1.308-3.8-2.679-5.664-4.07q-1.769-1.377-3.5-2.782c-1.142-.93-2.255-1.894-3.372-2.857-3.451-2.99-6.773-6.133-9.979-9.385a126.12,126.12,0,0,1-8.978-10.1c-.511-.656-1.017-1.308-1.5-1.977a117.579,117.579,0,0,1-7.367-11.544c-2.238-4-4.306-8.081-6.138-12.284l-.05-.116.013.037c-.042-.1-.083-.2-.121-.295h0c-.415-.988-.81-1.985-1.167-3-.262-.743-.482-1.5-.7-2.259l-.025,0c.178.623.324,1.258.507,1.881.249.847.511,1.7.793,2.537.6,1.728,1.212,3.451,1.881,5.154q1.277,3.226,2.724,6.387c.934,2.026,1.91,4.036,2.961,6,.565,1.063,1.154,2.105,1.744,3.16.577,1.017,1.2,2.006,1.835,2.994.594.939,1.221,1.86,1.86,2.77.656.939,1.321,1.877,2.031,2.778a113.87,113.87,0,0,0,7.516,8.791c3.131,3.322,6.449,6.478,9.892,9.481,1.724,1.5,3.459,2.982,5.261,4.381,1.927,1.495,3.891,2.949,5.889,4.335a107.313,107.313,0,0,0,11.806,7.23c2.026,1.051,4.1,2.027,6.188,2.953,2.172.963,4.377,1.869,6.6,2.72,2.08.793,4.19,1.512,6.3,2.238,2.226.764,4.46,1.491,6.723,2.151h0v-.021c-1.674-.631-3.331-1.287-4.983-1.968Z" transform="translate(-322.158 11.753)" fill="#72c484"/>
      <path id="Path_942" data-name="Path 942" d="M371.753,278.521c-.939-.652-1.877-1.3-2.8-1.977-.482-.353-.968-.7-1.449-1.059-.436-.324-.868-.656-1.3-.976-.2-.149-.395-.3-.59-.448h0c-.07-.046-.133-.1-.2-.145l-.05-.038h0l-.008,0h0l-.1-.083,0,0c-2.753-2.105-5.481-4.265-8.06-6.59-1.661-1.5-3.251-3.077-4.809-4.688-1.594-1.649-3.16-3.318-4.676-5.033q-2.311-2.616-4.551-5.27c-1.42-1.661-2.778-3.376-4.14-5.091l-.025-.025-.012-.017,0,0-.05-.058.008.008-.021-.025.021.021c-.174-.22-.345-.436-.519-.665l-.008,0-.017-.021.008,0-.025-.033h0l-.017-.021,0-.008c-.548-.706-1.092-1.412-1.636-2.13-1.337-1.748-2.637-3.526-3.9-5.315-.639-.918-1.279-1.831-1.881-2.761-.311-.469-.615-.943-.9-1.429a8.866,8.866,0,0,1-.611-1.117v0l-.037-.1a.015.015,0,0,0-.029.008,5.915,5.915,0,0,0,.4.851c.245.465.5.934.756,1.391.527.938,1.071,1.869,1.619,2.795,1.067,1.8,2.167,3.6,3.3,5.365,2.454,3.829,4.946,7.641,7.753,11.221l.021.025.033.05v0l.013.021h.008l0,.008.008.012.042.046-.025-.021c1.74,2.213,3.546,4.373,5.453,6.449,1.557,1.69,3.143,3.359,4.78,4.983a66.662,66.662,0,0,0,5.12,4.556c1.815,1.453,3.692,2.836,5.614,4.144s3.887,2.55,5.893,3.725c1.964,1.146,3.974,2.213,5.992,3.264q3.12,1.626,6.279,3.2l0,0,.008-.033c-1.707-1.051-3.393-2.13-5.075-3.218C375.477,281.046,373.6,279.8,371.753,278.521Z" transform="translate(-320.501 27.795)" fill="#72c484"/>
      <path id="Path_943" data-name="Path 943" d="M328.982,234.6v0l-.008-.008Z" transform="translate(-321.737 31.479)" fill="#72c484"/>
      <path id="Path_944" data-name="Path 944" d="M333.584,241.36l.012.019.007.008Z" transform="translate(-307.204 52.824)" fill="#72c484"/>
      <path id="Path_945" data-name="Path 945" d="M358.675,284.977c-.531-.544-1.059-1.1-1.565-1.674-1.072-1.192-2.1-2.425-3.09-3.688l.025.037c-.046-.062-.1-.12-.137-.178v0l-.062-.083-.029-.037-.008-.008-.021-.029,0,.013-.137-.183h0l0,0-.033-.033-.017-.021-.05-.071-.013-.012,0-.008v0l-.121-.154.062.079c-1.35-1.732-2.633-3.5-3.908-5.29s-2.5-3.575-3.7-5.4A113.642,113.642,0,0,1,339,256.474c-1.03-2.06-2.047-4.136-3.006-6.233q-.747-1.632-1.47-3.268c-.444-1.017-.876-2.039-1.312-3.056l.008.012-.017-.037v0l-.029-.054v-.008c-.158-.382-.32-.756-.478-1.134.021.05.046.1.067.158-.021-.046-.042-.091-.062-.141l.008.012a.39.39,0,0,0-.033-.075l0-.017-.025-.058c-.561-1.362-1.134-2.732-1.707-4.09l-.008-.029-.025-.058c-.133-.324-.27-.644-.4-.972l.038.1c-.121-.287-.237-.577-.357-.868v0c-1-2.421-1.985-4.838-2.928-7.271h-.021c.7,2.542,1.454,5.062,2.238,7.579.677,2.2,1.379,4.389,2.135,6.561s1.557,4.34,2.454,6.466c.121.291.241.577.366.868l0-.013.012.046,0,.008,0,.008v.008l.008.008v0l.017.029h0l0,.008v0l.008.021,0,.008,0,.008h0l.029.05c.021.066.05.129.071.191v-.012l.012.029-.012-.017.041.083c.461,1.109.955,2.209,1.478,3.293.993,2.085,2.039,4.14,3.185,6.142,1.2,2.089,2.458,4.136,3.787,6.146a101.732,101.732,0,0,0,8.376,10.888c1.482,1.694,2.994,3.364,4.593,4.933.806.781,1.624,1.549,2.45,2.3.416.37.831.748,1.263,1.1a4.312,4.312,0,0,0,.806.59l0,0,.008-.025a1.89,1.89,0,0,1-.241-.166A15.816,15.816,0,0,1,358.675,284.977Z" transform="translate(-327.231 15.088)" fill="#72c484"/>
      <path id="Path_946" data-name="Path 946" d="M415.14,267.9l.012.012.017,0c.411-1.125.806-2.247,1.2-3.376.722-2.118,1.437-4.244,2.064-6.4.336-1.15.656-2.3.955-3.463.257-1.022.515-2.06.727-3.1v0l0-.017v-.017a.588.588,0,0,0,.021-.1v-.008l0-.017V251.4l0,0h0c.187-.856.353-1.715.5-2.583a57.384,57.384,0,0,0,.781-6.786c.062-1.1.091-2.209.091-3.305,0-1.171-.008-2.346-.075-3.509v.054c-.083-1.9-.245-3.8-.473-5.689-.283-2.263-.606-4.518-1.055-6.765-.228-1.117-.486-2.242-.8-3.343a13.355,13.355,0,0,0-1.005-2.521c0-.021-.025,0-.021.012a12.881,12.881,0,0,1,.569,1.453,28.776,28.776,0,0,1,.88,4.751c.191,1.532.291,3.073.39,4.614v-.046l0,.091,0-.046,0,.054c.058,1.682.141,3.359.141,5.046,0,1.167-.008,2.334-.041,3.5-.033,1.117-.1,2.238-.162,3.355-.141,2.242-.353,4.481-.631,6.7-.141,1.155-.3,2.3-.473,3.447-.17,1.129-.365,2.259-.552,3.393-.17,1.08-.37,2.155-.569,3.235-.208,1.1-.415,2.2-.631,3.293-.274,1.358-.556,2.712-.872,4.061S415.489,266.56,415.14,267.9Z" transform="translate(-50.085 -24.154)" fill="#72c484"/>
      <path id="Path_947" data-name="Path 947" d="M413.928,261.425c.852-2.08,1.7-4.157,2.492-6.258.81-2.151,1.578-4.319,2.238-6.524a45.741,45.741,0,0,0,1.462-6.59,57.721,57.721,0,0,0,.59-6.827c.062-2.271.016-4.539-.125-6.806a1.249,1.249,0,0,0,.013.125c-.042-.793-.125-1.578-.2-2.367-.079-.739-.158-1.483-.278-2.222-.129-.789-.27-1.57-.457-2.342a10.053,10.053,0,0,1-.365-1.545c-.008-.021-.029-.025-.029,0a2.146,2.146,0,0,0,.054.394c.05.295.108.59.158.88a17.611,17.611,0,0,1,.237,2.035v-.008a48.018,48.018,0,0,1-.187,6.134c-.1,1.092-.212,2.176-.336,3.264-.112.968-.253,1.931-.374,2.9-.274,2.217-.623,4.427-.943,6.636s-.685,4.427-1.1,6.628c.02-.066.029-.145.046-.212-.062.3-.116.61-.174.918v-.008l0,.025,0,.008h0l-.008.021-.008.038,0,0-.008.029-.008.042,0,.042v0c-.05.237-.1.473-.145.71q-1.1,5.475-2.562,10.884l.012.017Z" transform="translate(-53.985 -14.352)" fill="#72c484"/>
      <path id="Path_948" data-name="Path 948" d="M433.267,209.292c-1.877-1.391-3.8-2.724-5.8-3.949-1.952-1.2-3.991-2.255-6.046-3.268-1.964-.959-3.933-1.91-5.918-2.824-1.009-.478-2.035-.934-3.069-1.362-1-.415-2-.831-2.973-1.308h0c-.44-.224-.889-.448-1.333-.66h0l-.162-.083h.008c-.208-.1-.415-.208-.627-.295a.763.763,0,0,0-.253-.087v.033h.029a.934.934,0,0,1,.212.083c.859.428,1.673.943,2.5,1.433.926.548,1.885,1.051,2.824,1.582,1.836,1.038,3.58,2.23,5.365,3.355,1.91,1.2,3.816,2.4,5.656,3.721s3.621,2.724,5.378,4.161c1.79,1.453,3.555,2.948,5.328,4.422,1.653,1.366,3.289,2.737,4.9,4.14l.046.037,0,0v0l.1.087-.009-.013.054.046.137.125,0,0c.648.577,1.3,1.163,1.948,1.74l-.008-.008.046.042-.017-.017.042.037-.012-.012c.544.482,1.08.963,1.628,1.449.2.166.386.34.577.507h0l.033.029a.943.943,0,0,1,.1.083l.079.071-.033-.033.046.033.013.021c.079.066.154.133.228.2.266.233.544.473.806.71l-.008-.012c.046.046.1.087.145.133l-.033-.033c.191.17.39.349.59.515l.037.037c.81.706,1.624,1.42,2.429,2.126q2.1,1.85,4.211,3.671l.88.768-.008-.008c.191.17.382.336.577.507.054.05.112.1.166.145,1.516,1.371,3.048,2.745,4.551,4.136q2.361,2.186,4.659,4.447h0l.016-.017c-.39-.523-.776-1.042-1.171-1.561-2.757-3.625-5.481-7.284-8.5-10.706-1.5-1.715-3.081-3.359-4.7-4.967-1.561-1.557-3.143-3.1-4.784-4.576-1.819-1.636-3.7-3.193-5.606-4.726C436.809,212.007,435.061,210.62,433.267,209.292Z" transform="translate(-75.429 -91.897)" fill="#72c484"/>
      <path id="Path_949" data-name="Path 949" d="M434.9,251.1c-4.581-.357-9.165-.652-13.733-1.146-2.367-.253-4.734-.519-7.088-.847-2.338-.324-4.668-.677-6.993-1.042-2.2-.345-4.4-.727-6.578-1.2-1.084-.228-2.164-.457-3.243-.714-1.151-.274-2.293-.569-3.439-.864.046.008.083.021.129.033-1.94-.548-3.883-1.13-5.764-1.869-.947-.374-1.885-.76-2.8-1.18-.407-.182-.814-.374-1.2-.577-.291-.15-.569-.324-.868-.449-.017-.008-.029.017-.008.029a2.107,2.107,0,0,1,.27.145h0c.316.187.627.378.943.561l-.013-.008a65.2,65.2,0,0,0,12.466,5.535c1.026.345,2.055.673,3.094.972,1.113.316,2.238.644,3.364.922,2.238.548,4.485,1.071,6.752,1.483,4.655.855,9.344,1.52,14.044,2.056,4.539.523,9.1.789,13.666.864.644.017,1.283.025,1.931.025q2.984,0,5.964-.191c2.226-.145,4.439-.345,6.656-.531,2.33-.2,4.651-.407,6.968-.669l0-.033q-5.531-.143-11.042-.407C443.881,251.782,439.384,251.45,434.9,251.1Z" transform="translate(-150.48 52.477)" fill="#72c484"/>
      <path id="Path_950" data-name="Path 950" d="M396.75,244.282l-.278-.008h-.037C396.542,244.278,396.65,244.278,396.75,244.282Z" transform="translate(-109.058 62.012)" fill="#72c484"/>
      <path id="Path_951" data-name="Path 951" d="M396.247,170.807a12.577,12.577,0,0,1,.332,2.429c.075.876.108,1.761.137,2.637v.05l0,.017v-.012c0,.046,0,.1,0,.141l0,0c.067,2.151.091,4.306.158,6.47l0-.012c.012.295.016.594.025.893l0-.008,0,.087v.017l0,.029v.066a.309.309,0,0,0,.008.087l-.008-.033.008.037v.008l.025.984v.021c.008.382.016.772.033,1.15v.013l0,.079v0c.008.419.017.851.029,1.271v-.008l0,.071.025.668-.008-.154c.008.162.012.328.012.49v-.054l0,.066,0-.012,0,.062v.008l0-.037c0,.046,0,.1,0,.141v0c.037,1.184.083,2.359.125,3.538.041,1.059.071,2.122.12,3.177.017.469.033.934.054,1.4.025.963.062,1.919.1,2.882v-.042l0,.1v.042l0,.075V199.6q.025.735.062,1.47c.037,1.208.108,2.425.162,3.638q.087,1.968.187,3.945c.112,2.267.22,4.543.353,6.819.091,1.777.183,3.555.295,5.332.718-.062,1.437-.12,2.159-.166q-.112-1.495-.216-2.99c-.166-2.342-.361-4.68-.536-7.022-.332-4.618-.606-9.244-.943-13.862-.328-4.514-.776-9.02-1.221-13.529-.224-2.259-.423-4.522-.669-6.785-.116-1.134-.237-2.263-.395-3.4a11.886,11.886,0,0,0-.507-2.525c-.008-.017-.033,0-.029.017a2.642,2.642,0,0,1,.091.274Z" transform="translate(-109.938 -170.517)" fill="#72c484"/>
      <path id="Path_952" data-name="Path 952" d="M402.933,204.659l.079.008c.623-1.3,1.242-2.6,1.835-3.9q1.42-3.146,2.666-6.362c.8-2.105,1.561-4.227,2.3-6.354.4-1.146.806-2.288,1.2-3.434.365-1.063.71-2.126,1.067-3.193.66-1.985,1.212-4.007,1.893-5.984l-.021-.008c-.594,1.4-1.138,2.811-1.707,4.215q-.947,2.361-1.952,4.692c-1.844,4.252-3.746,8.471-5.673,12.686-1.142,2.492-2.292,4.971-3.476,7.437.287.012.565.029.847.066C402.306,204.567,402.621,204.613,402.933,204.659Z" transform="translate(-94.212 -155.035)" fill="#72c484"/>
      <path id="Path_953" data-name="Path 953" d="M404.184,199.878a8.028,8.028,0,0,1,1.337.585c.166.087.328.179.49.266.444-.5.876-1,1.312-1.508,2.981-3.459,5.806-7.051,8.583-10.68,1.4-1.823,2.749-3.671,4.115-5.515.66-.9,1.3-1.819,1.952-2.724.324-.457.648-.9.98-1.354.146-.2.291-.4.436-.606.083-.112.17-.224.245-.349l-.025-.012c-.112.129-.208.27-.311.4l-.519.631c-.357.423-.714.843-1.072,1.262q-1.177,1.383-2.367,2.741c-3.065,3.476-6.171,6.9-9.273,10.34q-2.947,3.258-5.9,6.511Z" transform="translate(-84.663 -146.986)" fill="#72c484"/>
      <path id="Path_954" data-name="Path 954" d="M407.381,197.47c.395.361.781.723,1.167,1.088q3.382-1.794,6.757-3.6,6.247-3.364,12.437-6.852,2.977-1.682,5.963-3.355,1.495-.828,3.007-1.644c.486-.262.968-.523,1.453-.781.419-.216.855-.411,1.275-.639l-.013-.017c-.407.191-.83.357-1.238.548-.482.22-.959.444-1.432.664-.93.44-1.852.88-2.774,1.329-1.985.963-3.978,1.927-5.963,2.89q-6.3,3.071-12.549,6.271-3.114,1.595-6.237,3.177C408.614,196.855,408,197.163,407.381,197.47Z" transform="translate(-74.546 -135.372)" fill="#72c484"/>
      <path id="Path_955" data-name="Path 955" d="M420.209,190.3c1.167-.253,2.33-.5,3.5-.714.557-.1,1.117-.2,1.682-.3a9.661,9.661,0,0,0,1.026-.191l0-.029a12.72,12.72,0,0,1-1.541.166c-.694.058-1.391.116-2.089.183-1.495.125-2.982.311-4.477.482-2.2.253-4.4.544-6.6.839q-1.314.174-2.629.357c-.419.573-.851,1.15-1.279,1.723,1.84-.336,3.68-.7,5.51-1.063Q416.767,191.045,420.209,190.3Z" transform="translate(-73.21 -112.052)" fill="#72c484"/>
      <path id="Path_956" data-name="Path 956" d="M417.19,193.893c.552-.012,1.109-.029,1.665-.054,1.5-.025,2.994-.071,4.493-.017.81.037,1.611.079,2.413.166a18.924,18.924,0,0,1,2.192.382v-.008a10.723,10.723,0,0,1,1.213.415c.158.079.316.15.469.233a1.408,1.408,0,0,0,.162.075h0a.013.013,0,0,0,0-.025l-.083-.041,0,0a11.092,11.092,0,0,0-1.719-.864c-.39-.141-.776-.282-1.179-.39-.432-.12-.872-.228-1.308-.336H425.5l-.05-.016a34.01,34.01,0,0,0-4.722-.669c-1.549-.133-3.1-.183-4.651-.22-2.209-.05-4.418-.042-6.628-.062-.83-.008-1.661-.017-2.492-.033-.253.39-.507.768-.76,1.15-.166.253-.336.5-.5.756.585-.012,1.171-.029,1.756-.046H407.4c3.272-.1,6.545-.245,9.813-.4Z" transform="translate(-79.846 -101.43)" fill="#72c484"/>
      <path id="Path_957" data-name="Path 957" d="M400.951,193.794c-1.557.556-3.119,1.113-4.672,1.657q-3.339,1.152-6.7,2.263-1.595.529-3.181,1.071c-.494.17-.988.34-1.487.5-.2.071-.407.137-.6.212-.025.012-.121.029-.121.066l.021.012.008,0a1.508,1.508,0,0,1,.315-.112v0c1.317-.382,2.649-.723,3.974-1.063,2.238-.573,4.485-1.121,6.719-1.728q3.239-.872,6.449-1.831h0l.029-.008C401.449,194.487,401.2,194.139,400.951,193.794Z" transform="translate(-147.669 -97.133)" fill="#72c484"/>
      <path id="Path_958" data-name="Path 958" d="M381.592,192.546c.428.075.864.108,1.291.145.868.066,1.732.1,2.6.137,1.889.066,3.783.141,5.677.212,4.564.183,9.119.511,13.691.669.972.037,1.948.062,2.919.079-.075-.1-.15-.2-.229-.3-.365-.5-.743-1-1.117-1.495-.847.008-1.69.033-2.533.05-4.63.108-9.256.208-13.878.361h.071c-.835.025-1.669.054-2.5.079h.008c-1.125.033-2.255.066-3.388.079a14.98,14.98,0,0,1-3.169-.17l0,0c-.07-.025-.145-.038-.211-.067l-.013-.012h-.008l0,.025c.037.058.208.079.266.091C381.239,192.48,381.418,192.513,381.592,192.546Z" transform="translate(-158.337 -102.808)" fill="#72c484"/>
      <path id="Path_959" data-name="Path 959" d="M381.909,185.055c.191.108.386.216.581.324l1.263.7h0c.054.029.1.062.158.087v0c.478.266.963.532,1.441.789l-.033-.012.112.058h0l.025.012.012,0h-.008c.245.129.486.266.735.4q2.136,1.2,4.273,2.413c1.366.785,2.737,1.574,4.119,2.33.278.158.561.311.839.465q1.956,1.084,3.936,2.134c.237-.295.482-.581.735-.872.112-.125.22-.257.332-.382-2.2-.984-4.41-1.96-6.6-2.961-2.059-.934-4.107-1.9-6.158-2.857q-1.514-.7-3.027-1.391c-.5-.233-1-.461-1.5-.7-.453-.212-.91-.419-1.35-.664v0a1.494,1.494,0,0,1-.137-.083l0-.025-.025-.008-.013.021c0,.021.025.029.042.042C381.735,184.947,381.826,185,381.909,185.055Z" transform="translate(-155.793 -125.432)" fill="#72c484"/>
      <path id="Path_960" data-name="Path 960" d="M387.627,183.119c1.192,1.034,2.4,2.056,3.621,3.052,1.827,1.5,3.675,2.982,5.486,4.5,1.761,1.474,3.492,2.994,5.145,4.589l-.162-.158c.133.125.266.253.394.378.382-.436.764-.88,1.142-1.312-.282-.241-.569-.477-.855-.718-.943-.76-1.906-1.5-2.878-2.234-.918-.689-1.86-1.345-2.8-2.006-.922-.652-1.865-1.275-2.8-1.906-.968-.652-1.918-1.308-2.865-1.977-.917-.648-1.827-1.3-2.72-1.977a29.842,29.842,0,0,1-2.579-2.114,6.463,6.463,0,0,1-.814-.964h0l-.021-.037-.025-.033-.021.017a6.468,6.468,0,0,0,1.084,1.358C386.5,182.114,387.058,182.621,387.627,183.119Z" transform="translate(-145.478 -139.978)" fill="#72c484"/>
      <path id="Path_961" data-name="Path 961" d="M392.918,182.005q2.467,6.5,4.85,13.018c.785,2.143,1.562,4.294,2.346,6.437.81,2.205,1.64,4.393,2.446,6.6.1.291.212.586.32.885.34-.079.681-.12,1.021-.17.258-.037.507-.071.764-.1-.349-.88-.706-1.753-1.067-2.629-.839-2.035-1.69-4.065-2.529-6.1q-2.672-6.472-5.436-12.9-2.7-6.21-5.49-12.362l-.025.008c.449,1.208.918,2.4,1.383,3.6C391.984,179.526,392.449,180.772,392.918,182.005Z" transform="translate(-128.967 -157.393)" fill="#72c484"/>
    </g>
    <text id="CuyInvitation" transform="translate(140 389.417)" fill="#72c484" font-size="58" font-family="SegoePrint, Segoe Print"><tspan x="0" y="0">CuyInvitation</tspan></text>
  </g>
</svg>
