<svg xmlns="http://www.w3.org/2000/svg" width="1179.299" height="182.597" viewBox="0 0 1179.299 182.597">
  <g id="Group_221" data-name="Group 221" transform="translate(-370.478 -3958.119)">
    <g id="Group_197" data-name="Group 197" transform="translate(755 3999)">
      <g id="Group_162" data-name="Group 162" transform="translate(141.286 10)">
        <path id="Path_924" data-name="Path 924" d="M454.917,231.7a36.055,36.055,0,0,0-.329-4.171,33.119,33.119,0,0,0-.728-3.715c-.164-.625-.34-1.244-.533-1.86a20.943,20.943,0,0,0-.719-1.983c-.248-.571-.511-1.135-.8-1.683-.316-.589-.657-1.168-1.01-1.738-.736-1.191-1.519-2.356-2.366-3.472-.373-.495-.752-.985-1.155-1.452-.375-.433-.759-.852-1.152-1.266s-.808-.84-1.229-1.243c-.4-.381-.812-.751-1.229-1.116l.008,0-.136-.117-.023-.023q-.672-.582-1.363-1.136a35.2,35.2,0,0,0-2.9-2.12,17.651,17.651,0,0,0-3.415-1.7c-.535-.2-1.083-.356-1.63-.523-.7-.3-1.41-.579-2.135-.812a29.469,29.469,0,0,0-3.962-.961c-.136-.024-.273-.043-.411-.065.185-.271.375-.536.539-.823.105-.177.2-.36.307-.54.093-.156.191-.312.291-.465.011-.016.021-.033.033-.049h0v0l0,0,0-.005h0l0,0,.005-.007h0l.012-.021.324-.477-.012.015.036-.051v0h0l0-.005,0,0v0h0c.1-.151.193-.3.289-.459.107-.176.22-.345.332-.515.076-.115.148-.229.217-.347l.049-.017a0,0,0,1,0,0-.008l-.039.009.019-.032a.338.338,0,0,0,.128-.109.322.322,0,0,0,.051-.223c.005-.013.012-.023.017-.037a.083.083,0,0,0,0-.125.084.084,0,0,0-.085-.021h0a.56.56,0,0,0-.2-.152c.183-.228.364-.459.545-.689.408-.515.809-1.035,1.211-1.554s.783-1.009,1.169-1.52c.2-.264.393-.528.58-.8s.365-.545.551-.815.376-.561.556-.848a4.151,4.151,0,0,0,.228-.421.384.384,0,0,0,.044-.289.375.375,0,0,0-.081-.327l-.077-.068c-.053-.048-.109-.1-.167-.145-.1-.081-.2-.157-.3-.24-.137-.115-.272-.232-.411-.343-.2-.157-.4-.317-.6-.472-.244-.189-.487-.384-.728-.581-.88-.712-1.751-1.432-2.66-2.108-.459-.34-.921-.669-1.365-1.031-.165-.136-.324-.284-.495-.412a1.106,1.106,0,0,0-.175-.116.888.888,0,0,0-.212-.092.445.445,0,0,0-.3.009h-.051c-.035,0-.068,0-.1,0-.061,0-.12,0-.18,0-.168.008-.336.019-.5.029h.02c-.493.028-.987.013-1.482.007-.312,0-.624,0-.935,0-.331,0-.66,0-.991,0-.711,0-1.423.025-2.134.045s-1.437.035-2.158.053-1.419.04-2.128.076c-.74.035-1.479.1-2.215.176-.7.073-1.387.163-2.078.267-.331.048-.661.095-.992.144-.153.023-.3.041-.455.073a1.032,1.032,0,0,0-.291.1.346.346,0,0,0-.163.023.763.763,0,0,0-.173.12c-.033.031-.068.06-.1.092a1.552,1.552,0,0,1-.151.144c-.165.145-.329.292-.489.444-.211.2-.417.405-.629.607-.236.228-.472.456-.705.685-.487.491-.959.995-1.431,1.5-.247.264-.492.531-.729.8-.227.256-.447.523-.664.788s-.425.531-.64.8c-.1.125-.208.252-.315.375l-.149.175a.655.655,0,0,0-.049.061c-.153.139.016.407.1.548.163.261.333.515.512.763.16.225.324.447.481.672l.461.673c.195.281.385.567.58.847s.388.555.583.832c.179.257.365.511.559.755.169.213.343.424.507.639.12.155.233.312.357.464.093.115.184.231.271.349l.192.267-.031.028a.289.289,0,0,0-.073.148l-.008,0a.115.115,0,0,0-.045-.024.087.087,0,0,0-.059.16.918.918,0,0,0,.069.121c.053.073.112.144.168.212.119.141.232.287.351.429.436.517.883,1.024,1.308,1.548.2.251.409.5.617.752q.286.338.58.665a24.273,24.273,0,0,0-2.8,1.073c-.581.267-1.145.569-1.7.889s-1.117.656-1.655,1.017q-.88.586-1.74,1.205c-.515.369-1.017.761-1.512,1.157-1.039.828-2.032,1.706-3,2.62-.577.548-1.132,1.117-1.671,1.7-.191-.264-.381-.528-.577-.788-.421-.556-.848-1.111-1.3-1.639-.421-.487-.855-.96-1.3-1.426s-.912-.949-1.387-1.4-.974-.9-1.471-1.335l.023.02c-.027-.025-.056-.049-.084-.073l-.008-.009v0q-.768-.666-1.555-1.3a40.064,40.064,0,0,0-3.27-2.391,19.832,19.832,0,0,0-3.851-1.916c-.605-.225-1.224-.4-1.838-.589-.791-.343-1.593-.655-2.41-.916a33.308,33.308,0,0,0-4.469-1.085,35.738,35.738,0,0,0-4.414-.483,40.805,40.805,0,0,0-4.515.059q-2.176.138-4.333.443a33.312,33.312,0,0,0-4.151.825,27,27,0,0,0-4.186,1.513c-.655.3-1.292.64-1.916,1s-1.259.741-1.866,1.148q-.994.66-1.963,1.357c-.581.419-1.147.859-1.706,1.307-1.172.935-2.294,1.924-3.38,2.956a40.445,40.445,0,0,0-3.258,3.486c-.467.559-.931,1.125-1.364,1.712-.421.568-.816,1.155-1.2,1.752a44.059,44.059,0,0,0-2.307,4.1,38.526,38.526,0,0,0-1.771,4.023,33.9,33.9,0,0,0-1.229,4.171,42.345,42.345,0,0,0-.791,4.45,28.225,28.225,0,0,0-.144,4.466,34.8,34.8,0,0,0,.48,4.507,42.238,42.238,0,0,0,.949,4.222,29.388,29.388,0,0,0,1.583,4.307,34.762,34.762,0,0,0,1.919,3.679,39.9,39.9,0,0,0,2.487,3.667,24.426,24.426,0,0,0,2.776,3.044c.567.52,1.161,1.008,1.768,1.48.553.431,1.119.847,1.7,1.241.607.411,1.231.8,1.876,1.151.689.38,1.4.724,2.119,1.049.671.308,1.345.605,2.032.876s1.359.491,2.048.7,1.419.389,2.128.579c.653.175,1.309.347,1.968.495q2.12.476,4.276.763a42.14,42.14,0,0,0,4.4.343q.668.02,1.333.02c1.029,0,2.059-.036,3.086-.1.7-.045,1.395-.093,2.09-.163.732-.071,1.463-.167,2.191-.276,1.335-.2,2.664-.444,3.974-.771a46.1,46.1,0,0,0,4.51-1.409q2.022-.734,3.966-1.66c1.13-.535,2.243-1.107,3.319-1.742a31,31,0,0,0,3.415-2.354,35.739,35.739,0,0,0,3.084-2.755q.71-.708,1.382-1.452c.367.4.747.781,1.145,1.147.5.461,1.029.9,1.567,1.313.491.38.992.751,1.508,1.1.539.365,1.092.709,1.664,1.023.612.336,1.243.64,1.879.929.593.272,1.193.537,1.8.776s1.2.435,1.815.621,1.259.344,1.887.512c.58.155,1.16.307,1.746.439,1.254.281,2.518.5,3.79.677a37.715,37.715,0,0,0,3.9.3c.395.011.789.019,1.184.019q1.366,0,2.732-.091c.619-.04,1.236-.083,1.852-.143.649-.064,1.3-.148,1.942-.245,1.183-.179,2.362-.392,3.524-.684a40.777,40.777,0,0,0,4-1.249q1.79-.652,3.516-1.472c1-.473,1.988-.98,2.942-1.543a27.194,27.194,0,0,0,3.028-2.087,33.21,33.21,0,0,0,5.109-5.082c.432-.537.854-1.088,1.239-1.662A19.74,19.74,0,0,0,451.391,247a31.57,31.57,0,0,0,1.538-3.427,32.77,32.77,0,0,0,1.227-3.751,23.009,23.009,0,0,0,.644-4.04C454.894,234.422,454.947,233.062,454.917,231.7ZM424.2,200.19c-.589-.029-1.179-.036-1.77-.031.336-.024.671-.048,1-.079s.681-.068,1.021-.107.692-.079,1.033-.14.667-.128,1-.211.653-.185.975-.293c.08-.027.157-.059.236-.088l-.137.181c-.148.2-.289.4-.436.6-.1.137-.212.271-.324.4C425.933,200.31,425.065,200.233,424.2,200.19Zm-13.878-5.9c.077-.649.132-1.3.192-1.946.045-.509.088-1.02.133-1.531q1.514-.062,3.027-.129,2.172-.1,4.344-.2l.764-.039c-.468.344-.936.687-1.411,1.024-.58.413-1.159.831-1.731,1.255-1.151.855-2.3,1.706-3.483,2.526-.569.4-1.143.785-1.711,1.184-.127.088-.252.179-.379.268.019-.157.035-.316.051-.473C410.184,195.58,410.245,194.932,410.32,194.287Zm.585-6.1c.035-.339.055-.679.076-1.019s.044-.7.065-1.048c.017-.331.027-.663.028-.993,0-.111,0-.223,0-.335.045.033.092.065.137.1.136.1.271.195.408.291.285.2.568.4.855.6.577.4,1.166.787,1.755,1.167,1.2.775,2.406,1.533,3.592,2.323.247.164.489.331.732.5l-1.663.1q-2.188.136-4.376.283l-1.818.12Q410.8,189.23,410.905,188.187Zm16.206-3.82c.093-.089.187-.181.276-.275,0,.248.011.5.027.745l0-.043c.024.344.047.688.092,1.031.037.3.08.6.125.9.1.643.223,1.28.341,1.916.036.2.073.4.111.6-.2.009-.395.017-.592.028-.693.037-1.387.067-2.08.108-1.415.084-2.83.151-4.244.236l-.328.02q.328-.264.655-.531c.553-.453,1.1-.907,1.66-1.356.539-.435,1.079-.869,1.613-1.311s1.047-.88,1.559-1.335Q426.723,184.741,427.111,184.367Zm1.091,5.57c.041.239.081.477.117.716.051.336.1.669.149,1s.085.657.133.984c.1.668.187,1.335.261,2.006.028.255.053.509.08.764-.144-.091-.289-.183-.432-.276-.261-.169-.528-.329-.791-.495-.28-.176-.564-.345-.848-.513-.572-.339-1.132-.7-1.7-1.052-.611-.379-1.223-.761-1.831-1.147s-1.207-.773-1.808-1.161l-.66-.428q.71-.034,1.419-.072c.7-.037,1.395-.072,2.092-.112s1.407-.073,2.11-.117C427.064,190,427.634,189.97,428.2,189.937Zm-17.946,7.609q.492-.344.981-.692,1.736-1.228,3.439-2.5c1.143-.855,2.271-1.728,3.408-2.588.533-.405,1.069-.807,1.6-1.219q.8.544,1.615,1.061c.6.381,1.2.748,1.81,1.112s1.221.752,1.828,1.132c.56.352,1.121.7,1.694,1.025s1.152.631,1.737.929l-.011-.005.025.013.024.012-.012-.005q.31.162.607.345c-.3.009-.6.037-.893.055-.324.02-.651.036-.973.057-.676.041-1.354.063-2.028.107-1.4.089-2.791.221-4.182.368-.692.072-1.381.147-2.073.22s-1.37.128-2.058.173-1.4.081-2.107.129-1.409.109-2.114.161c-.677.051-1.351.1-2.03.131-.115,0-.229.012-.345.019ZM433.42,190.3q-.3.4-.608.812c-.192.257-.377.517-.573.771-.388.507-.788,1.005-1.187,1.5l-.656.823c-.193.245-.381.5-.568.748l-.019.025c-.089-.645-.2-1.287-.3-1.93-.052-.327-.111-.651-.167-.979s-.111-.664-.169-1-.117-.649-.18-.976c-.015-.069-.029-.14-.045-.211.563-.036,1.124-.071,1.688-.1.672-.032,1.347-.071,2.02-.092.337-.011.676-.011,1.013-.025.088,0,.177-.012.267-.019C433.757,189.869,433.585,190.082,433.42,190.3Zm-4.891-5.443c.439.329.88.653,1.313.987.917.7,1.767,1.487,2.688,2.184.389.295.785.58,1.183.863l0,0-.128.005c-.333.027-.667.06-1,.084s-.679.049-1.019.069c-.668.04-1.337.084-2.008.115l-.771.037-.019-.081c-.163-.689-.332-1.378-.481-2.07-.141-.657-.273-1.321-.375-1.988-.041-.26-.075-.524-.109-.785l.036.028C428.068,184.5,428.3,184.683,428.528,184.858Zm-15.282-.388c.7-.1,1.4-.167,2.105-.233s1.4-.116,2.1-.163q1.28-.076,2.56-.1,2.146-.048,4.294-.011c.627.011,1.256.016,1.884.013.183,0,.361,0,.543.005.12,0,.239,0,.359,0-.127.1-.252.2-.38.305-.3.241-.6.485-.893.731-1.081.888-2.206,1.723-3.306,2.582-.551.431-1.105.852-1.656,1.28q-.514.4-1.035.795l-.04-.025q-.886-.55-1.776-1.092c-.595-.363-1.193-.723-1.785-1.089-.617-.383-1.243-.753-1.87-1.117s-1.237-.716-1.852-1.077q-.442-.262-.888-.513l-.081-.044c.111-.013.221-.029.332-.045C412.324,184.6,412.784,184.531,413.247,184.47Zm-8.4,6.021c.188-.2.373-.408.563-.612.459-.5.925-.989,1.395-1.48s.941-.976,1.432-1.446c.465-.448.944-.884,1.431-1.311.177-.155.36-.3.543-.455.1-.081.2-.167.308-.241.053-.033.108-.067.16-.1.017-.012.035-.027.052-.04,0,.045-.009.089-.012.133-.016.279-.029.559-.06.837-.037.343-.087.684-.128,1.027s-.084.672-.128,1.007q-.134,1.056-.284,2.11c-.019.132-.033.265-.051.4-.627.043-1.252.084-1.879.129-.711.052-1.423.1-2.135.16-.339.028-.676.057-1.015.088-.14.012-.281.027-.423.04C404.7,190.653,404.772,190.573,404.847,190.49Zm3.58,5.3c-.191-.229-.375-.465-.564-.695-.429-.523-.841-1.055-1.242-1.6-.193-.264-.384-.529-.58-.791-.183-.241-.375-.473-.561-.709-.212-.267-.4-.548-.6-.821-.041-.056-.081-.111-.124-.165l.316,0c1.415-.027,2.828-.084,4.241-.14.231-.008.46-.02.691-.029-.119,1.029-.2,2.064-.315,3.1-.072.651-.187,1.293-.307,1.938-.055.28-.109.559-.145.843l-.045-.048c-.111-.123-.217-.249-.328-.373C408.713,196.128,408.569,195.964,408.427,195.794Zm1.755,3.178c-.244-.244-.491-.484-.745-.717-.036-.033-.076-.064-.112-.1.048-.027.095-.053.141-.083l.023.005h.024a.466.466,0,0,0,.159-.031c.188.009.376.012.565.012h.36c.339,0,.676-.007,1.015-.017.7-.023,1.405-.044,2.111-.076s1.391-.041,2.086-.055,1.383-.029,2.074-.061c.708-.032,1.412-.092,2.116-.147l2.1-.163c.684-.052,1.37-.1,2.055-.131s1.392-.063,2.087-.111c.325-.023.656-.048.98-.091s.655-.1.983-.155c.3-.049.6-.077.895-.135.108-.02.216-.045.324-.069-.023.025-.044.052-.067.079l-.813.151c-.571.107-1.14.216-1.715.3-.253.036-.507.065-.759.093-.333.04-.668.076-1,.113-.355.041-.708.093-1.061.141s-.707.087-1.06.127q-.506.06-1.013.112c-.344.036-.688.072-1.035.1s-.677.053-1.017.081c-.708.059-1.415.111-2.127.153s-1.438.072-2.158.116c-.339.02-.677.047-1.017.043-.163,0-.324-.005-.488-.011-.088,0-.175-.007-.263-.007-.053,0-.107,0-.159,0h-.005c-.007,0-.009.005,0,.008a.26.26,0,0,0,.056.007l.153.005.356.023c.237.016.475.027.711.028h.119c.319,0,.637,0,.956,0h1.071c.716,0,1.434,0,2.151-.012.333-.005.668-.011,1-.023s.689-.031,1.031-.047.7-.036,1.044-.063c.165-.013.332-.028.493-.047.205-.023.411-.052.613-.084l-.056.008.177-.025c.5-.072,1-.132,1.5-.205s.98-.14,1.466-.239c.645-.133,1.286-.3,1.924-.464.268-.069.532-.143.8-.225l0,.007c-.041.048-.08.1-.119.147-.1.025-.195.048-.291.075-.211.06-.421.124-.632.188-.316.1-.629.2-.945.288s-.629.172-.945.248c-.683.164-1.371.3-2.064.4h-.005l-.019,0h-.015c-.373.053-.752.1-1.128.141-.343.041-.683.079-1.024.111-.359.033-.715.057-1.072.093-.329.032-.66.073-.992.1-.351.031-.7.06-1.055.083-.7.045-1.4.049-2.106.069-.345.009-.691.016-1.036.017l-.524,0a3.511,3.511,0,0,1-.375-.011h0l-.028,0s-.009,0-.007.007l.021.005c.027,0,.055.005.08.008.1.009.2.011.307.013.248.009.495.024.741.033.5.025,1,.035,1.492.057.555.021,1.109.043,1.663.043.144,0,.291,0,.435,0,.341-.005.681-.025,1.023-.035s.687-.024,1.029-.047.7-.048,1.044-.083.7-.1,1.049-.159c.688-.125,1.376-.259,2.055-.428.335-.085.669-.175,1-.281s.641-.224.959-.343c.433-.164.86-.345,1.292-.513-.2.251-.379.511-.556.775l-.356.121c-.289.1-.58.191-.875.271-.316.088-.637.164-.958.237-.652.147-1.305.283-1.964.384h-.008l-.031,0h.015l-.016,0v0c-.228.032-.46.06-.689.079-.668.056-1.339.093-2.006.157-.689.067-1.377.135-2.068.2-.355.033-.712.069-1.068.1s-.7.055-1.047.077-.687.04-1.032.063c-.156.008-.315.02-.471.035a1.938,1.938,0,0,0-.292.032v.009l.015,0h0a2.769,2.769,0,0,1,.348-.017c.336-.005.675,0,1.013,0s.685.008,1.027,0c.361,0,.724-.019,1.087-.031q.52-.018,1.037-.041c.683-.033,1.363-.08,2.04-.135.34-.028.677-.053,1.016-.077s.655-.048.981-.088a12.329,12.329,0,0,0,2.012-.449c.313-.092.627-.185.935-.291s.593-.22.884-.348h0l.008,0h0c.132-.057.261-.12.391-.183l-.085.125.005-.005-.007.009v0l-.008.015-.008.013-.013.017,0,0,.016-.025c-.012.017-.023.036-.035.052h0l0,0c-.077.119-.156.237-.235.356l.007-.009-.013.019-.007.009,0,0c-.076.115-.152.229-.233.34l-.016.021-.108.031c-.224.06-.451.113-.676.167-.485.115-.979.2-1.471.279l-.277.037c-.689.087-1.382.131-2.074.191-.709.064-1.42.129-2.128.2s-1.445.167-2.168.229c-.349.031-.7.056-1.049.083-.171.013-.343.025-.515.032-.1,0-.207,0-.311.008v.009c.073,0,.149,0,.223,0h.073c.111,0,.223,0,.335-.005.285-.011.571-.021.856-.029l.1,0c-.744.072-1.488.157-2.23.261a29.841,29.841,0,0,0-3.671.731l-.011-.011c-.124-.116-.253-.227-.376-.344q-.356-.344-.719-.681C411.1,199.886,410.642,199.429,410.182,198.971Zm-15.147,53.881c-.843.929-1.744,1.807-2.675,2.648a31.921,31.921,0,0,1-3.288,2.606q-.98.648-2.01,1.219a47.18,47.18,0,0,1-7.431,3.3c-1.139.38-2.287.731-3.455,1.011-1.32.317-2.659.549-4,.744-1.379.2-2.766.316-4.155.4q-1.506.084-3.01.069c-.728-.008-1.452-.048-2.18-.089s-1.463-.1-2.192-.193c-1.348-.16-2.686-.391-4.015-.661-.515-.111-1.032-.229-1.542-.361-1.419-.371-2.84-.736-4.23-1.211-.7-.241-1.383-.527-2.062-.825-.607-.269-1.209-.544-1.8-.837a23.16,23.16,0,0,1-2.847-1.724c-.848-.6-1.675-1.227-2.463-1.9a23.263,23.263,0,0,1-2.256-2.315,30.26,30.26,0,0,1-1.914-2.53c-.077-.115-.155-.229-.229-.345-.408-.635-.816-1.272-1.19-1.93-.336-.592-.649-1.2-.953-1.807s-.608-1.248-.885-1.884c-.291-.665-.551-1.34-.788-2.027-.057-.175-.116-.352-.171-.527a33.676,33.676,0,0,1-1-4.154,37.644,37.644,0,0,1-.547-4.159,31.734,31.734,0,0,1,.055-4.091,32.712,32.712,0,0,1,.583-3.943c.077-.357.153-.712.237-1.065a33.157,33.157,0,0,1,1.251-4.158c.512-1.339,1.1-2.64,1.735-3.923.112-.223.227-.445.344-.665a42.853,42.853,0,0,1,2.215-3.771,33.213,33.213,0,0,1,2.636-3.462q.6-.672,1.224-1.317c1.068-1.1,2.184-2.154,3.348-3.147a38.185,38.185,0,0,1,3.352-2.61,37.185,37.185,0,0,1,3.471-2.086c.629-.331,1.261-.655,1.912-.939.584-.259,1.179-.484,1.783-.695.495-.161.992-.313,1.495-.448a39.486,39.486,0,0,1,4.15-.837c1.431-.22,2.87-.383,4.317-.473.085-.007.171-.009.257-.013a.366.366,0,0,0,.067.009c1.427-.007,2.85-.024,4.275.013.543.036,1.084.087,1.621.16q1.06.146,2.108.361c.24.049.476.1.713.157a42.791,42.791,0,0,1,4.212,1.2c.677.236,1.352.48,2.018.755.6.245,1.192.52,1.777.809.963.487,1.9,1.019,2.826,1.583q.76.464,1.5.968c.093.071.189.141.284.216.995.759,1.974,1.547,2.916,2.37.46.405.912.815,1.355,1.243a38.046,38.046,0,0,1,2.667,2.856c.66.787,1.28,1.611,1.875,2.451-.36.437-.719.877-1.057,1.335-.372.5-.723,1.023-1.064,1.553-.275.428-.535.865-.789,1.305-.483-.736-.987-1.459-1.517-2.159-.348-.46-.7-.917-1.078-1.353-.347-.4-.707-.793-1.072-1.179s-.753-.784-1.145-1.159-.8-.741-1.216-1.1l.013.011-.061-.055-.011-.008,0,0c-.421-.367-.851-.723-1.284-1.073a32.8,32.8,0,0,0-2.7-1.975,16.35,16.35,0,0,0-3.182-1.583c-.5-.187-1.008-.333-1.518-.487-.652-.283-1.315-.541-1.99-.759a27.58,27.58,0,0,0-3.692-.895,29.305,29.305,0,0,0-3.646-.4,33.107,33.107,0,0,0-3.727.049q-1.8.112-3.58.365a27.514,27.514,0,0,0-3.427.68,22.474,22.474,0,0,0-3.458,1.251c-.541.248-1.068.529-1.583.829s-1.04.612-1.543.947q-.818.546-1.62,1.123c-.48.345-.948.709-1.408,1.079q-1.452,1.16-2.792,2.442a33.7,33.7,0,0,0-2.692,2.879c-.384.463-.767.929-1.127,1.415-.348.469-.673.955-.99,1.447a36.279,36.279,0,0,0-1.905,3.391A32.14,32.14,0,0,0,338,224.113a28.347,28.347,0,0,0-1.013,3.446,34.662,34.662,0,0,0-.653,3.675,23.184,23.184,0,0,0-.119,3.688,29.3,29.3,0,0,0,.395,3.724,35.258,35.258,0,0,0,.785,3.488,24.371,24.371,0,0,0,1.307,3.556,28.935,28.935,0,0,0,1.586,3.039,32.987,32.987,0,0,0,2.054,3.028,20.2,20.2,0,0,0,2.294,2.515c.469.431.96.833,1.462,1.223.456.356.924.7,1.405,1.025.5.34,1.016.66,1.55.951.571.315,1.157.6,1.75.867.553.253,1.113.5,1.68.724s1.12.405,1.692.577,1.171.321,1.758.479c.539.143,1.08.285,1.626.407,1.167.264,2.347.471,3.532.632a35.136,35.136,0,0,0,3.631.283c.367.009.735.016,1.1.016q1.274,0,2.547-.084c.576-.037,1.151-.077,1.726-.135.605-.059,1.209-.136,1.81-.227,1.1-.167,2.2-.367,3.283-.637a37.524,37.524,0,0,0,3.724-1.165q1.67-.606,3.276-1.369c.932-.443,1.852-.915,2.74-1.44a25.22,25.22,0,0,0,2.822-1.944,28.81,28.81,0,0,0,2.547-2.275,29.539,29.539,0,0,0,2.215-2.459c.1-.129.205-.259.307-.389h0l0,0,0,0,0,0,.011-.017v0c.033-.065.071-.129.107-.193.027-.047.053-.093.083-.139s.067-.1.1-.148c.02-.027.037-.056.06-.083.143-.177.3-.341.444-.516l.111-.14c.116-.176.229-.356.335-.539l-.007-.013c.044-.071.091-.14.133-.211s.081-.149.125-.223l.02-.029c.109-.189.213-.379.315-.571a28.062,28.062,0,0,0,1.223-2.663,1.438,1.438,0,0,1,.048-.147c.043-.109.092-.219.14-.328.007-.017.013-.037.02-.056.025-.063.048-.125.072-.189l.005.012c.015-.041.031-.083.045-.124.029-.084.06-.169.089-.255v0l.021-.06.252-.715c.115-.324.228-.652.347-.975.011-.033.024-.065.037-.1l-.015-.053c.1-.343.2-.687.288-1.035a21.415,21.415,0,0,0,.6-3.764c.087-1.265.136-2.534.111-3.8a33.84,33.84,0,0,0-.309-3.886c-.1-.741-.233-1.483-.389-2.218.079-.229.159-.457.245-.684.012-.029.024-.057.035-.087.024.095.047.191.069.287.057.252.113.508.168.761.128.573.237,1.152.343,1.728.064.345.128.688.189,1.032s.109.683.159,1.025c.1.723.188,1.444.251,2.17q.034.452.057.907c.017.315.032.631.033.945.005.615-.007,1.232-.052,1.846-.1,1.431-.241,2.859-.473,4.276v.007c-.015.081-.028.163-.04.241h0l0,.016v0c-.008.048-.017.095-.024.141l0-.025c-.193,1.095-.4,2.186-.6,3.279l0,.005,0,0c.2-.845.405-1.688.619-2.53.175-.683.348-1.367.481-2.058q.214-1.094.349-2.2c.084-.707.143-1.418.171-2.131a17.2,17.2,0,0,0-.052-2.192v0q-.05-.592-.124-1.18c-.089-.695-.215-1.385-.351-2.072-.069-.343-.149-.683-.228-1.024s-.157-.676-.244-1.012-.164-.652-.257-.977c-.085-.3-.176-.6-.272-.893-.048-.148-.1-.3-.147-.447q.278-.714.592-1.411c.023.083.047.167.069.249.093.333.184.668.276,1s.176.664.256,1,.157.657.223.989c.069.357.127.716.187,1.075s.115.716.164,1.076c.093.68.179,1.363.267,2.044s.149,1.347.208,2.024v.021l.012.135c.051.62.084,1.239.091,1.863s-.027,1.256-.056,1.884l0,.005,0-.005c.045-.327.088-.655.132-.98s.089-.657.123-.987a15.142,15.142,0,0,0,.072-1.888c-.013-.717-.056-1.432-.124-2.146q-.1-1.026-.273-2.044c-.059-.348-.132-.695-.209-1.037s-.161-.711-.253-1.061c-.179-.671-.393-1.332-.632-1.984l.007.024c-.164-.453-.337-.9-.5-1.353.079-.176.159-.352.241-.525.151.513.309,1.024.492,1.527.12.335.243.669.355,1.007a7.508,7.508,0,0,1,.28.977v0a2.071,2.071,0,0,1,.027.223l.005,0,0,0a3.738,3.738,0,0,0-.047-.517c-.04-.3-.089-.595-.141-.891v0h0l0-.016-.007-.031a10.274,10.274,0,0,0-.52-1.971c-.084-.217-.179-.432-.277-.643.053-.111.105-.221.16-.331s.1-.191.148-.285l.024.075c.1.293.18.592.269.889.2.664.4,1.326.593,1.991.2.681.387,1.367.56,2.056.168.665.311,1.337.435,2.014.013.069.025.141.036.212v-.016l0,.031h0c.1.547.183,1.1.279,1.646v0c.049.287.107.571.16.856h0l0,.013h0v.009l0,.005,0-.007c-.009-.085-.027-.168-.04-.253-.019-.121-.037-.245-.053-.368-.036-.244-.069-.489-.1-.736-.071-.5-.133-1-.193-1.495a26.267,26.267,0,0,0-.848-4.262q-.286-.984-.661-1.938c-.112-.285-.231-.567-.369-.841l-.02-.037.02-.04q.16-.3.325-.6c.065.211.129.421.2.631q.252.788.5,1.577c.2.648.408,1.3.6,1.948.1.328.192.656.287.987q.07.242.136.488c.041.152.083.307.112.463v0a.439.439,0,0,1,.007.072l.007.005,0,0v0c0-.02,0-.041,0-.061-.007-.067-.015-.133-.025-.2-.019-.136-.039-.275-.061-.412q-.072-.436-.141-.873c-.092-.6-.2-1.195-.329-1.786a11.1,11.1,0,0,0-.635-1.943c-.136-.315-.28-.625-.44-.929-.031-.057-.064-.115-.1-.172q.4-.706.825-1.391.118.3.224.611c.124.368.237.739.348,1.111a38.618,38.618,0,0,1,1,4.25,39.483,39.483,0,0,1,.5,4.306c0,.06.007.121.011.184a44.262,44.262,0,0,1-.033,4.551c-.043.748-.087,1.5-.172,2.24-.081.715-.2,1.424-.34,2.132-.009.041-.017.083-.028.123a33.143,33.143,0,0,1-1.311,4.259c-.243.643-.495,1.28-.763,1.912,0,.017-.008.036-.012.052a1.665,1.665,0,0,1-.067.209c-.035.088-.072.175-.111.264s-.071.177-.111.263c-.069.151-.139.3-.217.445-.053.1-.111.2-.169.295-.023.056-.049.113-.072.171-.061.139-.128.275-.2.408l-.019.036c-.071.131-.145.26-.225.385-.02.032-.04.064-.061.095a20.635,20.635,0,0,1-1.175,1.856c-.195.275-.4.545-.6.815-.024.037-.051.075-.075.113a4.3,4.3,0,0,1-.293.365l-.063.073c-.015.02-.032.039-.048.057-.068.077-.136.156-.205.233-.191.216-.377.433-.567.649-.067.081-.136.16-.205.239l.017.023Zm-6.366-18.286a30.7,30.7,0,0,0,.425,4,37.566,37.566,0,0,0,.841,3.743,25.944,25.944,0,0,0,1.4,3.816c.223.484.453.967.693,1.443l0,.005q-.732,1.032-1.567,1.99l-.285.32c-.7.767-1.441,1.492-2.21,2.187a26.2,26.2,0,0,1-2.715,2.152q-.81.536-1.663,1.005a38.455,38.455,0,0,1-6.137,2.726c-.94.316-1.89.6-2.855.836-1.089.261-2.195.453-3.3.615-1.14.165-2.286.261-3.434.333-.827.044-1.655.067-2.486.056-.6-.007-1.2-.039-1.8-.073s-1.209-.085-1.812-.16c-1.111-.132-2.218-.323-3.316-.545-.425-.093-.851-.188-1.273-.3-1.172-.305-2.347-.607-3.494-1-.577-.2-1.143-.433-1.7-.681-.479-.212-.957-.429-1.427-.659l.052.025c-.024-.011-.047-.023-.071-.035l-.044-.021a19.547,19.547,0,0,1-2.352-1.425c-.7-.493-1.384-1.015-2.035-1.571a19.127,19.127,0,0,1-1.863-1.915,24.506,24.506,0,0,1-1.582-2.088c-.064-.1-.127-.189-.189-.285-.337-.525-.673-1.051-.983-1.594-.277-.489-.536-.991-.787-1.493s-.5-1.031-.732-1.556c-.239-.551-.455-1.107-.651-1.672-.048-.147-.093-.291-.14-.436a27.88,27.88,0,0,1-.827-3.431,31.469,31.469,0,0,1-.452-3.435,26.731,26.731,0,0,1,.044-3.38,27.042,27.042,0,0,1,.484-3.258c.063-.295.124-.587.2-.881a27.022,27.022,0,0,1,1.032-3.432c.423-1.105.908-2.182,1.433-3.242.092-.183.187-.367.283-.549a35.554,35.554,0,0,1,1.831-3.115,27.789,27.789,0,0,1,2.178-2.859q.494-.556,1.011-1.09c.883-.905,1.8-1.778,2.764-2.6a32.863,32.863,0,0,1,2.7-2.106l.024-.016.048-.033a31.718,31.718,0,0,1,2.866-1.722c.521-.272,1.045-.543,1.581-.777.481-.211.974-.4,1.472-.572.408-.133.82-.257,1.235-.369a32.17,32.17,0,0,1,3.428-.692c1.18-.18,2.371-.315,3.564-.391.072-.005.143-.008.213-.011a.254.254,0,0,0,.055.005c1.176,0,2.354-.019,3.531.012.448.031.9.072,1.339.133.584.079,1.164.18,1.742.3.2.044.393.085.589.131a35.757,35.757,0,0,1,3.479.988c.559.195,1.119.4,1.667.624.5.205.985.431,1.47.669.793.4,1.572.843,2.332,1.307.419.256.831.524,1.239.8.079.059.157.117.235.177.821.628,1.63,1.279,2.41,1.958.377.333.753.675,1.117,1.027a31.171,31.171,0,0,1,2.2,2.359,35.267,35.267,0,0,1,2.138,2.871q.342.512.667,1.037c-.115.22-.228.439-.339.66a33.892,33.892,0,0,0-1.57,3.566,29.969,29.969,0,0,0-1.089,3.7,37.638,37.638,0,0,0-.7,3.944A25.016,25.016,0,0,0,388.669,234.566Zm7.262.612a23.681,23.681,0,0,1,.04-3c.043-.553.115-1.1.2-1.652.016.207.033.413.047.62,0,.051.005.1.008.151a36.5,36.5,0,0,1-.027,3.762c-.029.535-.065,1.068-.119,1.6C396.018,236.168,395.966,235.673,395.931,235.178Zm12.368-23.5.024-.016a.307.307,0,0,0,.04-.029,28.289,28.289,0,0,1,2.544-1.527c.46-.241.924-.48,1.4-.687.428-.189.865-.355,1.307-.508.363-.12.725-.231,1.095-.328a28.324,28.324,0,0,1,3.039-.613c1.047-.161,2.1-.28,3.16-.347l.189-.011a.144.144,0,0,0,.048.007c1.044-.005,2.087-.017,3.131.011.4.027.793.061,1.187.117.516.071,1.032.16,1.544.263l.521.116a31.474,31.474,0,0,1,3.086.876c.495.172.989.352,1.476.552.441.183.873.383,1.3.593.7.357,1.393.748,2.068,1.16.372.227.737.464,1.1.708l.209.157c.727.557,1.444,1.133,2.136,1.735.336.3.665.6.991.912a27.553,27.553,0,0,1,1.952,2.091,30.642,30.642,0,0,1,1.893,2.544c.519.78,1.012,1.579,1.459,2.4a16.043,16.043,0,0,1,1.084,2.443c.088.269.172.539.252.812a28,28,0,0,1,.731,3.111,29.109,29.109,0,0,1,.371,3.152c0,.045,0,.092.007.135a31.961,31.961,0,0,1-.024,3.335c-.032.547-.063,1.093-.124,1.639-.059.5-.139,1-.239,1.5l-.012.059-.02.093a24.381,24.381,0,0,1-.961,3.116c-.344.916-.717,1.819-1.148,2.7a15.49,15.49,0,0,1-1.195,1.983c-.433.609-.9,1.2-1.388,1.764-.084.1-.168.189-.256.284-.615.68-1.275,1.322-1.956,1.939a23.34,23.34,0,0,1-2.41,1.907c-.477.317-.969.616-1.471.891A34.142,34.142,0,0,1,431,255.135c-.833.28-1.676.535-2.53.741-.967.231-1.948.4-2.931.544-1.011.147-2.024.233-3.043.3-.733.039-1.468.057-2.2.049-.533-.008-1.064-.035-1.595-.065s-1.073-.077-1.608-.141c-.985-.119-1.966-.287-2.938-.485-.379-.083-.755-.168-1.131-.265-1.039-.271-2.079-.537-3.1-.887-.512-.176-1.013-.385-1.51-.6-.421-.188-.843-.379-1.257-.583l.04.021c-.021-.009-.04-.021-.061-.031a.425.425,0,0,0-.043-.02,17.327,17.327,0,0,1-2.083-1.264c-.62-.437-1.23-.9-1.8-1.392a17.142,17.142,0,0,1-1.654-1.7c-.3-.345-.576-.707-.848-1.075a36.109,36.109,0,0,0,1.484-3.372,36.9,36.9,0,0,0,1.387-4.231,25.981,25.981,0,0,0,.724-4.558c.108-1.531.167-3.064.133-4.6a40.893,40.893,0,0,0-.372-4.706,37.006,37.006,0,0,0-.822-4.188q-.274-1.056-.6-2.1a22.625,22.625,0,0,0-.812-2.236c-.053-.124-.111-.247-.167-.371q.438-.564.9-1.107.438-.492.9-.965c.783-.8,1.6-1.576,2.452-2.306A29.28,29.28,0,0,1,408.3,211.675Zm44.752,23.037c-.037.663-.075,1.326-.151,1.986-.072.635-.176,1.264-.3,1.891l-.024.109a29.47,29.47,0,0,1-1.164,3.775c-.416,1.108-.869,2.2-1.389,3.263a18.754,18.754,0,0,1-1.448,2.4c-.524.739-1.088,1.451-1.679,2.136l-.308.341c-.748.823-1.547,1.6-2.372,2.348a27.807,27.807,0,0,1-2.915,2.31q-.866.576-1.781,1.079a41.157,41.157,0,0,1-6.586,2.926c-1.011.339-2.03.648-3.066.9-1.171.283-2.356.488-3.547.661-1.223.176-2.452.279-3.683.357-.889.048-1.777.071-2.667.06-.645-.007-1.288-.043-1.932-.079s-1.3-.093-1.944-.171c-1.194-.143-2.379-.345-3.559-.585-.457-.1-.915-.2-1.368-.323-1.259-.328-2.516-.652-3.748-1.073-.621-.213-1.227-.467-1.827-.731-.537-.237-1.071-.481-1.6-.741a20.579,20.579,0,0,1-2.526-1.528c-.752-.531-1.487-1.091-2.184-1.687a20.4,20.4,0,0,1-1.542-1.533c.039-.047.079-.093.117-.141.095-.117.187-.236.28-.353l.049.06c.344.415.712.808,1.092,1.191a16.591,16.591,0,0,0,1.549,1.368c.275.216.553.424.84.624s.6.4.909.595c.276.173.548.353.825.524s.581.353.871.531c.305.184.6.376.912.556.288.167.588.316.888.464s.619.3.929.441.648.284.98.408c.316.119.635.231.959.327.36.1.723.2,1.084.3h0s.007-.007,0-.008c-.349-.127-.7-.256-1.037-.405-.3-.133-.6-.277-.9-.424-.583-.291-1.149-.615-1.714-.944l0,0-.007-.005-.039-.021.023.012c-.288-.175-.572-.353-.857-.535s-.575-.359-.86-.539-.56-.363-.841-.543-.571-.363-.859-.54c-.6-.372-1.2-.733-1.781-1.123s-1.121-.8-1.651-1.231c-.451-.372-.888-.761-1.307-1.169.107-.137.213-.275.319-.415.033.043.067.087.1.127.164.193.336.38.509.564.236.249.473.5.715.74s.52.488.789.723.524.439.8.641q.442.324.911.605.452.272.915.527c.3.167.612.315.925.459.656.3,1.324.571,1.988.851h0v-.009c-.513-.271-1.019-.556-1.518-.852l.021.013-.1-.06.011.007c-.48-.287-.949-.592-1.415-.9-.491-.329-.984-.661-1.471-1-.577-.4-1.156-.8-1.708-1.239-.256-.2-.507-.411-.756-.621s-.467-.4-.687-.617q.2-.268.4-.541c.091.1.181.193.275.287l-.007-.007c.34.344.687.685,1.041,1.015.333.312.672.619,1.031.9a14.288,14.288,0,0,0,1.83,1.209q.444.252.9.481c.328.163.663.317.995.473h0l0-.007c-.575-.359-1.141-.731-1.692-1.125-.284-.205-.572-.407-.856-.611q-.4-.286-.784-.575c-.573-.421-1.141-.845-1.7-1.285-.272-.216-.549-.428-.817-.649-.064-.052-.125-.107-.188-.159.089-.128.18-.256.267-.385.235-.349.456-.707.669-1.069a17.732,17.732,0,0,0,1.978,2.158c.415.381.849.74,1.295,1.085.405.315.819.62,1.245.908.444.3.9.585,1.373.845.505.276,1.027.527,1.552.767.491.224.985.444,1.488.641s.993.36,1.5.512,1.039.285,1.559.424c.48.127.959.252,1.44.361q1.554.35,3.131.559a30.651,30.651,0,0,0,3.22.251c.328.011.652.015.979.015q1.128,0,2.258-.073c.509-.033,1.021-.069,1.53-.12.536-.052,1.071-.121,1.6-.2.979-.144,1.951-.323,2.91-.563a33.559,33.559,0,0,0,3.3-1.033q1.482-.538,2.906-1.216c.827-.391,1.643-.809,2.43-1.273a22.944,22.944,0,0,0,2.5-1.724,26.106,26.106,0,0,0,2.258-2.019,25.564,25.564,0,0,0,1.961-2.18c.359-.444.705-.9,1.024-1.371a16.473,16.473,0,0,0,.879-1.475,26.243,26.243,0,0,0,1.268-2.831,26.915,26.915,0,0,0,1.016-3.1,18.941,18.941,0,0,0,.529-3.336c.079-1.121.124-2.246.1-3.368a30.082,30.082,0,0,0-.272-3.444,27.266,27.266,0,0,0-.6-3.07q-.2-.772-.439-1.535a16.459,16.459,0,0,0-.6-1.638c-.2-.472-.419-.937-.664-1.391-.261-.487-.541-.965-.833-1.435-.605-.984-1.255-1.947-1.952-2.87-.309-.407-.621-.812-.955-1.2-.309-.356-.627-.7-.953-1.043s-.665-.695-1.015-1.028-.712-.657-1.077-.976l.009.007-.052-.045-.009-.009,0,0c-.372-.325-.752-.641-1.137-.952a29.044,29.044,0,0,0-2.395-1.751,14.448,14.448,0,0,0-2.82-1.4c-.441-.165-.893-.3-1.346-.431-.579-.251-1.167-.48-1.764-.673a24.526,24.526,0,0,0-3.272-.793,26.25,26.25,0,0,0-3.231-.353,29.713,29.713,0,0,0-3.306.043c-1.061.065-2.12.176-3.174.324a24.483,24.483,0,0,0-3.038.6,19.992,19.992,0,0,0-3.067,1.108c-.48.22-.947.469-1.4.736s-.923.543-1.368.839q-.724.486-1.434,1c-.428.305-.841.629-1.251.955-.859.685-1.68,1.411-2.475,2.167a29.74,29.74,0,0,0-2.282,2.427l0-.005-.241.288-.1.132-.032.037c-.093.12-.185.24-.276.361-.237.317-.465.643-.687.971l-.028.04v0c-.159.235-.316.472-.469.712s-.311.487-.468.727c-.071.109-.137.219-.213.323-.031.043-.065.083-.1.121l-.008.007c-.371.64-.716,1.291-1.045,1.95q-.182.366-.359.732c-.049.113-.1.224-.145.337-.067.153-.128.309-.191.464v0c-.065.157-.131.317-.193.477l-.019.044q-.244.628-.492,1.252c-.1.316-.192.631-.3.939l-.009.024-.015.041h0c-.037.1-.073.2-.111.3-.135.461-.255.928-.36,1.4a31.76,31.76,0,0,0-.58,3.258,20.783,20.783,0,0,0-.105,3.272,25.9,25.9,0,0,0,.351,3.3c.143.811.315,1.62.519,2.42-.148.481-.311.957-.481,1.431-.049-.176-.1-.352-.163-.525-.095-.267-.213-.525-.289-.8v0l-.008-.029h0a.563.563,0,0,1-.023-.113V240.4c0-.007-.007-.007-.007,0h0a.43.43,0,0,0,0,.124,4.129,4.129,0,0,0,.1.555,3.651,3.651,0,0,0,.185.567c.048.115.1.225.16.333-.037.1-.073.207-.112.308-.115.307-.235.612-.356.916-.041-.18-.083-.359-.128-.537-.115-.451-.267-.891-.384-1.34v.008c-.028-.108-.055-.219-.075-.328a.732.732,0,0,1-.017-.131v-.005c0-.005-.008,0-.008,0h0a.391.391,0,0,0,0,.112c.011.145.025.289.041.432a9.358,9.358,0,0,0,.141.984,6.2,6.2,0,0,0,.272.948c.013.039.032.076.047.113-.144.351-.292.7-.448,1.047-.059-.281-.112-.563-.169-.844-.1-.515-.219-1.023-.351-1.53h0l0-.008,0-.013,0-.011v0c-.1-.392-.212-.781-.315-1.172h0c-.057-.22-.111-.443-.155-.667-.017-.088-.036-.175-.051-.263a.473.473,0,0,1-.015-.085h-.011c0,.051.015.1.02.153.017.147.031.293.045.44q.046.468.113.933a17.263,17.263,0,0,0,.387,1.963,8.956,8.956,0,0,0,.305.968c.04.1.083.2.124.3-.1.217-.2.435-.305.649l-.023.043c-.024-.091-.049-.18-.073-.269-.005-.02-.009-.041-.015-.061l0,.019c-.088-.344-.169-.692-.245-1.04-.137-.636-.272-1.275-.4-1.915-.129-.664-.275-1.325-.423-1.986-.153-.683-.312-1.364-.439-2.052-.063-.344-.12-.685-.165-1.031a6.89,6.89,0,0,1-.072-.937v-.075c0-.005-.007-.007-.007,0a1.279,1.279,0,0,0-.009.175c0,.121,0,.244,0,.364,0,.268.017.533.036.8.037.545.1,1.091.165,1.631a32.366,32.366,0,0,0,.719,4.056l-.005-.02a15.455,15.455,0,0,0,.476,1.508c.119.317.253.627.395.935-.048.092-.1.184-.147.275-.157-.331-.312-.663-.459-1-.256-.588-.488-1.188-.7-1.795-.052-.156-.105-.312-.153-.468a29.817,29.817,0,0,1-.885-3.682,33.408,33.408,0,0,1-.484-3.688,28.154,28.154,0,0,1,.047-3.628,29.141,29.141,0,0,1,.517-3.5c.067-.315.135-.631.211-.945a29.276,29.276,0,0,1,1.108-3.684c.361-.945.768-1.871,1.2-2.784l.024.044.013-.031c.159-.364.336-.715.525-1.063.005-.009.011-.021.019-.033.056-.124.117-.248.18-.369s.112-.219.171-.327l-.015-.023c.523-.964,1.084-1.912,1.687-2.826.168-.255.339-.505.516-.753a2.388,2.388,0,0,1,.132-.244,5.148,5.148,0,0,1,.3-.443c.095-.132.2-.257.311-.38.139-.159.281-.316.424-.471.02-.024.043-.048.064-.072l.012-.012.163-.172c.193-.235.391-.461.595-.687l-.011-.016c.3-.335.607-.664.92-.988.945-.971,1.935-1.907,2.966-2.79a34.571,34.571,0,0,1,2.951-2.3h0l.021-.015a33.607,33.607,0,0,1,3.076-1.848c.559-.292,1.12-.58,1.695-.832.52-.229,1.047-.429,1.582-.615.439-.144.879-.276,1.325-.4a34.82,34.82,0,0,1,3.679-.741c1.269-.2,2.546-.339,3.827-.42.075,0,.152-.008.228-.012a.207.207,0,0,0,.059.009c1.262-.008,2.526-.021,3.79.011.479.032.96.077,1.438.143q.94.13,1.868.319c.212.047.421.091.631.14a37.455,37.455,0,0,1,3.735,1.06c.6.208,1.2.425,1.79.669.533.22,1.057.461,1.575.719.855.433,1.688.9,2.506,1.4.451.275.891.561,1.328.857l.252.191c.883.675,1.751,1.374,2.587,2.1.405.36.809.725,1.2,1.1A33.378,33.378,0,0,1,446.064,213a37.164,37.164,0,0,1,2.295,3.082c.628.941,1.221,1.911,1.764,2.907a19.786,19.786,0,0,1,1.312,2.958c.107.327.209.653.305.983a33.873,33.873,0,0,1,.885,3.767,35.665,35.665,0,0,1,.448,3.818c0,.055.005.109.008.164A39.185,39.185,0,0,1,453.051,234.713Z" transform="translate(-326.417 -166.296)" fill="#fff"/>
        <path id="Path_925" data-name="Path 925" d="M404.064,194.8h0Z" transform="translate(-301.609 -162.421)" fill="#fff"/>
        <path id="Path_926" data-name="Path 926" d="M333.362,232.323c-.1-.723-.183-1.452-.216-2.183-.036-.755-.033-1.509-.009-2.264v.061c0-.085.008-.167.011-.252v-.037h0V227.6a31.264,31.264,0,0,1,.357-3.631,33.516,33.516,0,0,1,.98-4.294l0-.012,0-.011.016-.053v-.005l0-.012c.012-.039.025-.079.037-.117a25.014,25.014,0,0,1,1.078-2.812,31.439,31.439,0,0,1,2.118-3.87l-.024.039c.031-.047.059-.092.088-.139l.032-.051-.009.011q.572-.884,1.188-1.743c.407-.564.832-1.115,1.264-1.658.475-.6.971-1.175,1.475-1.744s1.008-1.1,1.518-1.644c1.023-1.1,2.108-2.136,3.22-3.144.373-.339.755-.671,1.14-1,.193-.164.389-.327.587-.485.139-.111.284-.219.412-.341l-.007-.005c-.072.064-.151.123-.225.181-.111.083-.221.167-.331.251-.241.179-.48.363-.717.545q-.872.676-1.724,1.376c-.563.464-1.117.939-1.659,1.429l.031-.028c-.291.263-.581.525-.867.795-.54.507-1.064,1.032-1.564,1.578-.269.3-.531.6-.792.9-.24.273-.471.555-.695.841-.473.6-.931,1.213-1.379,1.831-.436.6-.871,1.2-1.266,1.823l.005-.011c-.3.475-.6.956-.893,1.439-.281.465-.553.937-.811,1.417-.344.648-.673,1.3-.96,1.978-.144.333-.283.672-.413,1.011s-.265.692-.377,1.045c-.224.707-.425,1.42-.587,2.146s-.3,1.486-.42,2.234a29.767,29.767,0,0,0-.325,4.555,19.59,19.59,0,0,0,.12,2.219,19.918,19.918,0,0,0,.385,2.208l-.008-.029.024.1h0l0,.008,0,.019v0c.123.539.271,1.067.427,1.595.168.567.337,1.133.519,1.694l0,0,0,0c-.135-.5-.256-1.008-.373-1.516C333.6,233.779,333.463,233.055,333.362,232.323Z" transform="translate(-325.421 -160.393)" fill="#fff"/>
        <path id="Path_927" data-name="Path 927" d="M337.194,236.8c-.24-.468-.459-.945-.66-1.432-.209-.508-.4-1.024-.573-1.543-.117-.345-.221-.695-.325-1.044-.1-.333-.2-.668-.287-1-.181-.66-.351-1.32-.505-1.987,0-.016-.007-.031-.009-.045l0,.013c-.139-.619-.271-1.239-.383-1.862s-.2-1.231-.268-1.851c-.076-.7-.129-1.4-.145-2.1-.017-.721-.005-1.443.02-2.164v.013c.037-.953.1-1.908.233-2.854.1-.72.241-1.434.409-2.14.156-.656.325-1.312.521-1.958h0a.207.207,0,0,1,.009-.031h0a.488.488,0,0,1,.032-.087c0-.007-.008-.009-.009,0a1.454,1.454,0,0,0-.055.151c-.032.093-.064.188-.095.281-.063.192-.124.383-.184.575l0-.007c-.012.044-.027.087-.041.129l0-.005c-.013.041-.028.084-.04.127l0,0a.42.42,0,0,0-.019.053h0l-.023.065h0c-.009.039-.021.076-.035.115h0c-.036.12-.072.241-.109.36l0-.008c-.231.736-.436,1.483-.6,2.236q-.228,1.06-.367,2.138c-.095.732-.164,1.468-.188,2.207v-.015c0,.067-.005.136-.008.205,0-.024,0-.047,0-.069-.023.588-.011,1.175.017,1.764.016.353.039.707.077,1.059s.075.7.133,1.043.116.692.185,1.033c.08.4.165.788.255,1.179l.007.029h0v0c.117.515.24,1.025.385,1.528.1.351.209.7.32,1.047.108.331.215.66.331.988a21.257,21.257,0,0,0,.855,2.044,18.508,18.508,0,0,0,1.015,1.89q.6.948,1.239,1.868h0l0,0c-.4-.637-.8-1.278-1.148-1.944Z" transform="translate(-325.141 -155.776)" fill="#fff"/>
        <path id="Path_928" data-name="Path 928" d="M383.3,216.541Z" transform="translate(-308.533 -155.169)" fill="#fff"/>
        <path id="Path_929" data-name="Path 929" d="M387.2,239.223h0l-.019-.011Z" transform="translate(-307.238 -147.608)" fill="#fff"/>
        <path id="Path_930" data-name="Path 930" d="M391.415,202.745c.3-.215.6-.425.907-.629s.617-.392.928-.584q.936-.578,1.88-1.143c.007,0,0-.011,0-.008-.581.3-1.159.609-1.736.916s-1.16.607-1.723.944c-.623.375-1.236.772-1.83,1.193s-1.163.857-1.72,1.313q-.462.38-.911.773c-.269.237-.527.485-.787.733s-.508.5-.756.761-.485.519-.716.787c-.464.541-.9,1.105-1.32,1.681s-.827,1.185-1.223,1.79-.8,1.219-1.149,1.86c-.165.307-.32.619-.46.939q-.172.392-.316.8l.005,0,0,0a10.819,10.819,0,0,1,.607-1.288c.259-.467.559-.913.863-1.353h0c.151-.209.3-.416.449-.623.428-.576.873-1.136,1.323-1.694s.911-1.091,1.385-1.62c.239-.267.481-.528.731-.787s.489-.505.74-.751.517-.5.787-.74.551-.48.825-.717l.215-.181-.008,0,.02-.016.007,0h0l.009-.008h0v0l.005,0,0,0,.207-.175h0c.435-.36.865-.723,1.309-1.072Q390.673,203.281,391.415,202.745Z" transform="translate(-309.474 -160.558)" fill="#fff"/>
        <path id="Path_931" data-name="Path 931" d="M382.832,208.79l0-.008h0a3.481,3.481,0,0,1,.231-.293c.111-.132.225-.263.344-.389.227-.243.464-.473.7-.7.516-.491,1.04-.971,1.582-1.432l-.019.017c.291-.248.588-.489.885-.729s.585-.471.883-.7c.575-.445,1.16-.876,1.761-1.291s1.221-.839,1.84-1.247,1.225-.791,1.844-1.179,1.26-.792,1.892-1.187c0,0,0-.009-.007-.007q-1.01.51-2.011,1.036c-.664.345-1.33.685-1.976,1.059a20.288,20.288,0,0,0-1.823,1.183c-.291.211-.577.423-.857.644q-.45.358-.885.737c-.555.487-1.1.985-1.634,1.491s-1.035,1.02-1.536,1.548c-.244.256-.484.513-.713.781-.113.129-.221.263-.327.4-.065.085-.135.172-.191.263l0,.005Z" transform="translate(-308.691 -160.805)" fill="#fff"/>
        <path id="Path_932" data-name="Path 932" d="M398.85,200.247c-.717.084-1.431.184-2.14.311a19.287,19.287,0,0,0-2.092.475,17.483,17.483,0,0,0-2.054.732,15.139,15.139,0,0,0-1.935.995c-.619.383-1.223.792-1.822,1.209a16.588,16.588,0,0,0-1.619,1.241h0l0,0v.008h0l.012-.008c.023-.02.047-.039.067-.057h0a11.8,11.8,0,0,1,1.607-1.092c.56-.327,1.127-.649,1.711-.932l-.013.008c.405-.2.815-.38,1.232-.547.333-.136.668-.268,1.007-.392s.648-.233.976-.347c.683-.235,1.365-.461,2.06-.655s1.376-.364,2.067-.539c.715-.18,1.425-.369,2.14-.545v-.008C399.651,200.153,399.25,200.2,398.85,200.247Z" transform="translate(-307.237 -160.649)" fill="#fff"/>
        <path id="Path_933" data-name="Path 933" d="M421.078,224.6v0Z" transform="translate(-295.935 -152.48)" fill="#fff"/>
        <path id="Path_934" data-name="Path 934" d="M422.2,219.44c-.037-.348-.087-.7-.139-1.044-.051-.331-.1-.663-.168-.992s-.137-.647-.219-.967c-.183-.728-.421-1.439-.663-2.147v0c-.005-.017-.012-.036-.017-.055v0l-.007-.016v-.008c-.013-.041-.028-.083-.043-.123h0c-.015-.045-.031-.092-.048-.141-.112-.317-.229-.635-.361-.947-.123-.291-.255-.577-.392-.863s-.293-.592-.447-.885c-.073-.143-.147-.287-.227-.425-.052-.087-.108-.172-.163-.256h0c-.008-.008-.013-.024-.02-.032l-.008.007,0,0h0c.015.023.028.047.044.069h0a3.45,3.45,0,0,1,.24.455q.138.3.263.6c.164.405.315.815.456,1.229.2.617.364,1.247.513,1.879.077.328.153.657.221.988s.133.641.2.964c.125.668.229,1.34.307,2.015s.159,1.359.211,2.039c0,.025,0,.051.005.075v.008h0v.028h0c.033.511.049,1.021.041,1.535-.009.544-.036,1.089-.065,1.632-.076,1.392-.236,2.776-.424,4.155-.092.672-.188,1.344-.3,2.015s-.225,1.363-.356,2.043v0h0v.007l0,.017v.017h0l0,.025.005-.035v-.007l-.008.041c-.137.685-.293,1.367-.5,2.036-.107.351-.215.7-.335,1.047s-.256.715-.387,1.072l0,.007,0,0c.413-.932.835-1.864,1.168-2.828.231-.664.415-1.34.585-2.023q.25-.994.448-2l0,.015.005-.025a.426.426,0,0,0,.009-.044v.009c.011-.051.021-.1.031-.153s.016-.075.024-.115l0,.013.008-.036,0-.015v-.013h0l0-.013,0,.012h0c.085-.432.169-.865.239-1.3.065-.409.127-.82.187-1.231.1-.673.152-1.351.195-2.031.024-.368.047-.737.059-1.107.009-.344.015-.685.017-1.029.007-.711-.027-1.423-.085-2.134C422.264,220.115,422.236,219.776,422.2,219.44Zm-1.215-5.226Z" transform="translate(-296.536 -157.171)" fill="#fff"/>
        <path id="Path_935" data-name="Path 935" d="M421.777,228.715c.076-.347.149-.691.2-1.04.1-.628.173-1.26.236-1.894.031-.32.063-.643.095-.964.032-.3.064-.6.121-.9.016-.072.033-.145.056-.216l-.008,0a5.233,5.233,0,0,0-.169.724c-.061.312-.116.625-.177.937l0-.016c-.005.024-.009.048-.013.072h0c-.083.411-.175.819-.273,1.224-.111.451-.241.9-.369,1.343-.095.332-.192.663-.3.989s-.225.667-.348,1a19.573,19.573,0,0,1-.824,1.916l-.152.3a19.456,19.456,0,0,1-1.084,1.823c-.408.609-.836,1.205-1.272,1.795-.424.573-.856,1.144-1.295,1.707-.225.288-.451.577-.683.861s-.456.543-.692.808c-.208.231-.417.453-.631.677l0,.008h0q.68-.62,1.345-1.263c.515-.5,1-1.023,1.475-1.562s.949-1.1,1.407-1.665.907-1.138,1.305-1.743c.2-.3.384-.6.555-.907.188-.343.361-.693.524-1.051a13.873,13.873,0,0,0,.713-1.983C421.624,229.37,421.705,229.043,421.777,228.715Z" transform="translate(-298.227 -152.781)" fill="#fff"/>
        <path id="Path_936" data-name="Path 936" d="M393.544,195.083h0Z" transform="translate(-305.116 -162.325)" fill="#fff"/>
        <path id="Path_937" data-name="Path 937" d="M400.573,194.622h0Z" transform="translate(-302.773 -162.479)" fill="#fff"/>
        <path id="Path_938" data-name="Path 938" d="M364.312,191.331c-.744-.024-1.488-.019-2.234,0s-1.472.047-2.206.113-1.484.137-2.223.244c-.756.111-1.51.247-2.259.4-.732.152-1.46.328-2.184.517s-1.431.4-2.139.616-1.409.456-2.107.711c-.716.263-1.428.533-2.132.827-.673.279-1.337.585-1.984.916l.005-.005c-.559.285-1.109.58-1.654.893-.5.289-1,.6-1.485.913-.619.4-1.221.823-1.824,1.246-.623.437-1.251.869-1.872,1.309l0,.007h0c.484-.3.968-.6,1.456-.9q.966-.584,1.946-1.143c.315-.181.631-.36.952-.529s.651-.341.976-.509c1.167-.583,2.359-1.116,3.56-1.619a41.52,41.52,0,0,1,4.194-1.484c.732-.22,1.469-.424,2.21-.617.681-.179,1.363-.339,2.048-.488.625-.127,1.253-.245,1.882-.345s1.277-.189,1.918-.264q2.2-.258,4.424-.312c.743-.016,1.487-.023,2.23-.012s1.459.047,2.187.091h-.005l.448.029c.723.049,1.444.116,2.164.2q.542.066,1.08.156c.169.028.337.06.505.093.1.02.2.047.3.057.007,0,.008-.008,0-.009a2.32,2.32,0,0,1-.236-.051c-.148-.036-.3-.069-.445-.1-.308-.065-.617-.131-.929-.187-.709-.128-1.424-.241-2.138-.347-.74-.108-1.48-.2-2.224-.277S365.049,191.352,364.312,191.331Z" transform="translate(-323.635 -163.581)" fill="#fff"/>
        <path id="Path_939" data-name="Path 939" d="M349.884,192.241c-.695.2-1.387.417-2.07.66q-.532.19-1.063.392c-.347.133-.691.275-1.035.413-.656.268-1.307.559-1.939.879l-.116.059.02-.011q-.678.344-1.341.713-.688.376-1.366.771l0,.009h0c.249-.129.5-.26.748-.388h0c.111-.053.223-.109.333-.167q.966-.482,1.964-.891c.679-.28,1.372-.529,2.07-.769,1.366-.472,2.751-.9,4.146-1.288s2.807-.759,4.23-1.06l-.015,0c.541-.112,1.087-.215,1.631-.307.527-.088,1.056-.169,1.584-.236.721-.091,1.444-.181,2.169-.232.357-.027.716-.051,1.073-.065.384-.015.768-.027,1.152-.033.719-.012,1.437-.025,2.155-.048.363-.012.725-.027,1.087-.04.284-.009.567-.024.85-.027v-.008c-.352,0-.707,0-1.062,0-.731,0-1.464-.011-2.2-.04-.715-.028-1.431-.065-2.148-.064-.745,0-1.492.029-2.236.088-.725.06-1.447.145-2.167.251-1.456.212-2.9.52-4.329.875C351.307,191.855,350.593,192.041,349.884,192.241Z" transform="translate(-322.648 -163.865)" fill="#fff"/>
        <path id="Path_940" data-name="Path 940" d="M335.542,200.267q.776-.664,1.578-1.3c.581-.459,1.172-.9,1.778-1.329s1.223-.837,1.846-1.239c.605-.387,1.223-.76,1.846-1.12.307-.177.617-.353.929-.523s.625-.332.94-.495c.373-.183.744-.368,1.121-.541.4-.185.807-.365,1.214-.541.657-.288,1.323-.563,1.988-.833s1.36-.54,2.051-.783,1.376-.461,2.076-.656c.357-.1.72-.2,1.083-.289s.7-.167,1.059-.241h0c.153-.032.308-.063.464-.093a1.789,1.789,0,0,1,.292-.04c.007,0,0-.009,0-.009a2.908,2.908,0,0,0-.415.051c-.188.032-.376.064-.563.1-.716.136-1.428.291-2.136.459s-1.415.355-2.111.572-1.408.453-2.1.709-1.4.523-2.086.8-1.352.577-2.012.9c-.316.153-.629.315-.939.479-.325.173-.648.347-.967.529s-.647.376-.963.575-.619.388-.918.595-.6.416-.893.635-.571.425-.849.645c-.584.461-1.153.94-1.7,1.444s-1.089,1.011-1.616,1.534l0,.008Z" transform="translate(-324.461 -163.941)" fill="#fff"/>
        <path id="Path_941" data-name="Path 941" d="M353.75,252.731c-1.195-.5-2.376-1.037-3.535-1.619-.661-.333-1.321-.669-1.972-1.023-.344-.188-.688-.376-1.031-.567-.325-.183-.647-.373-.969-.561-.292-.171-.581-.352-.867-.536-.316-.2-.632-.409-.944-.623-.617-.42-1.221-.86-1.819-1.307q-.568-.442-1.125-.893c-.367-.3-.724-.608-1.083-.917-1.108-.96-2.175-1.97-3.2-3.014a40.492,40.492,0,0,1-2.883-3.244c-.164-.211-.327-.42-.483-.635a37.752,37.752,0,0,1-2.366-3.707c-.719-1.283-1.383-2.6-1.971-3.944l-.016-.037,0,.012c-.013-.032-.027-.064-.039-.095h0c-.133-.317-.26-.637-.375-.963-.084-.239-.155-.483-.225-.725h-.008c.057.2.1.4.163.6.08.272.164.545.255.815.192.555.389,1.108.6,1.655q.41,1.036.875,2.051c.3.651.613,1.3.951,1.927.181.341.371.676.56,1.015s.387.644.589.961c.191.3.392.6.6.889s.424.6.652.892a36.57,36.57,0,0,0,2.414,2.823c1.005,1.067,2.071,2.08,3.176,3.044.553.483,1.111.957,1.69,1.407.619.48,1.249.947,1.891,1.392a34.455,34.455,0,0,0,3.791,2.322c.651.337,1.317.651,1.987.948.7.309,1.405.6,2.119.873.668.255,1.345.485,2.022.719.715.245,1.432.479,2.159.691h0v-.007c-.537-.2-1.069-.413-1.6-.632Z" transform="translate(-326.694 -151.237)" fill="#fff"/>
        <path id="Path_942" data-name="Path 942" d="M342.977,247.9c-.3-.209-.6-.417-.9-.635-.155-.113-.311-.225-.465-.34s-.279-.211-.419-.313l-.189-.144h0c-.023-.015-.043-.031-.064-.047l-.016-.012h0l-.033-.027h0c-.884-.676-1.76-1.369-2.588-2.116-.533-.481-1.044-.988-1.544-1.505s-1.015-1.065-1.5-1.616-.98-1.124-1.461-1.692c-.456-.533-.892-1.084-1.329-1.635l-.008-.008,0-.005h0l-.016-.019,0,0-.007-.008.007.007c-.056-.071-.111-.14-.167-.213h0l-.005-.007h0l-.008-.011h0l-.005-.007v0c-.176-.227-.351-.453-.525-.684-.429-.561-.847-1.132-1.251-1.707-.205-.295-.411-.588-.6-.887-.1-.151-.2-.3-.289-.459a2.843,2.843,0,0,1-.2-.359h0l-.012-.033a0,0,0,0,0-.009,0,1.9,1.9,0,0,0,.129.273c.079.149.16.3.243.447.169.3.344.6.52.9.343.579.7,1.155,1.06,1.723.788,1.23,1.588,2.454,2.49,3.6l.007.008.011.016h0l0,.007h0v0l0,0,.013.015-.008-.007c.559.711,1.139,1.4,1.751,2.071.5.543,1.009,1.079,1.535,1.6a21.4,21.4,0,0,0,1.644,1.463c.583.467,1.185.911,1.8,1.331s1.248.819,1.892,1.2,1.276.711,1.924,1.048q1,.522,2.016,1.028h0l0-.011c-.548-.337-1.089-.684-1.63-1.033C344.173,248.714,343.57,248.315,342.977,247.9Z" transform="translate(-326.519 -149.54)" fill="#fff"/>
        <path id="Path_943" data-name="Path 943" d="M328.976,234.593h0l0,0Z" transform="translate(-326.65 -149.15)" fill="#fff"/>
        <path id="Path_944" data-name="Path 944" d="M333.584,241.359l0,.006,0,0Z" transform="translate(-325.112 -146.892)" fill="#fff"/>
        <path id="Path_945" data-name="Path 945" d="M337.328,247.24c-.171-.175-.34-.355-.5-.537-.344-.383-.675-.779-.992-1.184l.008.012c-.015-.02-.031-.039-.044-.057h0l-.02-.027-.009-.012,0,0-.007-.009v0l-.044-.059h0l-.011-.011-.005-.007-.016-.023,0,0v0h0l-.039-.049.02.025c-.433-.556-.845-1.125-1.255-1.7s-.8-1.148-1.188-1.734a36.493,36.493,0,0,1-2.208-3.779c-.331-.661-.657-1.328-.965-2q-.24-.524-.472-1.049c-.143-.327-.281-.655-.421-.981l0,0-.005-.012h0l-.009-.017v0c-.051-.123-.1-.243-.153-.364.007.016.015.033.021.051l-.02-.045,0,0a.124.124,0,0,0-.011-.024v-.005l-.008-.019c-.18-.437-.364-.877-.548-1.314l0-.009-.008-.019c-.043-.1-.087-.207-.129-.312l.012.033c-.039-.092-.076-.185-.115-.279h0c-.32-.777-.637-1.554-.94-2.335h-.007c.224.816.467,1.626.719,2.434.217.705.443,1.409.685,2.107s.5,1.393.788,2.076c.039.093.077.185.117.279v0l0,.015v.005h0l0,0h0l.005.009h0v0h0l0,.007v.005h0l.009.016c.007.021.016.041.023.061v0l0,.009,0-.005.013.027c.148.356.307.709.475,1.057.319.669.655,1.329,1.023,1.972.387.671.789,1.328,1.216,1.974a32.668,32.668,0,0,0,2.69,3.5c.476.544.961,1.08,1.475,1.584.259.251.521.5.787.737.133.119.267.24.405.352a1.386,1.386,0,0,0,.259.189h0l0-.008a.609.609,0,0,1-.077-.053A5.079,5.079,0,0,1,337.328,247.24Z" transform="translate(-327.231 -150.884)" fill="#fff"/>
        <path id="Path_946" data-name="Path 946" d="M415.14,233.306l0,0h.005c.132-.361.259-.721.384-1.084.232-.68.461-1.363.663-2.054.108-.369.211-.739.307-1.112.083-.328.165-.661.233-.995h0v-.011a.191.191,0,0,0,.007-.033v-.011h0q.09-.412.161-.829a18.43,18.43,0,0,0,.251-2.179c.02-.355.029-.709.029-1.061,0-.376,0-.753-.024-1.127v.017c-.027-.611-.079-1.219-.152-1.827-.091-.727-.195-1.451-.339-2.172-.073-.359-.156-.72-.257-1.073a4.285,4.285,0,0,0-.323-.809c0-.007-.008,0-.007,0a4.136,4.136,0,0,1,.183.467,9.24,9.24,0,0,1,.283,1.526c.061.492.093.987.125,1.482v.017c.019.54.045,1.079.045,1.62,0,.375,0,.749-.013,1.125-.011.359-.031.719-.052,1.077-.045.72-.113,1.439-.2,2.152-.045.371-.1.739-.152,1.107s-.117.725-.177,1.089c-.055.347-.119.692-.183,1.039s-.133.705-.2,1.057c-.088.436-.179.871-.28,1.3S415.252,232.876,415.14,233.306Z" transform="translate(-297.914 -155.035)" fill="#fff"/>
        <path id="Path_947" data-name="Path 947" d="M413.911,233.338c.273-.668.547-1.335.8-2.01.26-.691.507-1.387.719-2.095a14.687,14.687,0,0,0,.469-2.116,18.535,18.535,0,0,0,.189-2.192c.02-.729.005-1.457-.04-2.186,0,.013,0,.027,0,.04-.013-.255-.04-.507-.064-.76-.025-.237-.051-.476-.089-.713-.041-.253-.087-.5-.147-.752a3.227,3.227,0,0,1-.117-.5c0-.007-.009-.008-.009,0a.689.689,0,0,0,.017.127c.016.095.035.189.051.283a5.653,5.653,0,0,1,.076.653v0a15.419,15.419,0,0,1-.06,1.97c-.032.351-.068.7-.108,1.048-.036.311-.081.62-.12.931-.088.712-.2,1.422-.3,2.131s-.22,1.421-.352,2.128c.007-.021.009-.047.015-.068-.02.1-.037.2-.056.295v.008h0l0,.007,0,.012h0l0,.009,0,.013v.013h0c-.016.076-.032.152-.047.228q-.354,1.758-.823,3.5l0,.005Z" transform="translate(-298.327 -153.998)" fill="#fff"/>
        <path id="Path_948" data-name="Path 948" d="M415.5,199.9c-.6-.447-1.22-.875-1.862-1.268s-1.281-.724-1.942-1.049c-.631-.308-1.263-.613-1.9-.907-.324-.153-.653-.3-.985-.437s-.641-.267-.955-.42h0c-.141-.072-.285-.144-.428-.212h0l-.052-.027h0c-.067-.032-.133-.067-.2-.095a.245.245,0,0,0-.081-.028v.011h.009a.3.3,0,0,1,.068.027c.276.137.537.3.8.46.3.176.605.337.907.508.589.333,1.149.716,1.723,1.077.613.387,1.225.772,1.816,1.195s1.163.875,1.727,1.336,1.141.947,1.711,1.42c.531.439,1.056.879,1.574,1.33l.015.012h0l.032.028,0,0,.017.015.044.04h0c.208.185.416.373.625.559l0,0,.015.013-.005-.005.013.012,0,0,.523.465c.063.053.124.109.185.163h0l.011.009a.3.3,0,0,1,.031.027l.025.023-.011-.011.015.011,0,.007c.025.021.049.043.073.065.085.075.175.152.259.228l0,0c.015.015.031.028.047.043l-.011-.011c.061.055.125.112.189.165l.012.012.78.683q.674.594,1.352,1.179l.283.247,0,0,.185.163.053.047c.487.44.979.881,1.462,1.328q.758.7,1.5,1.428h0l.005-.005c-.125-.168-.249-.335-.376-.5-.885-1.164-1.76-2.339-2.728-3.438-.483-.551-.989-1.079-1.508-1.595-.5-.5-1.009-1-1.536-1.47-.584-.525-1.188-1.025-1.8-1.518C416.641,200.77,416.079,200.325,415.5,199.9Z" transform="translate(-300.595 -162.201)" fill="#fff"/>
        <path id="Path_949" data-name="Path 949" d="M399.866,244.413c-1.471-.115-2.943-.209-4.41-.368-.76-.081-1.52-.167-2.276-.272s-1.5-.217-2.246-.335c-.707-.111-1.414-.233-2.112-.384-.348-.073-.695-.147-1.041-.229-.37-.088-.736-.183-1.1-.277.015,0,.027.007.041.011-.623-.176-1.247-.363-1.851-.6-.3-.12-.605-.244-.9-.379-.131-.059-.261-.12-.387-.185-.093-.048-.183-.1-.279-.144-.005,0-.009.005,0,.009a.678.678,0,0,1,.087.047h0c.1.06.2.121.3.18l0,0a20.936,20.936,0,0,0,4,1.777c.329.111.66.216.993.312.357.1.719.207,1.08.3.719.176,1.44.344,2.168.476,1.495.275,3,.488,4.51.66,1.458.168,2.922.253,4.388.277.207.005.412.008.62.008q.958,0,1.915-.061c.715-.047,1.425-.111,2.138-.171.748-.064,1.494-.131,2.238-.215v-.011q-1.776-.046-3.546-.131C402.75,244.632,401.306,244.525,399.866,244.413Z" transform="translate(-308.534 -146.929)" fill="#fff"/>
        <path id="Path_950" data-name="Path 950" d="M396.535,244.277l-.089,0h-.012Z" transform="translate(-304.153 -145.92)" fill="#fff"/>
        <path id="Path_951" data-name="Path 951" d="M396.184,170.61a4.039,4.039,0,0,1,.107.78c.024.281.035.565.044.847v.017c0,.015,0,.031,0,.045h0c.021.691.029,1.383.051,2.078v0c0,.095.005.191.008.287v.061a.1.1,0,0,0,0,.028l0-.011,0,.012v0l.008.316v.007c0,.123.005.248.011.369v.029h0c0,.135.005.273.009.408v.02l.008.215,0-.049c0,.052,0,.105,0,.157v.011c0,.015,0,.031,0,.045h0c.012.38.027.757.04,1.136.013.34.023.681.039,1.02.005.151.011.3.017.451.008.309.02.616.033.925v.04q.008.236.02.472c.012.388.035.779.052,1.168q.028.632.06,1.267c.036.728.071,1.459.113,2.19.029.571.059,1.142.095,1.712.231-.02.461-.039.693-.053q-.036-.48-.069-.96c-.053-.752-.116-1.5-.172-2.255-.107-1.483-.195-2.968-.3-4.451-.105-1.45-.249-2.9-.392-4.345-.072-.725-.136-1.452-.215-2.179-.037-.364-.076-.727-.127-1.091a3.815,3.815,0,0,0-.163-.811c0-.005-.011,0-.009.005a.847.847,0,0,1,.029.088Z" transform="translate(-304.246 -170.517)" fill="#fff"/>
        <path id="Path_952" data-name="Path 952" d="M401.718,184.814l.025,0c.2-.416.4-.833.589-1.253q.456-1.01.856-2.043c.257-.676.5-1.357.739-2.04.128-.368.259-.735.384-1.1.117-.341.228-.683.343-1.025.212-.637.389-1.287.608-1.922l-.007,0c-.191.448-.365.9-.548,1.353q-.3.758-.627,1.507c-.592,1.365-1.2,2.72-1.822,4.074-.367.8-.736,1.6-1.116,2.388.092,0,.181.009.272.021Z" transform="translate(-302.582 -168.879)" fill="#fff"/>
        <path id="Path_953" data-name="Path 953" d="M404.176,185.012a2.577,2.577,0,0,1,.429.188l.157.085c.143-.16.281-.321.421-.484.957-1.111,1.864-2.264,2.756-3.43.448-.585.883-1.179,1.322-1.771.212-.289.417-.584.627-.875.1-.147.208-.289.315-.435l.14-.195c.027-.036.055-.072.079-.112l-.008,0c-.036.041-.067.087-.1.128l-.167.2-.344.405q-.378.444-.76.88c-.984,1.116-1.982,2.216-2.978,3.32l-1.893,2.091Z" transform="translate(-301.572 -168.028)" fill="#fff"/>
        <path id="Path_954" data-name="Path 954" d="M407.381,186.74c.127.116.251.232.375.349q1.086-.576,2.17-1.157,2.006-1.08,3.994-2.2.956-.54,1.915-1.077.48-.266.965-.528c.156-.084.311-.168.467-.251.135-.069.275-.132.409-.205l0-.005c-.131.061-.267.115-.4.176-.155.071-.308.143-.46.213-.3.141-.595.283-.891.427l-1.915.928q-2.024.986-4.03,2.014-1,.512-2,1.02Z" transform="translate(-300.502 -166.8)" fill="#fff"/>
        <path id="Path_955" data-name="Path 955" d="M411.788,189.459c.375-.081.748-.16,1.125-.229.179-.033.359-.065.54-.1a3.1,3.1,0,0,0,.329-.061v-.009a4.083,4.083,0,0,1-.495.053c-.223.019-.447.037-.671.059-.48.04-.957.1-1.437.155-.707.081-1.414.175-2.119.269l-.844.115c-.135.184-.273.369-.411.553.591-.108,1.182-.224,1.77-.341Q410.683,189.7,411.788,189.459Z" transform="translate(-300.361 -164.333)" fill="#fff"/>
        <path id="Path_956" data-name="Path 956" d="M409.39,192.9c.177,0,.356-.009.535-.017.483-.008.961-.023,1.443-.005.26.012.517.025.775.053a6.078,6.078,0,0,1,.7.123v0a3.443,3.443,0,0,1,.389.133c.051.025.1.048.151.075a.452.452,0,0,0,.052.024h0a0,0,0,0,0,0-.008l-.027-.013h0a3.564,3.564,0,0,0-.552-.277c-.125-.045-.249-.091-.379-.125s-.28-.073-.42-.108h-.005l-.016-.005a10.92,10.92,0,0,0-1.516-.215c-.5-.043-1-.059-1.493-.071-.709-.016-1.419-.013-2.128-.02-.267,0-.533-.005-.8-.011-.081.125-.163.247-.244.369-.053.081-.108.161-.161.243l.564-.015h-.017c1.051-.032,2.1-.079,3.151-.128Z" transform="translate(-301.063 -163.209)" fill="#fff"/>
        <path id="Path_957" data-name="Path 957" d="M389.57,193.794c-.5.179-1,.357-1.5.532q-1.072.37-2.152.727-.512.17-1.021.344c-.159.055-.317.109-.477.161-.064.023-.131.044-.193.068-.008,0-.039.009-.039.021l.007,0h0a.485.485,0,0,1,.1-.036h0c.423-.123.851-.232,1.276-.341.719-.184,1.44-.36,2.158-.555q1.04-.28,2.071-.588h0l.009,0Z" transform="translate(-308.237 -162.755)" fill="#fff"/>
        <path id="Path_958" data-name="Path 958" d="M381.056,192.171c.137.024.277.035.415.047.279.021.556.033.836.044.607.021,1.215.045,1.823.068,1.465.059,2.928.164,4.4.215.312.012.625.02.937.025-.024-.033-.048-.064-.073-.1-.117-.16-.239-.321-.359-.48-.272,0-.543.011-.813.016-1.487.035-2.972.067-4.457.116h.023l-.8.025h0c-.361.011-.724.021-1.088.025a4.809,4.809,0,0,1-1.017-.055h0c-.023-.008-.047-.012-.068-.021l0,0h0v.008c.012.019.067.025.085.029C380.943,192.15,381,192.161,381.056,192.171Z" transform="translate(-309.365 -163.355)" fill="#fff"/>
        <path id="Path_959" data-name="Path 959" d="M381.706,184.894l.187.1.405.225h0c.017.009.033.02.051.028h0c.153.085.309.171.463.253l-.011,0,.036.019h0l.008,0h0c.079.041.156.085.236.128q.686.384,1.372.775c.439.252.879.505,1.323.748.089.051.18.1.269.149q.628.348,1.264.685c.076-.095.155-.187.236-.28.036-.04.071-.083.107-.123-.707-.316-1.416-.629-2.119-.951-.661-.3-1.319-.609-1.978-.917l-.972-.447c-.161-.075-.321-.148-.481-.224s-.292-.135-.433-.213h0a.482.482,0,0,1-.044-.027v-.008l-.008,0,0,.007c0,.007.008.009.013.013C381.65,184.859,381.679,184.877,381.706,184.894Z" transform="translate(-309.096 -165.748)" fill="#fff"/>
        <path id="Path_960" data-name="Path 960" d="M385.763,181.14c.383.332.771.66,1.163.98.587.483,1.18.957,1.762,1.445.565.473,1.121.961,1.652,1.473l-.052-.051.127.121.367-.421c-.091-.077-.183-.153-.275-.231-.3-.244-.612-.483-.924-.717-.295-.221-.6-.432-.9-.644s-.6-.409-.9-.612-.616-.42-.92-.635-.587-.417-.873-.635a9.585,9.585,0,0,1-.828-.679,2.074,2.074,0,0,1-.261-.309h0l-.007-.012-.008-.011-.007.005a2.077,2.077,0,0,0,.348.436C385.4,180.817,385.581,180.98,385.763,181.14Z" transform="translate(-308.005 -167.287)" fill="#fff"/>
        <path id="Path_961" data-name="Path 961" d="M391.018,177.032q.792,2.086,1.558,4.18c.252.688.5,1.379.753,2.067.26.708.527,1.411.785,2.12.033.093.068.188.1.284.109-.025.219-.039.328-.055l.245-.033c-.112-.283-.227-.563-.343-.844-.269-.653-.543-1.305-.812-1.959q-.858-2.078-1.746-4.143-.866-1.994-1.763-3.97l-.008,0c.144.388.295.772.444,1.157S390.867,176.636,391.018,177.032Z" transform="translate(-306.259 -169.129)" fill="#fff"/>
      </g>
      <text id="CuyInvitation" transform="translate(140 132.717)" fill="#fff" font-size="19" font-family="SegoePrint, Segoe Print"><tspan x="0" y="0">CuyInvitation</tspan></text>
    </g>
    <g id="Group_201" data-name="Group 201" transform="translate(0.087)">
      <g id="Group_199" data-name="Group 199" transform="translate(1108.058 3742.937) rotate(-13)">
        <path id="Path_962" data-name="Path 962" d="M77.673,331.994c22.833-7.4,48.819-5.783,72.778-.947,31.224,6.3,61.734,17.444,93.568,18.584a152.093,152.093,0,0,0,100.4-33.671" transform="translate(0 12.509)" fill="none" stroke="#fff" stroke-miterlimit="10" stroke-width="2"/>
        <path id="Path_963" data-name="Path 963" d="M95.979,337.454c3.607-10.491,13.041-18.148,23.339-22.273s21.519-5.216,32.563-6.264c-2.625,10.382-11.381,18.369-21.207,22.627s-20.7,5.322-31.39,6.026" transform="translate(27.073 2.091)" fill="none" stroke="#fff" stroke-miterlimit="10" stroke-width="2"/>
        <path id="Path_964" data-name="Path 964" d="M99.612,320.989q2.83,4.12,5.657,8.242c4.826,7.038,9.859,14.273,17.09,18.807a49.156,49.156,0,0,0,13.032,5.332,113.288,113.288,0,0,0,18.785,3.552A52.9,52.9,0,0,0,131,330.6c-3.825-2.127-8.022-3.857-10.947-7.112" transform="translate(32.445 19.944)" fill="none" stroke="#fff" stroke-miterlimit="10" stroke-width="2"/>
        <path id="Path_965" data-name="Path 965" d="M125.593,343.891c5.471-11.624,16.517-19.977,28.6-24.323s25.191-5.055,38.024-4.492c.144,3.352-2.724,5.979-5.382,8.027-8.574,6.6-17.689,12.655-27.746,16.646s-21.16,5.838-31.8,3.884" transform="translate(70.869 10.954)" fill="none" stroke="#fff" stroke-miterlimit="10" stroke-width="2"/>
        <path id="Path_966" data-name="Path 966" d="M133.771,328.359c5.379,11.182,16.564,18.795,28.49,22.216s24.608,3.111,36.948,1.815c-.362-2.838-2.784-4.913-5.114-6.572a83.694,83.694,0,0,0-40.979-15.106" transform="translate(82.963 30.844)" fill="none" stroke="#fff" stroke-miterlimit="10" stroke-width="2"/>
        <path id="Path_967" data-name="Path 967" d="M164.288,356.166c-1.52-10.461,4.142-20.652,10.932-28.755,6.616-7.9,14.762-14.878,24.529-18.16-2.325,9.385-4.856,19.172-11.274,26.4-3.282,3.7-7.414,6.517-11.5,9.3q-7.214,4.908-14.427,9.819" transform="translate(125.521 2.584)" fill="none" stroke="#fff" stroke-miterlimit="10" stroke-width="2"/>
        <path id="Path_968" data-name="Path 968" d="M162.523,333.713c4.836,4.856,11.943,6.621,18.748,7.439a95.441,95.441,0,0,0,54.479-9.735c-2.419-2.662-6.026-3.872-9.514-4.755a86.17,86.17,0,0,0-55.949,4.9" transform="translate(125.484 24.538)" fill="none" stroke="#fff" stroke-miterlimit="10" stroke-width="2"/>
        <path id="Path_969" data-name="Path 969" d="M172.753,346.4c3.7-1.356,5.825-5.112,7.955-8.426A68.09,68.09,0,0,1,230.343,307.5" transform="translate(140.613 0)" fill="none" stroke="#fff" stroke-miterlimit="10" stroke-width="2"/>
        <path id="Path_970" data-name="Path 970" d="M226.527,307.8c-2.357,11-10.354,20.119-19.762,26.281s-20.218,9.764-30.892,13.3" transform="translate(145.228 0.432)" fill="none" stroke="#fff" stroke-miterlimit="10" stroke-width="2"/>
        <path id="Path_971" data-name="Path 971" d="M187.208,317.791a78.249,78.249,0,0,1,8.235-5.627" transform="translate(161.991 6.893)" fill="none" stroke="#fff" stroke-miterlimit="10" stroke-width="2"/>
        <path id="Path_972" data-name="Path 972" d="M164.028,327.386a76.878,76.878,0,0,0,32.062.129" transform="translate(127.71 29.405)" fill="none" stroke="#fff" stroke-miterlimit="10" stroke-width="2"/>
        <path id="Path_973" data-name="Path 973" d="M164.913,339.372a88.329,88.329,0,0,1,21-23.314" transform="translate(129.019 12.652)" fill="none" stroke="#fff" stroke-miterlimit="10" stroke-width="2"/>
        <path id="Path_974" data-name="Path 974" d="M136.12,329.107a14.291,14.291,0,0,1,4.606,1.2c4.762,1.948,9.09,4.8,13.631,7.214s9.457,4.445,14.6,4.529" transform="translate(86.437 31.95)" fill="none" stroke="#fff" stroke-miterlimit="10" stroke-width="2"/>
        <path id="Path_975" data-name="Path 975" d="M126.619,334.645c10.652-4.6,19.841-13.141,31.346-14.655" transform="translate(72.386 18.467)" fill="none" stroke="#fff" stroke-miterlimit="10" stroke-width="2"/>
        <path id="Path_976" data-name="Path 976" d="M102.918,322.254c2.219.226,4.157,1.539,5.962,2.851a158.23,158.23,0,0,1,19.591,16.859" transform="translate(37.335 21.815)" fill="none" stroke="#fff" stroke-miterlimit="10" stroke-width="2"/>
        <path id="Path_977" data-name="Path 977" d="M97.48,332.412a105.885,105.885,0,0,1,31.616-19.05" transform="translate(29.292 8.665)" fill="none" stroke="#fff" stroke-miterlimit="10" stroke-width="2"/>
        <path id="Path_978" data-name="Path 978" d="M100.175,326.676c9.745.486,19.633.959,29.147-1.207,8.954-2.04,17.216-6.339,25.922-9.269" transform="translate(33.278 12.862)" fill="none" stroke="#fff" stroke-miterlimit="10" stroke-width="2"/>
        <path id="Path_979" data-name="Path 979" d="M122.715,315.937" transform="translate(66.612 12.473)" fill="none" stroke="#fff" stroke-miterlimit="10" stroke-width="2"/>
        <path id="Path_980" data-name="Path 980" d="M149,330q15.372,2.443,30.934,3.361" transform="translate(105.485 33.265)" fill="none" stroke="#fff" stroke-miterlimit="10" stroke-width="2"/>
        <path id="Path_981" data-name="Path 981" d="M114.357,324.849l46,35.247" transform="translate(54.252 25.653)" fill="none" stroke="#fff" stroke-miterlimit="10" stroke-width="2"/>
        <path id="Path_982" data-name="Path 982" d="M133.158,339.265h.387" transform="translate(82.056 46.973)" fill="none" stroke="#fff" stroke-miterlimit="10" stroke-width="2"/>
      </g>
      <g id="Group_200" data-name="Group 200" transform="translate(649.457 4101.803) rotate(-167)">
        <path id="Path_962-2" data-name="Path 962" d="M0,17.73c22.833,7.4,48.819,5.783,72.778.947C104,12.376,134.512,1.233,166.346.093a152.093,152.093,0,0,1,100.4,33.671" transform="translate(0 24.004)" fill="none" stroke="#fff" stroke-miterlimit="10" stroke-width="2"/>
        <path id="Path_963-2" data-name="Path 963" d="M0,.117C3.607,10.607,13.041,18.265,23.339,22.389S44.858,27.605,55.9,28.654C53.276,18.272,44.521,10.285,34.695,6.026S13.991.7,3.3,0" transform="translate(45.379 46.576)" fill="none" stroke="#fff" stroke-miterlimit="10" stroke-width="2"/>
        <path id="Path_964-2" data-name="Path 964" d="M0,35.934q2.83-4.12,5.657-8.242c4.826-7.038,9.859-14.273,17.09-18.807A49.155,49.155,0,0,1,35.778,3.552,113.288,113.288,0,0,1,54.563,0,52.9,52.9,0,0,1,31.388,26.326c-3.825,2.127-8.022,3.857-10.947,7.112" transform="translate(54.384 9.37)" fill="none" stroke="#fff" stroke-miterlimit="10" stroke-width="2"/>
        <path id="Path_965-2" data-name="Path 965" d="M0,.526C5.471,12.149,16.517,20.5,28.6,24.849S53.795,29.9,66.628,29.34c.144-3.352-2.724-5.979-5.382-8.027C52.672,14.71,43.557,8.659,33.5,4.668S12.34-1.17,1.7.783" transform="translate(118.789 30.867)" fill="none" stroke="#fff" stroke-miterlimit="10" stroke-width="2"/>
        <path id="Path_966-2" data-name="Path 966" d="M0,24.939C5.379,13.757,16.564,6.144,28.49,2.724S53.1-.387,65.438.909c-.362,2.838-2.784,4.913-5.114,6.572A83.694,83.694,0,0,1,19.345,22.587" transform="translate(139.061 2.096)" fill="none" stroke="#fff" stroke-miterlimit="10" stroke-width="2"/>
        <path id="Path_967-2" data-name="Path 967" d="M1.74,0C.221,10.461,5.882,20.652,12.672,28.755c6.616,7.9,14.762,14.878,24.529,18.16-2.325-9.385-4.856-19.172-11.274-26.4-3.282-3.7-7.414-6.517-11.5-9.3Q7.214,6.309,0,1.4" transform="translate(210.396 27.488)" fill="none" stroke="#fff" stroke-miterlimit="10" stroke-width="2"/>
        <path id="Path_968-2" data-name="Path 968" d="M0,8.1C4.836,3.246,11.943,1.481,18.748.663A95.441,95.441,0,0,1,73.227,10.4c-2.419,2.662-6.026,3.872-9.514,4.754a86.17,86.17,0,0,1-55.949-4.9" transform="translate(210.334 19.884)" fill="none" stroke="#fff" stroke-miterlimit="10" stroke-width="2"/>
        <path id="Path_969-2" data-name="Path 969" d="M0,0C3.7,1.356,5.825,5.112,7.955,8.426A68.09,68.09,0,0,0,57.59,38.9" transform="translate(235.693 39.833)" fill="none" stroke="#fff" stroke-miterlimit="10" stroke-width="2"/>
        <path id="Path_970-2" data-name="Path 970" d="M50.654,39.583C48.3,28.587,40.3,19.464,30.892,13.3S10.674,3.537,0,0" transform="translate(243.428 38.428)" fill="none" stroke="#fff" stroke-miterlimit="10" stroke-width="2"/>
        <path id="Path_971-2" data-name="Path 971" d="M0,0A78.25,78.25,0,0,0,8.235,5.627" transform="translate(271.526 61.553)" fill="none" stroke="#fff" stroke-miterlimit="10" stroke-width="2"/>
        <path id="Path_972-2" data-name="Path 972" d="M0,1.755a76.879,76.879,0,0,1,32.062-.129" transform="translate(214.065 27.692)" fill="none" stroke="#fff" stroke-miterlimit="10" stroke-width="2"/>
        <path id="Path_973-2" data-name="Path 973" d="M0,0A88.329,88.329,0,0,0,21,23.314" transform="translate(216.259 34.214)" fill="none" stroke="#fff" stroke-miterlimit="10" stroke-width="2"/>
        <path id="Path_974-2" data-name="Path 974" d="M0,12.947a14.29,14.29,0,0,0,4.606-1.2c4.762-1.948,9.09-4.8,13.631-7.214S27.694.084,32.84,0" transform="translate(144.884 12.233)" fill="none" stroke="#fff" stroke-miterlimit="10" stroke-width="2"/>
        <path id="Path_975-2" data-name="Path 975" d="M0,0C10.652,4.6,19.841,13.141,31.346,14.655" transform="translate(121.332 33.126)" fill="none" stroke="#fff" stroke-miterlimit="10" stroke-width="2"/>
        <path id="Path_976-2" data-name="Path 976" d="M0,19.71c2.219-.226,4.157-1.539,5.962-2.851A158.225,158.225,0,0,0,25.552,0" transform="translate(62.58 22.459)" fill="none" stroke="#fff" stroke-miterlimit="10" stroke-width="2"/>
        <path id="Path_977-2" data-name="Path 977" d="M0,0A105.885,105.885,0,0,0,31.616,19.05" transform="translate(49.1 45.161)" fill="none" stroke="#fff" stroke-miterlimit="10" stroke-width="2"/>
        <path id="Path_978-2" data-name="Path 978" d="M0,.411C9.745-.075,19.633-.548,29.147,1.618c8.954,2.04,17.216,6.339,25.922,9.269" transform="translate(55.78 46.289)" fill="none" stroke="#fff" stroke-miterlimit="10" stroke-width="2"/>
        <path id="Path_979-2" data-name="Path 979" d="M0,0" transform="translate(111.654 57.828)" fill="none" stroke="#fff" stroke-miterlimit="10" stroke-width="2"/>
        <path id="Path_980-2" data-name="Path 980" d="M0,3.361Q15.372.918,30.934,0" transform="translate(176.812 19.616)" fill="none" stroke="#fff" stroke-miterlimit="10" stroke-width="2"/>
        <path id="Path_981-2" data-name="Path 981" d="M0,35.247,46,0" transform="translate(90.936 0.488)" fill="none" stroke="#fff" stroke-miterlimit="10" stroke-width="2"/>
        <path id="Path_982-2" data-name="Path 982" d="M0,0H.387" transform="translate(137.542 0)" fill="none" stroke="#fff" stroke-miterlimit="10" stroke-width="2"/>
      </g>
    </g>
  </g>
</svg>
