<svg xmlns="http://www.w3.org/2000/svg" width="119.277" height="32.759" viewBox="0 0 119.277 32.759">
  <g id="Group_186" data-name="Group 186" transform="translate(-77.519 -307.006)">
    <path id="Path_962" data-name="Path 962" d="M77.673,322.429c9.211-2.985,19.694-2.333,29.359-.382,12.6,2.542,24.9,7.037,37.746,7.5a61.355,61.355,0,0,0,40.5-13.583" fill="none" stroke="#fdb64b" stroke-miterlimit="10" stroke-width="1"/>
    <path id="Path_963" data-name="Path 963" d="M95.979,320.429c1.455-4.232,5.261-7.321,9.415-8.985s8.681-2.1,13.136-2.527c-1.059,4.188-4.591,7.41-8.555,9.128s-8.352,2.147-12.663,2.431" fill="none" stroke="#fdb64b" stroke-miterlimit="10" stroke-width="1"/>
    <path id="Path_964" data-name="Path 964" d="M99.612,320.989l2.282,3.325c1.947,2.839,3.977,5.758,6.894,7.587a19.83,19.83,0,0,0,5.257,2.151,45.7,45.7,0,0,0,7.578,1.433,21.339,21.339,0,0,0-9.349-10.62A16.065,16.065,0,0,1,107.858,322" fill="none" stroke="#fdb64b" stroke-miterlimit="10" stroke-width="1"/>
    <path id="Path_965" data-name="Path 965" d="M125.593,326.6c2.207-4.689,6.663-8.059,11.539-9.812s10.162-2.039,15.339-1.812c.058,1.352-1.1,2.412-2.171,3.238a47.1,47.1,0,0,1-11.193,6.715,23.576,23.576,0,0,1-12.829,1.567" fill="none" stroke="#fdb64b" stroke-miterlimit="10" stroke-width="1"/>
    <path id="Path_966" data-name="Path 966" d="M133.771,328.359c2.17,4.511,6.682,7.582,11.493,8.962s9.927,1.255,14.9.732a4.263,4.263,0,0,0-2.063-2.651,33.763,33.763,0,0,0-16.531-6.094" fill="none" stroke="#fdb64b" stroke-miterlimit="10" stroke-width="1"/>
    <path id="Path_967" data-name="Path 967" d="M163.25,328.176c-.613-4.22,1.671-8.331,4.41-11.6a22.851,22.851,0,0,1,9.895-7.326c-.938,3.786-1.959,7.734-4.548,10.65a24.271,24.271,0,0,1-4.639,3.751l-5.82,3.961" fill="none" stroke="#fdb64b" stroke-miterlimit="10" stroke-width="1"/>
    <path id="Path_968" data-name="Path 968" d="M162.523,327.975c1.951,1.959,4.818,2.671,7.563,3a38.5,38.5,0,0,0,21.977-3.927,7.5,7.5,0,0,0-3.838-1.918,34.761,34.761,0,0,0-22.57,1.976" fill="none" stroke="#fdb64b" stroke-miterlimit="10" stroke-width="1"/>
    <path id="Path_969" data-name="Path 969" d="M172.753,323.2c1.491-.547,2.35-2.062,3.209-3.4A27.468,27.468,0,0,1,195.985,307.5" fill="none" stroke="#fdb64b" stroke-miterlimit="10" stroke-width="1"/>
    <path id="Path_970" data-name="Path 970" d="M196.307,307.8c-.951,4.436-4.177,8.116-7.972,10.6s-8.156,3.939-12.462,5.366" fill="none" stroke="#fdb64b" stroke-miterlimit="10" stroke-width="1"/>
    <path id="Path_971" data-name="Path 971" d="M187.208,314.434a31.565,31.565,0,0,1,3.322-2.27" fill="none" stroke="#fdb64b" stroke-miterlimit="10" stroke-width="1"/>
    <path id="Path_972" data-name="Path 972" d="M164.028,327.386a31.013,31.013,0,0,0,12.934.052" fill="none" stroke="#fdb64b" stroke-miterlimit="10" stroke-width="1"/>
    <path id="Path_973" data-name="Path 973" d="M164.913,325.463a35.633,35.633,0,0,1,8.473-9.4" fill="none" stroke="#fdb64b" stroke-miterlimit="10" stroke-width="1"/>
    <path id="Path_974" data-name="Path 974" d="M136.12,329.107a5.765,5.765,0,0,1,1.858.486,61.876,61.876,0,0,1,5.5,2.91,13.228,13.228,0,0,0,5.891,1.827" fill="none" stroke="#fdb64b" stroke-miterlimit="10" stroke-width="1"/>
    <path id="Path_975" data-name="Path 975" d="M126.619,325.9c4.3-1.856,8-5.3,12.645-5.912" fill="none" stroke="#fdb64b" stroke-miterlimit="10" stroke-width="1"/>
    <path id="Path_976" data-name="Path 976" d="M102.918,322.254a5.157,5.157,0,0,1,2.4,1.15,63.83,63.83,0,0,1,7.9,6.8" fill="none" stroke="#fdb64b" stroke-miterlimit="10" stroke-width="1"/>
    <path id="Path_977" data-name="Path 977" d="M97.48,321.047a42.715,42.715,0,0,1,12.754-7.685" fill="none" stroke="#fdb64b" stroke-miterlimit="10" stroke-width="1"/>
    <path id="Path_978" data-name="Path 978" d="M100.175,320.426c3.931.2,7.92.387,11.758-.487,3.612-.823,6.945-2.557,10.457-3.739" fill="none" stroke="#fdb64b" stroke-miterlimit="10" stroke-width="1"/>
    <path id="Path_979" data-name="Path 979" d="M122.715,315.937" fill="none" stroke="#fdb64b" stroke-miterlimit="10" stroke-width="1"/>
    <path id="Path_980" data-name="Path 980" d="M149,330q6.2.986,12.479,1.356" fill="none" stroke="#fdb64b" stroke-miterlimit="10" stroke-width="1"/>
    <path id="Path_981" data-name="Path 981" d="M114.357,324.849l18.558,14.219" fill="none" stroke="#fdb64b" stroke-miterlimit="10" stroke-width="1"/>
    <path id="Path_982" data-name="Path 982" d="M133.158,339.265h.156" fill="none" stroke="#fdb64b" stroke-miterlimit="10" stroke-width="1"/>
  </g>
</svg>
