<svg xmlns="http://www.w3.org/2000/svg" width="221.35" height="222.35" viewBox="0 0 221.35 222.35">
  <g id="Group_204" data-name="Group 204" transform="translate(-140 -10)">
    <g id="Group_162" data-name="Group 162" transform="translate(142.193 10)">
      <path id="Path_924" data-name="Path 924" d="M543.262,265.936a61.471,61.471,0,0,0-.562-7.113,56.448,56.448,0,0,0-1.242-6.336c-.28-1.067-.58-2.122-.91-3.172a35.7,35.7,0,0,0-1.226-3.382c-.423-.973-.871-1.935-1.371-2.87-.539-1.005-1.121-1.992-1.722-2.963-1.255-2.031-2.59-4.018-4.034-5.922-.637-.844-1.283-1.681-1.969-2.476-.639-.739-1.294-1.453-1.965-2.158-.685-.721-1.378-1.433-2.1-2.119-.687-.65-1.385-1.28-2.1-1.9l.014.007c-.077-.068-.155-.134-.232-.2l-.039-.039q-1.146-.993-2.324-1.938a60.064,60.064,0,0,0-4.942-3.616,30.1,30.1,0,0,0-5.824-2.9c-.912-.341-1.847-.607-2.779-.891-1.192-.516-2.4-.987-3.641-1.385a50.257,50.257,0,0,0-6.756-1.64c-.232-.041-.466-.073-.7-.111.316-.462.639-.914.919-1.4.18-.3.346-.614.523-.921.159-.266.325-.532.5-.794.018-.027.036-.057.057-.084v0l0,0,0,0,.007-.009h0l0,0,.009-.011v0l.021-.036q.276-.406.553-.814l-.021.025.061-.086,0,0v0l0-.009,0,0v0l0,0c.171-.257.33-.518.493-.782.182-.3.375-.589.566-.878.13-.2.252-.391.371-.591l.084-.03a.007.007,0,1,0,0-.014l-.066.016.032-.055a.576.576,0,0,0,.218-.186.549.549,0,0,0,.086-.38c.009-.023.021-.039.03-.064a.142.142,0,0,0,0-.214.144.144,0,0,0-.146-.036h-.007a.955.955,0,0,0-.346-.259c.312-.389.621-.782.93-1.176.7-.878,1.38-1.765,2.065-2.649q1-1.289,1.994-2.592c.339-.45.671-.9.989-1.367s.623-.93.939-1.389c.33-.475.641-.957.948-1.446a7.068,7.068,0,0,0,.389-.719.654.654,0,0,0,.075-.493.639.639,0,0,0-.139-.557c-.046-.039-.086-.077-.132-.116-.091-.082-.186-.168-.284-.248-.168-.139-.343-.268-.509-.409-.234-.2-.464-.4-.7-.585-.341-.268-.678-.541-1.019-.8-.416-.323-.83-.655-1.242-.992-1.5-1.214-2.986-2.442-4.537-3.6-.782-.58-1.571-1.142-2.329-1.758-.282-.232-.553-.484-.844-.7a1.892,1.892,0,0,0-.3-.2,1.517,1.517,0,0,0-.362-.157.759.759,0,0,0-.516.016l-.086,0c-.059,0-.116,0-.173,0-.1,0-.2,0-.307,0-.286.014-.573.032-.86.05l.034,0c-.842.048-1.683.023-2.527.011-.532-.007-1.064,0-1.594,0-.564,0-1.126,0-1.69,0-1.212,0-2.427.043-3.639.077-1.228.034-2.451.059-3.679.091-1.21.032-2.42.068-3.63.13-1.262.059-2.522.166-3.777.3-1.187.125-2.365.277-3.543.455-.564.082-1.128.161-1.692.246-.262.039-.518.07-.775.125a1.762,1.762,0,0,0-.5.164.59.59,0,0,0-.278.039,1.3,1.3,0,0,0-.3.2c-.057.052-.116.1-.168.157a2.644,2.644,0,0,1-.257.246c-.282.248-.562.5-.835.757-.359.343-.712.691-1.073,1.035-.4.389-.805.778-1.2,1.169-.83.837-1.635,1.7-2.44,2.554-.421.45-.839.905-1.244,1.369-.387.437-.762.891-1.133,1.344s-.725.905-1.092,1.358c-.177.214-.355.43-.537.639-.086.1-.171.2-.255.3a1.114,1.114,0,0,0-.084.1c-.261.237.027.694.175.935.277.446.569.878.873,1.3.273.384.553.762.821,1.146l.787,1.148c.332.48.657.966.989,1.444s.662.946.994,1.419c.3.439.623.871.953,1.287.289.364.584.723.864,1.089.2.264.4.532.61.791.159.2.314.393.462.6l.328.455-.052.048a.493.493,0,0,0-.125.252l-.013-.007a.2.2,0,0,0-.077-.041.149.149,0,0,0-.1.273,1.561,1.561,0,0,0,.118.207c.091.125.191.246.286.362.2.241.4.489.6.732.744.882,1.505,1.746,2.231,2.64.348.428.7.86,1.053,1.283q.488.577.989,1.135a41.4,41.4,0,0,0-4.769,1.831c-.991.455-1.953.971-2.895,1.517s-1.906,1.119-2.822,1.735q-1.5,1-2.968,2.056c-.878.63-1.735,1.3-2.579,1.974-1.771,1.412-3.466,2.909-5.112,4.469-.985.935-1.931,1.906-2.85,2.9-.325-.45-.65-.9-.985-1.344-.719-.948-1.446-1.894-2.224-2.795-.719-.83-1.458-1.637-2.213-2.431-.773-.814-1.556-1.619-2.365-2.392s-1.66-1.533-2.508-2.276l.039.034c-.046-.043-.1-.084-.143-.125l-.014-.016,0,.007q-1.31-1.136-2.652-2.217a68.34,68.34,0,0,0-5.576-4.077,33.82,33.82,0,0,0-6.568-3.268c-1.033-.384-2.088-.689-3.134-1.005-1.348-.584-2.717-1.117-4.109-1.562a56.8,56.8,0,0,0-7.621-1.851,60.958,60.958,0,0,0-7.527-.823,69.588,69.588,0,0,0-7.7.1q-3.712.235-7.389.755a56.808,56.808,0,0,0-7.079,1.408,46.038,46.038,0,0,0-7.138,2.581c-1.116.512-2.2,1.092-3.268,1.71s-2.147,1.264-3.181,1.958q-1.7,1.126-3.348,2.315c-.992.714-1.956,1.465-2.909,2.229-2,1.594-3.911,3.282-5.765,5.042a68.96,68.96,0,0,0-5.556,5.944c-.8.953-1.587,1.919-2.326,2.92-.719.969-1.392,1.969-2.044,2.988a75.13,75.13,0,0,0-3.934,7,65.71,65.71,0,0,0-3.02,6.861,57.823,57.823,0,0,0-2.1,7.113,72.219,72.219,0,0,0-1.349,7.589,48.127,48.127,0,0,0-.246,7.616,59.345,59.345,0,0,0,.819,7.687,72.017,72.017,0,0,0,1.619,7.2,50.119,50.119,0,0,0,2.7,7.345,59.287,59.287,0,0,0,3.272,6.274,68.066,68.066,0,0,0,4.241,6.254,41.662,41.662,0,0,0,4.735,5.192c.967.887,1.981,1.719,3.015,2.524.944.734,1.908,1.444,2.9,2.117,1.035.7,2.1,1.36,3.2,1.962,1.176.648,2.39,1.235,3.614,1.79,1.144.525,2.294,1.032,3.466,1.494,1.148.448,2.317.837,3.493,1.192,1.2.364,2.42.664,3.629.987,1.114.3,2.233.591,3.357.844q3.616.812,7.293,1.3a71.87,71.87,0,0,0,7.5.584q1.139.034,2.274.034c1.756,0,3.511-.061,5.262-.173,1.189-.077,2.379-.159,3.563-.277,1.249-.121,2.495-.284,3.736-.471,2.276-.341,4.544-.757,6.777-1.314a78.629,78.629,0,0,0,7.691-2.4q3.449-1.252,6.763-2.831c1.926-.912,3.825-1.888,5.66-2.97a52.862,52.862,0,0,0,5.824-4.014,60.949,60.949,0,0,0,5.26-4.7q1.211-1.207,2.356-2.477c.625.675,1.273,1.333,1.953,1.956.857.787,1.756,1.528,2.672,2.24.837.648,1.692,1.28,2.572,1.874.919.623,1.862,1.21,2.838,1.744,1.044.573,2.119,1.092,3.2,1.585,1.012.464,2.035.917,3.072,1.324,1.017.4,2.053.741,3.1,1.06,1.066.318,2.147.587,3.218.873.989.264,1.978.523,2.977.748,2.138.48,4.294.86,6.463,1.155a64.34,64.34,0,0,0,6.65.514c.673.018,1.346.032,2.019.032q2.33,0,4.66-.155c1.055-.068,2.108-.141,3.159-.243,1.108-.109,2.213-.252,3.311-.418,2.017-.3,4.027-.669,6.011-1.167a69.54,69.54,0,0,0,6.815-2.131q3.053-1.112,6-2.511c1.706-.807,3.391-1.672,5.017-2.631a46.371,46.371,0,0,0,5.165-3.559,56.632,56.632,0,0,0,8.712-8.667c.737-.917,1.456-1.856,2.113-2.834a33.675,33.675,0,0,0,1.815-3.045,53.85,53.85,0,0,0,2.622-5.845,55.865,55.865,0,0,0,2.092-6.4,39.222,39.222,0,0,0,1.1-6.891C543.224,270.571,543.314,268.251,543.262,265.936Zm-52.389-53.744c-1.005-.05-2.01-.061-3.018-.052.573-.041,1.144-.082,1.712-.134s1.162-.116,1.742-.182,1.18-.134,1.762-.239,1.137-.218,1.7-.359,1.114-.316,1.662-.5c.136-.045.268-.1.4-.15l-.234.309c-.252.337-.494.682-.744,1.021-.175.234-.362.462-.553.682C493.834,212.4,492.354,212.265,490.874,212.192Zm-23.667-10.068c.132-1.107.225-2.21.327-3.318.077-.869.15-1.74.227-2.611q2.582-.106,5.162-.221,3.7-.164,7.409-.339.652-.031,1.3-.066c-.8.587-1.6,1.171-2.406,1.746-.989.7-1.976,1.417-2.952,2.14-1.963,1.458-3.93,2.909-5.94,4.307-.971.675-1.949,1.339-2.918,2.019-.216.15-.43.3-.646.457.032-.268.059-.539.086-.807C466.975,204.33,467.079,203.225,467.207,202.125Zm1-10.4c.059-.578.093-1.158.13-1.737.032-.6.075-1.194.111-1.787.03-.564.046-1.13.048-1.694,0-.189,0-.38,0-.571.077.057.157.111.234.166.232.166.462.332.7.5.487.341.969.687,1.458,1.026.985.68,1.988,1.342,2.993,1.99,2.044,1.321,4.1,2.615,6.126,3.961.421.28.835.564,1.248.848l-2.836.171q-3.732.232-7.464.482l-3.1.2Q468.029,193.5,468.205,191.723Zm27.637-6.515c.159-.152.318-.309.471-.468,0,.423.018.848.045,1.271l-.007-.073c.041.587.08,1.173.157,1.758.064.512.137,1.023.214,1.533.166,1.1.38,2.183.582,3.268.061.341.125.68.189,1.021-.337.016-.673.03-1.01.048-1.183.064-2.365.114-3.548.184-2.413.143-4.826.257-7.238.4l-.56.034q.56-.45,1.117-.905c.944-.773,1.883-1.546,2.831-2.313.919-.741,1.84-1.483,2.752-2.235s1.785-1.5,2.659-2.276Q495.182,185.845,495.842,185.207Zm1.86,9.5c.071.407.139.814.2,1.221.086.573.177,1.142.255,1.712s.146,1.121.227,1.678c.168,1.139.318,2.276.446,3.42.048.434.091.869.136,1.3-.246-.155-.493-.312-.737-.471-.446-.289-.9-.562-1.349-.844-.478-.3-.962-.589-1.446-.875-.976-.578-1.931-1.2-2.895-1.794-1.042-.646-2.085-1.3-3.122-1.956s-2.058-1.319-3.084-1.981l-1.126-.73q1.211-.058,2.42-.123c1.189-.064,2.379-.123,3.568-.191s2.4-.125,3.6-.2C495.763,194.818,496.734,194.763,497.7,194.706Zm-30.6,12.976q.839-.587,1.674-1.18,2.961-2.095,5.865-4.266c1.949-1.458,3.873-2.947,5.813-4.414.91-.691,1.824-1.376,2.727-2.079q1.365.928,2.754,1.81c1.019.65,2.049,1.276,3.086,1.9s2.083,1.283,3.118,1.931c.955.6,1.913,1.189,2.888,1.749s1.965,1.076,2.963,1.585l-.018-.009.043.023.041.021-.021-.009q.529.276,1.035.589c-.5.016-1.017.064-1.524.093-.553.034-1.11.061-1.66.1-1.153.07-2.308.107-3.459.182-2.386.152-4.76.377-7.132.628-1.18.123-2.356.25-3.536.375s-2.336.218-3.509.3c-1.2.077-2.395.139-3.593.221s-2.4.186-3.6.275c-1.155.086-2.3.168-3.461.223-.2.007-.391.021-.589.032Zm39.5-12.355q-.519.689-1.037,1.385c-.328.439-.644.882-.978,1.314-.662.864-1.344,1.715-2.024,2.565q-.559.7-1.119,1.4c-.33.418-.65.848-.969,1.276l-.032.043c-.152-1.1-.341-2.195-.518-3.291-.089-.557-.189-1.11-.284-1.669s-.189-1.132-.289-1.7-.2-1.107-.307-1.665c-.025-.118-.05-.239-.077-.359.96-.061,1.917-.121,2.879-.166,1.146-.055,2.3-.121,3.445-.157.575-.018,1.153-.018,1.728-.043.15-.007.3-.02.455-.032C507.177,194.59,506.883,194.954,506.6,195.327Zm-8.341-9.283c.748.562,1.5,1.114,2.24,1.683,1.565,1.2,3.013,2.536,4.585,3.725.664.5,1.339.989,2.017,1.471l.007,0c-.073,0-.145,0-.218.009-.569.046-1.137.1-1.706.143s-1.158.084-1.737.118c-1.139.068-2.281.143-3.425.2l-1.314.064-.032-.139c-.277-1.176-.566-2.349-.821-3.529-.241-1.121-.466-2.254-.639-3.391-.07-.443-.127-.894-.186-1.339l.061.048C497.475,185.43,497.862,185.746,498.26,186.044Zm-26.061-.662c1.194-.164,2.392-.284,3.591-.4s2.386-.2,3.584-.277q2.183-.13,4.366-.177,3.66-.082,7.323-.018c1.069.018,2.142.027,3.213.023.312,0,.616.007.926.009.2,0,.407,0,.612,0-.216.173-.43.348-.648.521-.512.412-1.017.828-1.524,1.246-1.844,1.515-3.761,2.938-5.637,4.4-.939.735-1.885,1.453-2.824,2.183q-.877.682-1.765,1.355l-.068-.043q-1.511-.938-3.029-1.863c-1.014-.619-2.035-1.233-3.045-1.858-1.053-.653-2.12-1.285-3.188-1.906s-2.11-1.221-3.159-1.837q-.754-.447-1.514-.876l-.139-.075c.189-.023.378-.05.566-.077C470.625,185.6,471.409,185.487,472.2,185.383ZM457.874,195.65c.321-.348.637-.7.96-1.044.782-.851,1.578-1.687,2.379-2.524s1.605-1.665,2.442-2.465c.794-.764,1.61-1.508,2.44-2.235.3-.264.614-.518.926-.775.173-.139.343-.284.525-.412.091-.057.184-.114.273-.177.03-.02.059-.045.089-.068-.007.077-.016.152-.02.227-.027.475-.05.953-.1,1.428-.064.585-.148,1.167-.218,1.751s-.143,1.146-.218,1.717q-.229,1.8-.484,3.6c-.032.225-.057.453-.086.68-1.069.073-2.135.143-3.2.221-1.212.089-2.427.173-3.641.273-.578.048-1.153.1-1.731.15-.239.02-.48.045-.721.068C457.615,195.928,457.746,195.791,457.874,195.65Zm6.106,9.044c-.325-.391-.639-.794-.962-1.185-.732-.891-1.435-1.8-2.117-2.729-.33-.45-.655-.9-.989-1.349-.311-.412-.639-.807-.957-1.21-.362-.455-.687-.935-1.028-1.4-.07-.1-.139-.189-.211-.282l.539-.007c2.413-.045,4.823-.143,7.232-.239.393-.014.785-.034,1.178-.05-.2,1.756-.339,3.52-.537,5.278-.123,1.11-.318,2.206-.523,3.3-.093.478-.187.953-.248,1.437l-.077-.082c-.189-.209-.371-.425-.559-.637C464.466,205.265,464.221,204.985,463.98,204.694Zm2.993,5.419c-.416-.416-.837-.826-1.271-1.223-.061-.057-.13-.109-.191-.166.082-.046.161-.091.241-.141l.039.009h.041a.8.8,0,0,0,.271-.052c.321.016.641.02.964.02.2,0,.407,0,.614,0,.578,0,1.153-.011,1.731-.03,1.2-.039,2.4-.075,3.6-.13,1.182-.055,2.372-.071,3.557-.093s2.358-.05,3.536-.1c1.208-.055,2.408-.157,3.609-.25s2.39-.187,3.584-.277c1.167-.089,2.336-.166,3.5-.223,1.187-.052,2.374-.107,3.559-.189.555-.039,1.119-.082,1.671-.155s1.117-.173,1.676-.264c.507-.084,1.021-.132,1.526-.23.184-.034.368-.077.553-.118-.039.043-.075.089-.114.134l-1.387.257c-.973.182-1.944.368-2.924.518-.432.061-.864.111-1.294.159-.569.068-1.139.13-1.708.193-.6.07-1.208.159-1.81.241s-1.205.148-1.808.216q-.863.1-1.728.191c-.587.061-1.173.123-1.765.171-.575.048-1.155.091-1.735.139-1.208.1-2.413.189-3.627.261s-2.452.123-3.68.2c-.578.034-1.155.08-1.735.073-.278,0-.553-.009-.832-.018-.15,0-.3-.011-.448-.011-.091,0-.182,0-.271-.007h0l-.011,0c-.011,0-.016.009-.007.014a.443.443,0,0,0,.1.011c.084,0,.173.007.261.009l.607.039c.4.027.81.046,1.212.048h.2c.544,0,1.087-.007,1.631-.007l1.826,0c1.221,0,2.445,0,3.668-.02.568-.009,1.139-.018,1.708-.039.587-.023,1.176-.052,1.758-.08s1.187-.061,1.781-.107c.282-.023.566-.048.841-.08.35-.039.7-.089,1.046-.143l-.1.014.3-.043c.855-.123,1.706-.225,2.558-.35.835-.12,1.671-.239,2.5-.407,1.1-.227,2.192-.507,3.282-.791.457-.118.907-.243,1.358-.384l-.007.011c-.071.082-.136.166-.2.25-.166.043-.332.082-.5.127-.359.1-.719.212-1.078.321-.539.166-1.073.334-1.612.491s-1.073.293-1.612.423c-1.164.28-2.338.5-3.52.684h.014l-.023,0-.032.007-.009,0h0l-.016,0h0c-.637.091-1.283.166-1.924.241-.584.071-1.164.134-1.747.189-.612.057-1.219.1-1.828.159-.562.055-1.126.125-1.692.177-.6.052-1.2.1-1.8.141-1.2.077-2.392.084-3.591.118-.589.016-1.178.027-1.767.03l-.894.007a5.991,5.991,0,0,1-.639-.018h0l-.048,0c-.007-.007-.016,0-.011.011l.036.009c.045.007.093.009.136.014.175.016.348.018.523.023.423.016.844.041,1.264.057.848.043,1.7.059,2.545.1.946.036,1.892.073,2.836.073.246,0,.5,0,.741-.007.582-.009,1.162-.043,1.744-.059s1.171-.041,1.756-.08,1.187-.082,1.781-.141,1.2-.166,1.79-.271c1.173-.214,2.347-.441,3.5-.73.571-.146,1.142-.3,1.7-.48s1.094-.382,1.635-.584c.739-.28,1.467-.589,2.2-.875-.334.428-.646.871-.948,1.321-.2.071-.4.136-.607.207-.493.168-.989.325-1.492.462-.539.15-1.087.28-1.633.4-1.112.25-2.226.482-3.35.655v0l-.014,0-.052.007.025,0-.027.007,0,0c-.389.055-.784.1-1.176.134-1.139.1-2.283.159-3.42.268-1.176.114-2.349.23-3.527.339-.6.057-1.214.118-1.822.168s-1.189.093-1.785.132-1.171.068-1.76.107c-.266.014-.537.034-.8.059a3.3,3.3,0,0,0-.5.055l0,.016.025,0h0a4.719,4.719,0,0,1,.593-.03c.573-.009,1.151,0,1.728,0s1.169.014,1.751,0c.616-.007,1.235-.032,1.853-.052q.887-.031,1.769-.07c1.164-.057,2.324-.136,3.479-.23.58-.048,1.155-.091,1.733-.132.559-.041,1.117-.082,1.674-.15a21.02,21.02,0,0,0,3.432-.766c.534-.157,1.069-.316,1.594-.5s1.012-.375,1.508-.594h0l.013,0,0,0c.225-.1.446-.2.666-.312l-.146.214.009-.009-.011.016,0-.007-.014.025-.014.023-.023.03,0,.007.027-.043c-.02.03-.039.061-.059.089l0,0,0,0c-.132.2-.266.4-.4.607l.011-.016-.023.032-.011.016,0-.007c-.13.2-.259.391-.4.58l-.027.036c-.061.016-.123.036-.184.052-.382.1-.769.193-1.153.284-.828.2-1.669.348-2.508.475l-.473.064c-1.176.148-2.356.223-3.536.325-1.21.109-2.422.221-3.63.348-1.23.134-2.465.284-3.7.391-.6.052-1.194.1-1.79.141-.291.023-.584.043-.878.055-.177,0-.352,0-.53.014v.016c.125,0,.255,0,.38,0,.043,0,.084,0,.125,0,.189,0,.38,0,.571-.009.487-.018.973-.036,1.46-.05l.173-.007c-1.269.123-2.538.268-3.8.446a50.888,50.888,0,0,0-6.26,1.246l-.018-.018c-.212-.2-.432-.387-.641-.587q-.607-.587-1.226-1.162C468.542,211.674,467.757,210.894,466.973,210.114ZM441.141,302c-1.437,1.585-2.975,3.081-4.562,4.516a54.439,54.439,0,0,1-5.608,4.444q-1.672,1.105-3.427,2.079a80.466,80.466,0,0,1-12.673,5.626c-1.942.648-3.9,1.246-5.892,1.724-2.251.541-4.535.937-6.824,1.269-2.352.339-4.717.539-7.086.687q-2.569.143-5.133.118c-1.242-.014-2.476-.082-3.718-.152s-2.495-.177-3.738-.33c-2.3-.273-4.58-.666-6.847-1.128-.878-.189-1.76-.391-2.629-.616-2.42-.632-4.844-1.255-7.213-2.065-1.192-.412-2.358-.9-3.516-1.408-1.035-.459-2.062-.928-3.075-1.428a39.5,39.5,0,0,1-4.855-2.94c-1.446-1.021-2.856-2.092-4.2-3.245a39.675,39.675,0,0,1-3.848-3.948,51.6,51.6,0,0,1-3.263-4.314c-.132-.2-.264-.391-.391-.589-.7-1.083-1.392-2.169-2.029-3.291-.573-1.01-1.108-2.04-1.626-3.081-.528-1.057-1.037-2.129-1.51-3.213-.5-1.135-.939-2.285-1.344-3.457-.1-.3-.2-.6-.291-.9a57.426,57.426,0,0,1-1.706-7.084,64.183,64.183,0,0,1-.932-7.093,54.121,54.121,0,0,1,.093-6.977,55.783,55.783,0,0,1,.994-6.725c.132-.609.262-1.214.4-1.817a56.544,56.544,0,0,1,2.133-7.091c.873-2.283,1.874-4.5,2.959-6.69.191-.38.387-.76.587-1.135a73.084,73.084,0,0,1,3.777-6.431,56.642,56.642,0,0,1,4.5-5.9q1.02-1.146,2.088-2.247c1.822-1.872,3.725-3.673,5.71-5.367a65.137,65.137,0,0,1,5.717-4.45,63.428,63.428,0,0,1,5.92-3.557c1.073-.564,2.151-1.117,3.261-1.6,1-.441,2.01-.825,3.041-1.185.844-.275,1.692-.534,2.549-.764a67.35,67.35,0,0,1,7.077-1.428c2.44-.375,4.894-.653,7.361-.807.146-.011.291-.016.439-.023a.623.623,0,0,0,.114.016c2.433-.011,4.86-.041,7.291.023.925.061,1.849.148,2.765.273,1.205.166,2.406.373,3.6.616.409.084.812.173,1.217.268a72.975,72.975,0,0,1,7.184,2.04c1.155.4,2.306.819,3.441,1.287,1.028.418,2.033.887,3.031,1.38,1.642.83,3.247,1.737,4.819,2.7q1.3.791,2.556,1.651c.159.12.323.241.484.368,1.7,1.294,3.366,2.638,4.973,4.041.784.691,1.555,1.389,2.31,2.119a64.882,64.882,0,0,1,4.548,4.871c1.126,1.342,2.183,2.747,3.2,4.18-.614.746-1.226,1.5-1.8,2.276-.634.86-1.232,1.744-1.815,2.649-.468.73-.912,1.476-1.346,2.226-.823-1.255-1.683-2.488-2.588-3.682-.594-.785-1.194-1.565-1.838-2.308-.591-.687-1.205-1.353-1.828-2.01-.639-.671-1.285-1.337-1.953-1.976s-1.369-1.264-2.074-1.878l.023.018-.1-.093-.018-.014.007,0c-.719-.625-1.451-1.233-2.19-1.831a55.939,55.939,0,0,0-4.607-3.368,27.885,27.885,0,0,0-5.426-2.7c-.848-.318-1.719-.569-2.588-.83-1.112-.482-2.242-.923-3.393-1.294a47.038,47.038,0,0,0-6.3-1.526,49.984,49.984,0,0,0-6.217-.68,56.456,56.456,0,0,0-6.356.084q-3.066.191-6.106.623a46.923,46.923,0,0,0-5.845,1.16,38.329,38.329,0,0,0-5.9,2.133c-.923.423-1.822.9-2.7,1.414s-1.774,1.044-2.631,1.615q-1.4.931-2.763,1.915c-.819.589-1.617,1.21-2.4,1.84q-2.476,1.979-4.762,4.164a57.481,57.481,0,0,0-4.591,4.91c-.655.789-1.308,1.585-1.922,2.413-.594.8-1.148,1.628-1.687,2.467a61.859,61.859,0,0,0-3.25,5.783,54.809,54.809,0,0,0-2.5,5.665,48.344,48.344,0,0,0-1.728,5.876,59.118,59.118,0,0,0-1.114,6.267,39.535,39.535,0,0,0-.2,6.29,49.958,49.958,0,0,0,.673,6.352,60.1,60.1,0,0,0,1.339,5.949,41.568,41.568,0,0,0,2.229,6.065,49.356,49.356,0,0,0,2.7,5.183,56.253,56.253,0,0,0,3.5,5.164,34.447,34.447,0,0,0,3.911,4.289c.8.734,1.637,1.421,2.492,2.085.778.607,1.576,1.194,2.4,1.749.855.58,1.733,1.126,2.643,1.622.973.537,1.974,1.019,2.984,1.478.944.432,1.9.853,2.865,1.235.946.373,1.91.691,2.886.985s2,.548,3,.816c.919.243,1.842.487,2.772.694,1.99.45,4,.8,6.024,1.078a59.924,59.924,0,0,0,6.192.482c.625.016,1.253.027,1.881.027q2.173,0,4.344-.143c.983-.064,1.963-.132,2.943-.23,1.033-.1,2.063-.232,3.086-.387,1.881-.284,3.755-.625,5.6-1.087a64.01,64.01,0,0,0,6.352-1.988q2.848-1.034,5.587-2.335c1.59-.755,3.159-1.56,4.673-2.456a43,43,0,0,0,4.812-3.316,49.131,49.131,0,0,0,4.344-3.879,50.381,50.381,0,0,0,3.777-4.193c.175-.221.35-.441.523-.664v0l0,0,0-.007-.007.007.018-.03,0,0c.057-.111.121-.22.182-.33.045-.08.091-.159.141-.237s.114-.168.175-.252c.034-.046.064-.1.1-.141.243-.3.512-.582.757-.88l.189-.239c.2-.3.391-.607.571-.919l-.011-.023c.075-.121.155-.239.227-.359s.139-.255.214-.38l.034-.05c.186-.323.364-.646.537-.973a47.876,47.876,0,0,0,2.085-4.541,2.451,2.451,0,0,1,.082-.25c.073-.186.157-.373.239-.559.011-.03.023-.064.034-.1.043-.107.082-.214.123-.323l.009.02c.025-.07.052-.141.077-.211.05-.143.1-.289.152-.434l0,0,.037-.1q.215-.607.43-1.219c.2-.553.389-1.112.591-1.662.018-.057.041-.112.064-.168l-.025-.091c.175-.584.346-1.171.491-1.765a36.515,36.515,0,0,0,1.023-6.42c.148-2.158.232-4.321.189-6.479a57.714,57.714,0,0,0-.528-6.627c-.175-1.264-.4-2.529-.664-3.782.134-.391.271-.78.418-1.167.021-.05.041-.1.059-.148.041.161.08.325.118.489.1.43.193.866.287,1.3.218.978.4,1.965.585,2.947.109.589.218,1.173.323,1.76s.186,1.164.271,1.749c.175,1.233.321,2.463.428,3.7q.058.771.1,1.546c.03.537.055,1.076.057,1.612.009,1.048-.011,2.1-.089,3.147-.171,2.44-.412,4.876-.807,7.293v0l0,.011v0c-.025.139-.048.277-.068.412v0l-.007.027,0,0c-.014.082-.029.161-.041.241l0-.043c-.33,1.867-.682,3.727-1.026,5.592l.007.009.007,0c.346-1.442.691-2.879,1.055-4.314.3-1.164.594-2.331.821-3.509q.365-1.866.6-3.755c.143-1.205.243-2.417.291-3.634a29.326,29.326,0,0,0-.089-3.739l0,0q-.085-1.01-.212-2.013c-.152-1.185-.366-2.363-.6-3.534-.118-.584-.255-1.164-.389-1.746s-.268-1.153-.416-1.726c-.145-.557-.28-1.112-.439-1.667-.146-.507-.3-1.017-.464-1.524-.082-.252-.164-.509-.25-.762q.474-1.218,1.01-2.406c.039.141.08.284.118.425.159.569.314,1.139.471,1.708s.3,1.133.437,1.7.268,1.121.38,1.687c.118.609.216,1.221.318,1.833s.2,1.221.28,1.835c.159,1.16.3,2.324.455,3.486s.255,2.3.355,3.452v-.011l0,.034,0,.023,0-.009c.007.075.014.152.02.23.086,1.057.143,2.113.155,3.177s-.045,2.142-.1,3.213l.007.009.007-.009c.077-.557.15-1.117.225-1.672s.152-1.121.209-1.683a25.811,25.811,0,0,0,.123-3.22c-.023-1.223-.1-2.442-.211-3.659q-.167-1.75-.466-3.486c-.1-.593-.225-1.185-.357-1.769-.136-.6-.275-1.212-.432-1.81-.3-1.144-.671-2.272-1.078-3.384l.011.041c-.28-.773-.575-1.537-.857-2.308.134-.3.271-.6.412-.9.257.875.527,1.746.839,2.6.2.571.414,1.142.6,1.717a12.8,12.8,0,0,1,.477,1.667l0-.007a3.537,3.537,0,0,1,.046.38l.009.007.007-.007a6.373,6.373,0,0,0-.08-.882c-.068-.507-.152-1.014-.241-1.519V255.5l0-.027-.011-.052a17.521,17.521,0,0,0-.887-3.361c-.143-.371-.3-.737-.473-1.1.091-.189.18-.378.273-.564.082-.164.168-.325.253-.487l.041.127c.166.5.307,1.01.459,1.517.337,1.133.682,2.26,1.012,3.4.337,1.162.659,2.331.955,3.507.287,1.135.53,2.281.741,3.434.023.118.043.241.061.362l0-.027.007.052v0c.164.932.312,1.869.475,2.806v0c.084.489.182.973.273,1.46v0l0,.023h0l0,.016.007.009.007-.012c-.016-.145-.045-.286-.068-.432-.032-.207-.064-.418-.091-.628-.061-.416-.118-.835-.175-1.255-.12-.848-.227-1.7-.33-2.549a44.8,44.8,0,0,0-1.446-7.268q-.488-1.678-1.128-3.3c-.191-.487-.394-.966-.63-1.435l-.034-.064.034-.068q.273-.518.555-1.03c.111.359.221.719.337,1.076q.43,1.344.85,2.69c.346,1.105.7,2.213,1.026,3.322.166.559.327,1.119.489,1.683q.119.413.232.832c.071.259.141.523.191.789v0a.749.749,0,0,1,.011.123l.011.009,0,0,0,0c0-.034,0-.071,0-.1-.011-.114-.025-.227-.043-.343-.032-.232-.066-.468-.1-.7q-.123-.744-.241-1.49c-.157-1.019-.334-2.038-.562-3.045a18.935,18.935,0,0,0-1.082-3.313c-.232-.537-.477-1.067-.75-1.585-.052-.1-.109-.2-.164-.293q.675-1.2,1.408-2.372.2.519.382,1.042c.211.628.4,1.26.594,1.894a65.851,65.851,0,0,1,1.7,7.248,67.324,67.324,0,0,1,.86,7.343c.007.1.011.207.018.314a75.475,75.475,0,0,1-.057,7.762c-.073,1.276-.148,2.552-.293,3.821-.139,1.219-.337,2.429-.58,3.636-.016.071-.03.141-.048.209a56.525,56.525,0,0,1-2.235,7.264c-.414,1.1-.844,2.183-1.3,3.261-.007.03-.014.061-.02.089a2.861,2.861,0,0,1-.114.357c-.059.15-.123.3-.189.45s-.12.3-.189.448c-.118.257-.236.509-.371.76-.091.171-.189.337-.289.5-.039.1-.084.193-.123.291-.1.237-.218.468-.339.7l-.032.061c-.121.223-.248.443-.384.657-.034.055-.068.109-.1.161a35.188,35.188,0,0,1-2,3.166c-.332.468-.675.93-1.026,1.389-.041.064-.087.127-.127.193a7.329,7.329,0,0,1-.5.623c-.034.041-.07.082-.107.125s-.055.066-.082.1c-.116.132-.232.266-.35.4-.325.368-.644.739-.967,1.108-.114.139-.232.273-.35.407l.03.039Zm-10.857-31.185a52.358,52.358,0,0,0,.725,6.815,64.08,64.08,0,0,0,1.435,6.383,44.246,44.246,0,0,0,2.392,6.508c.38.826.773,1.649,1.183,2.461l0,.009q-1.248,1.76-2.672,3.393l-.487.546c-1.189,1.308-2.458,2.545-3.768,3.73a44.683,44.683,0,0,1-4.63,3.67q-1.382.914-2.836,1.715a65.579,65.579,0,0,1-10.465,4.648c-1.6.539-3.222,1.028-4.869,1.426-1.858.446-3.743.773-5.635,1.048-1.944.282-3.9.446-5.856.569-1.41.075-2.822.114-4.239.1-1.023-.011-2.042-.066-3.068-.125s-2.063-.146-3.091-.273c-1.894-.225-3.782-.55-5.656-.93-.725-.159-1.451-.321-2.172-.512-2-.521-4-1.035-5.958-1.706-.985-.339-1.949-.739-2.9-1.162-.816-.362-1.633-.732-2.433-1.123l.089.043c-.041-.018-.079-.039-.12-.059l-.075-.036a33.337,33.337,0,0,1-4.011-2.431c-1.194-.841-2.361-1.731-3.47-2.679a32.621,32.621,0,0,1-3.177-3.266,41.8,41.8,0,0,1-2.7-3.561c-.109-.164-.216-.323-.323-.487-.575-.9-1.148-1.792-1.676-2.718-.473-.835-.914-1.69-1.342-2.547s-.857-1.758-1.248-2.654c-.407-.939-.776-1.888-1.11-2.852-.082-.25-.159-.5-.239-.744a47.545,47.545,0,0,1-1.41-5.851,53.675,53.675,0,0,1-.771-5.858,45.591,45.591,0,0,1,.075-5.765,46.131,46.131,0,0,1,.826-5.556c.107-.5.212-1,.334-1.5a46.085,46.085,0,0,1,1.76-5.854c.721-1.885,1.549-3.72,2.445-5.528.157-.312.318-.625.482-.937a60.622,60.622,0,0,1,3.122-5.312,47.391,47.391,0,0,1,3.714-4.876q.842-.948,1.724-1.858c1.505-1.544,3.077-3.031,4.714-4.434a56.035,56.035,0,0,1,4.6-3.591l.041-.027.082-.057a54.069,54.069,0,0,1,4.887-2.936c.889-.464,1.783-.926,2.7-1.326.821-.359,1.66-.678,2.511-.976q1.044-.341,2.106-.63a54.864,54.864,0,0,1,5.847-1.18c2.013-.307,4.043-.537,6.079-.666.123-.009.243-.014.364-.018a.429.429,0,0,0,.093.009c2.006-.007,4.014-.032,6.022.02.764.052,1.528.123,2.283.227,1,.134,1.985.307,2.97.5.337.075.671.145,1.005.223a60.98,60.98,0,0,1,5.933,1.685c.953.332,1.908.678,2.843,1.064.851.35,1.68.735,2.506,1.142,1.353.687,2.681,1.437,3.977,2.229.714.437,1.417.894,2.113,1.364.134.1.268.2.4.3,1.4,1.071,2.779,2.181,4.109,3.338.644.569,1.285,1.151,1.906,1.751a53.139,53.139,0,0,1,3.757,4.023,60.132,60.132,0,0,1,3.645,4.9q.583.873,1.137,1.769c-.2.375-.389.748-.578,1.126a57.8,57.8,0,0,0-2.677,6.081,51.1,51.1,0,0,0-1.858,6.306,64.2,64.2,0,0,0-1.2,6.727A42.655,42.655,0,0,0,430.284,270.816Zm12.385,1.044a40.377,40.377,0,0,1,.068-5.112c.073-.944.2-1.883.346-2.818.027.352.057.7.08,1.057.007.086.009.173.014.257a62.255,62.255,0,0,1-.046,6.415c-.05.912-.111,1.822-.2,2.729C442.817,273.548,442.728,272.7,442.669,271.86Zm21.092-40.081.041-.027a.526.526,0,0,0,.068-.05,48.241,48.241,0,0,1,4.339-2.6c.785-.412,1.576-.819,2.385-1.171.73-.323,1.476-.6,2.229-.866.619-.2,1.237-.393,1.867-.559a48.291,48.291,0,0,1,5.183-1.046c1.785-.275,3.584-.478,5.39-.591l.323-.018a.246.246,0,0,0,.082.011c1.781-.009,3.559-.03,5.34.018.678.046,1.353.1,2.024.2.88.12,1.76.273,2.633.448l.889.2a53.678,53.678,0,0,1,5.262,1.494c.844.293,1.687.6,2.517.941.753.312,1.49.653,2.222,1.012,1.2.609,2.376,1.276,3.527,1.979.634.387,1.258.791,1.871,1.207.123.091.239.18.357.268,1.24.951,2.463,1.933,3.643,2.959.573.507,1.135,1.021,1.69,1.556a46.989,46.989,0,0,1,3.329,3.566,52.273,52.273,0,0,1,3.229,4.339c.885,1.33,1.726,2.693,2.488,4.1a27.36,27.36,0,0,1,1.849,4.166c.15.459.293.919.43,1.385A47.772,47.772,0,0,1,530.216,260a49.619,49.619,0,0,1,.632,5.376c0,.077.007.157.011.23a54.516,54.516,0,0,1-.041,5.688c-.055.932-.107,1.865-.212,2.795-.1.86-.236,1.71-.407,2.561l-.02.1c-.011.052-.023.1-.034.159a41.569,41.569,0,0,1-1.64,5.315c-.587,1.562-1.223,3.1-1.958,4.6a26.421,26.421,0,0,1-2.037,3.382c-.739,1.039-1.533,2.044-2.367,3.009-.143.164-.286.323-.437.484-1.048,1.16-2.174,2.254-3.336,3.307a39.8,39.8,0,0,1-4.109,3.252c-.814.541-1.653,1.051-2.508,1.519a58.227,58.227,0,0,1-9.281,4.123c-1.421.478-2.859.912-4.314,1.264-1.649.393-3.322.685-5,.928-1.724.25-3.452.4-5.189.507-1.251.066-2.5.1-3.757.084-.91-.014-1.815-.059-2.72-.111-.921-.055-1.831-.132-2.743-.241-1.681-.2-3.352-.489-5.01-.828-.646-.141-1.287-.287-1.928-.452-1.771-.462-3.545-.917-5.28-1.512-.873-.3-1.728-.657-2.574-1.028-.719-.321-1.437-.646-2.144-.994l.068.036c-.036-.016-.068-.036-.1-.052a.719.719,0,0,0-.073-.034,29.545,29.545,0,0,1-3.552-2.156c-1.058-.746-2.1-1.535-3.077-2.374a29.225,29.225,0,0,1-2.82-2.9c-.5-.589-.982-1.205-1.446-1.833a61.59,61.59,0,0,0,2.531-5.751,62.935,62.935,0,0,0,2.365-7.216,44.308,44.308,0,0,0,1.235-7.773c.184-2.611.284-5.226.227-7.843a69.75,69.75,0,0,0-.634-8.025,63.113,63.113,0,0,0-1.4-7.143q-.467-1.8-1.025-3.579a38.6,38.6,0,0,0-1.385-3.814c-.091-.211-.189-.421-.284-.632q.747-.962,1.542-1.888.747-.839,1.528-1.646c1.335-1.369,2.729-2.688,4.182-3.932A49.933,49.933,0,0,1,463.761,231.779Zm76.319,39.288c-.064,1.13-.127,2.26-.257,3.386-.123,1.083-.3,2.156-.514,3.225l-.041.186a50.246,50.246,0,0,1-1.985,6.438c-.709,1.89-1.483,3.752-2.369,5.565a31.987,31.987,0,0,1-2.47,4.1c-.894,1.26-1.856,2.474-2.863,3.643-.175.193-.35.387-.525.582-1.276,1.4-2.638,2.731-4.045,4a47.425,47.425,0,0,1-4.971,3.939q-1.477.982-3.038,1.84a70.185,70.185,0,0,1-11.232,4.989c-1.724.578-3.461,1.105-5.228,1.528-2,.482-4.018.832-6.049,1.128-2.085.3-4.182.475-6.281.609-1.517.082-3.031.121-4.548.1-1.1-.011-2.2-.073-3.3-.134s-2.213-.159-3.316-.291c-2.035-.243-4.057-.589-6.07-1-.78-.171-1.56-.346-2.333-.55-2.147-.559-4.291-1.112-6.393-1.831-1.06-.364-2.092-.8-3.116-1.246-.916-.4-1.826-.821-2.724-1.264a35.1,35.1,0,0,1-4.307-2.606c-1.282-.905-2.535-1.86-3.725-2.877a34.779,34.779,0,0,1-2.629-2.615c.066-.08.134-.159.2-.241.161-.2.318-.4.478-.6l.084.1c.587.707,1.214,1.378,1.862,2.031a28.28,28.28,0,0,0,2.642,2.333c.468.368.944.723,1.433,1.064.509.35,1.028.687,1.551,1.014.471.3.935.6,1.408.894.491.307.991.6,1.485.905.521.314,1.03.641,1.555.948.491.284,1,.539,1.515.791s1.055.512,1.585.753c.553.252,1.105.484,1.672.7.539.2,1.083.393,1.635.557.614.177,1.233.343,1.849.509h0s.011-.011,0-.014c-.6-.216-1.189-.437-1.769-.691-.516-.227-1.026-.473-1.533-.723-.994-.5-1.96-1.048-2.922-1.61l.007.007-.011-.009-.066-.036.039.021c-.491-.3-.976-.6-1.462-.912s-.98-.612-1.467-.919-.955-.619-1.435-.926-.973-.619-1.465-.921c-1.017-.634-2.042-1.251-3.038-1.915-.973-.648-1.913-1.358-2.815-2.1-.769-.634-1.514-1.3-2.228-1.994.182-.234.364-.469.543-.707.057.073.114.148.175.216.28.33.573.648.869.962.4.425.807.85,1.219,1.262.432.43.887.832,1.346,1.233.441.38.894.748,1.362,1.094q.754.553,1.553,1.032.771.464,1.56.9c.514.284,1.044.537,1.578.782,1.119.509,2.258.973,3.391,1.451h0l0-.016c-.876-.462-1.737-.948-2.588-1.453l.036.023-.171-.1.018.011c-.819-.489-1.619-1.01-2.413-1.542-.837-.562-1.678-1.128-2.508-1.7-.985-.684-1.972-1.371-2.913-2.113-.437-.343-.864-.7-1.289-1.06-.4-.339-.8-.682-1.171-1.053q.345-.457.675-.923c.155.164.309.33.469.489l-.011-.011c.58.587,1.171,1.169,1.776,1.731.569.532,1.146,1.055,1.758,1.54a24.367,24.367,0,0,0,3.12,2.063q.757.43,1.535.821c.559.277,1.13.541,1.7.807h0l.007-.011c-.98-.612-1.947-1.246-2.886-1.919-.484-.35-.976-.694-1.46-1.042q-.675-.488-1.337-.98c-.978-.719-1.947-1.442-2.895-2.192-.464-.368-.937-.73-1.394-1.108-.109-.089-.214-.182-.321-.271.152-.218.307-.436.455-.657.4-.6.778-1.205,1.142-1.824a30.242,30.242,0,0,0,3.372,3.679c.707.65,1.449,1.262,2.208,1.851.691.537,1.4,1.058,2.124,1.549.757.514,1.54,1,2.342,1.442.862.471,1.751.9,2.647,1.308.837.382,1.681.757,2.538,1.094.839.33,1.694.614,2.558.873.88.266,1.772.487,2.659.723.819.216,1.635.43,2.456.616q2.65.6,5.34.953a52.274,52.274,0,0,0,5.492.428c.559.018,1.112.025,1.669.025q1.924,0,3.85-.125c.869-.057,1.742-.118,2.608-.2.914-.089,1.826-.207,2.736-.346,1.669-.246,3.327-.55,4.962-.96a57.234,57.234,0,0,0,5.631-1.762q2.528-.918,4.955-2.074c1.41-.666,2.8-1.38,4.144-2.172a39.124,39.124,0,0,0,4.266-2.94,44.509,44.509,0,0,0,3.85-3.443,43.6,43.6,0,0,0,3.345-3.718c.612-.757,1.2-1.53,1.747-2.338a28.107,28.107,0,0,0,1.5-2.515,44.762,44.762,0,0,0,2.163-4.828,45.89,45.89,0,0,0,1.733-5.287,32.309,32.309,0,0,0,.9-5.69c.134-1.913.212-3.83.168-5.744a51.276,51.276,0,0,0-.464-5.874,46.5,46.5,0,0,0-1.028-5.235q-.345-1.317-.748-2.617a28.043,28.043,0,0,0-1.016-2.793c-.346-.805-.714-1.6-1.133-2.372-.446-.83-.923-1.646-1.421-2.447-1.032-1.678-2.14-3.32-3.329-4.894-.527-.694-1.06-1.385-1.628-2.047-.528-.607-1.069-1.2-1.626-1.778-.564-.6-1.135-1.185-1.731-1.753s-1.214-1.121-1.837-1.665l.016.011c-.029-.027-.059-.052-.089-.077l-.016-.016,0,.007c-.634-.555-1.282-1.094-1.94-1.624a49.528,49.528,0,0,0-4.084-2.986,24.64,24.64,0,0,0-4.81-2.392c-.753-.282-1.524-.5-2.295-.735-.987-.427-1.99-.819-3.009-1.148a41.821,41.821,0,0,0-5.581-1.353,44.768,44.768,0,0,0-5.51-.6,50.668,50.668,0,0,0-5.637.073c-1.81.111-3.616.3-5.412.553a41.758,41.758,0,0,0-5.18,1.03,34.093,34.093,0,0,0-5.23,1.89c-.819.375-1.615.8-2.392,1.255s-1.574.926-2.333,1.43q-1.235.829-2.445,1.7c-.73.521-1.435,1.073-2.133,1.628-1.465,1.169-2.865,2.406-4.221,3.7a50.716,50.716,0,0,0-3.891,4.139l0-.009c-.136.161-.273.325-.412.491l-.17.225-.055.064c-.159.2-.316.409-.471.616-.4.541-.794,1.1-1.171,1.656l-.048.068v0c-.271.4-.539.805-.8,1.214s-.53.83-.8,1.239c-.12.186-.234.373-.364.55-.052.073-.111.141-.168.207l-.014.011c-.632,1.092-1.221,2.2-1.783,3.325q-.31.624-.612,1.249c-.084.193-.166.382-.248.575-.114.262-.218.528-.325.791l0,0c-.112.268-.223.541-.33.814l-.032.075q-.416,1.071-.839,2.135c-.164.539-.327,1.076-.516,1.6l-.016.041-.025.07h0c-.064.168-.125.337-.189.5-.23.787-.434,1.583-.614,2.381a54.175,54.175,0,0,0-.989,5.556,35.44,35.44,0,0,0-.18,5.581,44.147,44.147,0,0,0,.6,5.628c.243,1.383.537,2.763.885,4.127-.252.821-.53,1.633-.821,2.44-.084-.3-.173-.6-.277-.9-.161-.455-.364-.9-.493-1.36v.007l-.014-.05h0a.961.961,0,0,1-.039-.193v-.014c0-.011-.011-.011-.011,0v0a.734.734,0,0,0,.007.211,7.056,7.056,0,0,0,.168.946,6.223,6.223,0,0,0,.316.966c.082.2.175.384.273.569-.064.175-.125.353-.191.525-.2.523-.4,1.044-.607,1.562-.07-.307-.141-.612-.218-.916-.2-.769-.455-1.519-.655-2.285l0,.014c-.048-.184-.093-.373-.127-.559a1.242,1.242,0,0,1-.03-.223v-.009c0-.009-.014-.007-.014,0v0a.665.665,0,0,0,.007.191c.018.248.043.493.07.737a15.95,15.95,0,0,0,.241,1.678,10.585,10.585,0,0,0,.464,1.617c.023.066.055.13.08.193-.246.6-.5,1.194-.764,1.785-.1-.48-.191-.96-.289-1.44-.173-.878-.373-1.744-.6-2.608v0l0-.014,0-.023-.007-.018v0c-.173-.669-.362-1.333-.537-2v0c-.1-.375-.189-.755-.264-1.137-.029-.15-.061-.3-.086-.448a.8.8,0,0,1-.025-.146l-.018,0c.007.086.025.175.034.262.03.25.052.5.077.75q.079.8.193,1.592a29.439,29.439,0,0,0,.66,3.348,15.282,15.282,0,0,0,.521,1.651c.068.175.141.346.212.518-.168.371-.341.741-.521,1.107l-.039.073c-.041-.155-.084-.307-.125-.459-.009-.034-.016-.071-.025-.1l.007.032c-.15-.587-.289-1.18-.418-1.774-.234-1.085-.464-2.174-.675-3.266-.221-1.133-.469-2.26-.721-3.386-.262-1.164-.532-2.326-.748-3.5-.107-.587-.2-1.169-.282-1.758a11.738,11.738,0,0,1-.123-1.6l0-.127c0-.009-.011-.011-.011,0a2.176,2.176,0,0,0-.016.3c0,.207,0,.416,0,.621.007.457.03.91.061,1.362.064.93.164,1.86.282,2.781a55.206,55.206,0,0,0,1.226,6.918l-.009-.034a26.369,26.369,0,0,0,.812,2.572c.2.541.432,1.069.673,1.594-.082.157-.166.314-.25.469-.268-.564-.532-1.13-.782-1.7-.437-1-.832-2.026-1.187-3.061-.089-.266-.18-.532-.261-.8a50.849,50.849,0,0,1-1.51-6.279,56.965,56.965,0,0,1-.825-6.29,48.012,48.012,0,0,1,.08-6.188,49.68,49.68,0,0,1,.882-5.961c.114-.537.23-1.076.359-1.612a49.937,49.937,0,0,1,1.89-6.283c.616-1.612,1.31-3.191,2.051-4.748l.041.075.023-.052c.271-.621.573-1.219.9-1.813.009-.016.018-.036.032-.057.1-.211.2-.423.307-.63.1-.184.191-.373.291-.557l-.025-.039c.891-1.644,1.849-3.261,2.877-4.819.287-.434.578-.862.88-1.285a4.076,4.076,0,0,1,.225-.416,8.806,8.806,0,0,1,.507-.755c.161-.225.348-.439.53-.648.236-.271.48-.539.723-.8.034-.041.073-.082.109-.123l.02-.021c.093-.1.187-.2.277-.293.33-.4.666-.787,1.014-1.171l-.018-.027c.514-.571,1.035-1.132,1.569-1.685,1.612-1.656,3.3-3.252,5.058-4.757A58.954,58.954,0,0,1,459,223.169l0,0c.014-.009.025-.016.036-.025a57.317,57.317,0,0,1,5.246-3.152c.953-.5,1.91-.989,2.89-1.419.887-.391,1.785-.732,2.7-1.048.748-.246,1.5-.471,2.26-.68a59.389,59.389,0,0,1,6.274-1.264c2.165-.334,4.341-.578,6.527-.716.127,0,.259-.014.389-.02a.354.354,0,0,0,.1.016c2.151-.014,4.307-.036,6.463.018.816.055,1.637.132,2.451.243q1.6.222,3.186.543c.362.08.719.155,1.076.239a63.865,63.865,0,0,1,6.37,1.808c1.021.355,2.047.725,3.052,1.142.91.375,1.8.787,2.686,1.226,1.458.739,2.879,1.542,4.273,2.392.769.468,1.519.957,2.265,1.462.146.111.287.218.43.325,1.506,1.151,2.986,2.342,4.412,3.584.691.614,1.38,1.237,2.047,1.881a56.931,56.931,0,0,1,4.03,4.316,63.39,63.39,0,0,1,3.914,5.255c1.071,1.606,2.083,3.259,3.009,4.958a33.751,33.751,0,0,1,2.238,5.044c.182.557.357,1.114.521,1.676a57.764,57.764,0,0,1,1.51,6.424,60.858,60.858,0,0,1,.764,6.511c0,.093.009.186.013.28A66.842,66.842,0,0,1,540.081,271.066Z" transform="translate(-324.12 -154.389)" fill="#72c484"/>
      <path id="Path_925" data-name="Path 925" d="M404.065,194.8h0v0Z" transform="translate(-229.339 -139.583)" fill="#72c484"/>
      <path id="Path_926" data-name="Path 926" d="M333.858,254.505c-.175-1.232-.311-2.476-.368-3.723-.061-1.287-.057-2.574-.016-3.861l0,.1c.007-.146.014-.284.018-.43l0,0,0-.052v-.016h0v-.043l0-.055v.011a53.324,53.324,0,0,1,.61-6.192,57.16,57.16,0,0,1,1.671-7.323l0-.02.007-.018c.009-.03.018-.059.027-.091l0-.009.007-.021c.021-.066.043-.134.064-.2a42.656,42.656,0,0,1,1.838-4.8,53.6,53.6,0,0,1,3.611-6.6l-.041.066c.052-.08.1-.157.15-.237l.055-.086-.016.018q.976-1.508,2.026-2.972c.694-.962,1.419-1.9,2.156-2.827.81-1.016,1.655-2,2.515-2.975.846-.953,1.719-1.874,2.588-2.8,1.744-1.869,3.6-3.643,5.492-5.362.637-.578,1.287-1.144,1.944-1.7.33-.28.664-.557,1-.828.236-.189.484-.373.7-.582l-.011-.009c-.123.109-.257.209-.384.309-.189.141-.377.284-.564.428-.412.3-.819.619-1.224.93q-1.487,1.153-2.94,2.347c-.96.791-1.906,1.6-2.829,2.438l.052-.048c-.5.448-.991.9-1.478,1.355-.921.864-1.815,1.76-2.668,2.69-.459.5-.905,1.019-1.351,1.531-.409.466-.8.946-1.185,1.435-.807,1.023-1.587,2.069-2.351,3.122-.744,1.021-1.485,2.042-2.158,3.109l.009-.018c-.518.81-1.026,1.631-1.524,2.454-.48.794-.944,1.6-1.383,2.417-.587,1.105-1.148,2.222-1.637,3.373-.246.569-.482,1.146-.7,1.724s-.453,1.18-.644,1.783c-.382,1.205-.725,2.422-1,3.659-.277,1.26-.519,2.533-.716,3.809a50.766,50.766,0,0,0-.555,7.768,33.407,33.407,0,0,0,.2,3.784,33.963,33.963,0,0,0,.657,3.766l-.014-.05.041.166h0l0,.014.007.032v0c.209.919.462,1.819.728,2.72.286.966.575,1.933.885,2.888l0,0,.007-.007c-.23-.86-.437-1.719-.637-2.586C334.267,256.988,334.03,255.754,333.858,254.505Z" transform="translate(-320.315 -131.835)" fill="#72c484"/>
      <path id="Path_927" data-name="Path 927" d="M339.8,252.372c-.409-.8-.782-1.612-1.126-2.442-.357-.866-.68-1.747-.978-2.631-.2-.589-.378-1.185-.555-1.781-.168-.569-.334-1.139-.489-1.71-.309-1.126-.6-2.251-.862-3.388,0-.027-.011-.052-.016-.077l0,.023c-.236-1.055-.462-2.113-.653-3.175-.186-1.046-.341-2.1-.457-3.156-.13-1.189-.221-2.388-.248-3.582-.029-1.23-.009-2.461.034-3.691l0,.023c.064-1.626.175-3.254.4-4.867.168-1.228.412-2.445.7-3.65.266-1.119.555-2.238.889-3.338v0a.351.351,0,0,1,.016-.052h0a.833.833,0,0,1,.055-.148c0-.011-.014-.016-.016-.007a2.494,2.494,0,0,0-.093.257c-.055.159-.109.321-.161.48-.107.327-.212.653-.314.98l0-.011c-.02.075-.045.148-.07.221l0-.009c-.023.07-.048.143-.068.216l0,0a.723.723,0,0,0-.032.091h0l-.039.111v0c-.016.066-.036.13-.059.2v0c-.061.2-.123.412-.186.614l0-.014c-.393,1.255-.744,2.529-1.021,3.814q-.389,1.808-.625,3.645c-.161,1.248-.28,2.5-.321,3.764v-.025c0,.114-.009.232-.014.35,0-.041,0-.08.007-.118-.039,1-.018,2,.03,3.009.027.6.066,1.205.132,1.806s.127,1.189.227,1.778.2,1.18.316,1.762c.137.675.282,1.344.434,2.01l.011.05v.009c.2.878.409,1.749.657,2.606.173.6.357,1.192.546,1.785.184.564.366,1.126.564,1.685a36.282,36.282,0,0,0,1.458,3.486,31.576,31.576,0,0,0,1.731,3.222q1.024,1.617,2.113,3.186l0,0,.007-.007c-.682-1.087-1.362-2.179-1.958-3.316Z" transform="translate(-319.246 -114.199)" fill="#72c484"/>
      <path id="Path_928" data-name="Path 928" d="M383.3,216.541h0v0Z" transform="translate(-255.793 -111.877)" fill="#72c484"/>
      <path id="Path_929" data-name="Path 929" d="M387.21,239.23l0,0-.032-.018Z" transform="translate(-250.845 -82.99)" fill="#72c484"/>
      <path id="Path_930" data-name="Path 930" d="M399.129,204.414c.509-.366,1.023-.725,1.546-1.073s1.053-.669,1.583-1q1.6-.986,3.206-1.949c.011,0,0-.018-.007-.014-.992.514-1.976,1.039-2.961,1.562s-1.978,1.035-2.938,1.61c-1.062.639-2.108,1.317-3.12,2.035s-1.983,1.462-2.934,2.24q-.788.648-1.553,1.319c-.459.4-.9.828-1.342,1.251s-.866.86-1.289,1.3-.828.885-1.221,1.342c-.791.923-1.537,1.885-2.251,2.868-.721,1-1.41,2.022-2.085,3.052s-1.364,2.079-1.96,3.172c-.282.523-.546,1.055-.785,1.6q-.294.669-.539,1.362l.009.007,0,0a18.44,18.44,0,0,1,1.035-2.2c.441-.8.953-1.558,1.471-2.308v0c.257-.357.509-.709.766-1.062.73-.982,1.49-1.938,2.256-2.888s1.553-1.86,2.363-2.763c.407-.455.821-.9,1.246-1.342s.835-.862,1.262-1.28c.443-.43.882-.855,1.342-1.262s.939-.819,1.408-1.223c.123-.1.243-.207.366-.309l-.014.007.034-.027.011,0h0l.016-.014v0l0,0,.009-.007,0,0,.353-.3v0c.741-.614,1.476-1.233,2.233-1.828Q397.865,205.328,399.129,204.414Z" transform="translate(-259.387 -132.468)" fill="#72c484"/>
      <path id="Path_931" data-name="Path 931" d="M382.838,215.243l.007-.014v0l0,0a5.943,5.943,0,0,1,.393-.5c.189-.225.384-.448.587-.664.387-.414.792-.807,1.2-1.2.88-.837,1.774-1.656,2.7-2.442l-.032.03c.5-.423,1-.835,1.51-1.244s1-.8,1.506-1.194c.98-.76,1.978-1.494,3-2.2s2.083-1.43,3.138-2.126c1.039-.687,2.09-1.349,3.145-2.01q1.613-1.013,3.227-2.024c0-.007,0-.016-.011-.011q-1.723.87-3.429,1.767c-1.133.589-2.267,1.169-3.37,1.806a34.613,34.613,0,0,0-3.109,2.017c-.5.359-.985.721-1.462,1.1q-.768.611-1.51,1.258c-.946.83-1.869,1.681-2.786,2.542-.9.851-1.765,1.74-2.62,2.64-.416.437-.826.876-1.217,1.333-.193.221-.378.448-.557.682-.112.146-.23.293-.325.448l0,.009Z" transform="translate(-256.399 -133.41)" fill="#72c484"/>
      <path id="Path_932" data-name="Path 932" d="M407.078,200.345c-1.224.143-2.44.314-3.65.53a32.892,32.892,0,0,0-3.568.809,29.812,29.812,0,0,0-3.5,1.249,25.813,25.813,0,0,0-3.3,1.7c-1.055.653-2.085,1.351-3.106,2.063a28.294,28.294,0,0,0-2.761,2.117h0l-.007,0v.014h0l.02-.014c.039-.034.08-.066.114-.1l0,0a20.124,20.124,0,0,1,2.74-1.862c.955-.557,1.922-1.108,2.918-1.59l-.023.014c.691-.334,1.39-.648,2.1-.932.569-.232,1.139-.457,1.717-.669.553-.2,1.105-.4,1.665-.591,1.164-.4,2.329-.787,3.513-1.117,1.169-.323,2.347-.621,3.525-.919,1.219-.307,2.431-.63,3.65-.93l0-.014C408.444,200.185,407.76,200.263,407.078,200.345Z" transform="translate(-250.842 -132.815)" fill="#72c484"/>
      <path id="Path_933" data-name="Path 933" d="M421.079,224.6l0,0v.006Z" transform="translate(-207.661 -101.604)" fill="#72c484"/>
      <path id="Path_934" data-name="Path 934" d="M424.261,225.72c-.064-.594-.148-1.189-.237-1.781-.087-.564-.175-1.13-.287-1.692s-.234-1.1-.373-1.649c-.312-1.242-.719-2.454-1.13-3.661v.007c-.009-.03-.021-.061-.03-.093l0-.011v0l-.011-.027,0-.009,0,0,0-.009c-.023-.071-.048-.141-.073-.209v0l0,0c-.025-.077-.052-.157-.082-.241-.191-.541-.391-1.082-.616-1.615-.209-.5-.434-.985-.669-1.471-.248-.507-.5-1.01-.762-1.51-.125-.243-.25-.489-.387-.725-.089-.148-.184-.293-.277-.437v0c-.014-.014-.023-.041-.034-.055l-.014.011,0,0,0,0c.025.039.048.08.075.118v0a5.879,5.879,0,0,1,.409.776q.235.508.448,1.03c.28.691.537,1.389.778,2.1.346,1.053.621,2.126.875,3.2.132.559.262,1.121.378,1.685.111.548.227,1.094.334,1.644.214,1.139.391,2.285.523,3.436s.271,2.317.359,3.477c0,.043.007.086.009.127v-.011l0,.025v.034l0,.016h0c.057.871.084,1.742.07,2.618-.016.928-.061,1.858-.111,2.784-.13,2.374-.4,4.735-.723,7.086-.157,1.146-.321,2.292-.509,3.436-.189,1.164-.384,2.324-.607,3.484v-.007l0,.011,0,0,0,.011-.007.03,0,.007v0l0,0v.014l0,0-.007.043.009-.059,0-.011-.014.07c-.234,1.169-.5,2.331-.848,3.473-.182.6-.366,1.194-.571,1.785-.212.612-.437,1.219-.66,1.828l.007.011.007-.007c.7-1.59,1.423-3.179,1.992-4.823.393-1.132.707-2.285,1-3.45q.426-1.7.764-3.411l-.007.025.009-.043a.722.722,0,0,0,.016-.075l0,.016c.018-.086.036-.175.052-.262.014-.064.027-.127.041-.2l-.007.023.014-.061,0-.025,0-.011,0-.011,0,0v0l0-.023,0,.02v0c.146-.737.289-1.476.407-2.217.111-.7.216-1.4.318-2.1.164-1.148.259-2.3.332-3.463.041-.628.08-1.258.1-1.888.016-.587.025-1.169.03-1.756.011-1.212-.045-2.426-.146-3.639C424.373,226.871,424.325,226.293,424.261,225.72Zm-2.072-8.912h0v0Z" transform="translate(-209.958 -119.526)" fill="#72c484"/>
      <path id="Path_935" data-name="Path 935" d="M427.12,232.252c.13-.591.255-1.178.348-1.774.171-1.071.3-2.149.4-3.229.052-.546.107-1.1.161-1.644.055-.512.109-1.023.207-1.53.027-.123.057-.248.1-.368l-.014,0a8.926,8.926,0,0,0-.289,1.235c-.1.532-.2,1.067-.3,1.6l.007-.027c-.009.041-.016.082-.023.123v0q-.212,1.051-.466,2.088c-.189.769-.412,1.53-.63,2.29-.161.566-.327,1.13-.509,1.687s-.384,1.137-.594,1.7a33.393,33.393,0,0,1-1.405,3.268c-.087.17-.173.337-.259.507A33.181,33.181,0,0,1,422,241.28c-.7,1.039-1.426,2.056-2.169,3.061-.723.978-1.46,1.951-2.208,2.911-.384.491-.769.985-1.164,1.469-.382.466-.778.926-1.18,1.378-.355.393-.712.773-1.076,1.155l0,.014,0,0q1.16-1.058,2.295-2.154c.878-.846,1.71-1.744,2.515-2.663s1.619-1.876,2.4-2.84,1.546-1.94,2.226-2.972c.334-.5.655-1.016.946-1.546.321-.584.616-1.182.894-1.792a23.659,23.659,0,0,0,1.217-3.382C426.858,233.368,427,232.811,427.12,232.252Z" transform="translate(-216.419 -102.755)" fill="#72c484"/>
      <path id="Path_936" data-name="Path 936" d="M393.544,195.083h0Z" transform="translate(-242.74 -139.218)" fill="#72c484"/>
      <path id="Path_937" data-name="Path 937" d="M400.575,194.622l.009,0-.013,0Z" transform="translate(-233.787 -139.807)" fill="#72c484"/>
      <path id="Path_938" data-name="Path 938" d="M382.862,191.343c-1.269-.041-2.538-.032-3.809-.007-1.253.02-2.511.079-3.761.193-1.267.114-2.531.234-3.791.416-1.29.189-2.574.421-3.852.687-1.249.259-2.49.559-3.725.882s-2.44.675-3.648,1.051-2.4.778-3.593,1.212c-1.221.448-2.436.91-3.636,1.41-1.148.475-2.281,1-3.384,1.562l.009-.009c-.953.487-1.892.989-2.82,1.524-.86.493-1.7,1.021-2.533,1.558-1.055.685-2.083,1.4-3.111,2.124-1.062.746-2.133,1.483-3.193,2.233l0,.011h0c.826-.514,1.651-1.026,2.483-1.528q1.648-1,3.318-1.949c.537-.309,1.076-.614,1.624-.9s1.11-.582,1.665-.869c1.99-.994,4.023-1.9,6.072-2.761a70.813,70.813,0,0,1,7.152-2.531c1.248-.375,2.506-.723,3.768-1.053,1.162-.3,2.324-.578,3.493-.832,1.066-.216,2.138-.418,3.209-.589,1.089-.175,2.179-.323,3.27-.45q3.759-.44,7.545-.532c1.267-.027,2.536-.039,3.8-.02,1.244.02,2.488.08,3.73.155h-.009c.255.018.507.034.764.05,1.233.084,2.463.2,3.691.348q.924.113,1.842.266c.289.048.575.1.862.159.168.034.334.08.505.1.011,0,.013-.014,0-.016a3.95,3.95,0,0,1-.4-.086c-.252-.061-.507-.118-.76-.175-.525-.111-1.053-.223-1.585-.318-1.21-.218-2.429-.412-3.645-.591-1.262-.184-2.524-.346-3.793-.473C385.377,191.466,384.119,191.379,382.862,191.343Z" transform="translate(-313.492 -144.019)" fill="#72c484"/>
      <path id="Path_939" data-name="Path 939" d="M356.168,193.493c-1.185.339-2.365.712-3.529,1.126q-.907.324-1.812.669c-.591.227-1.178.468-1.765.7-1.119.457-2.229.953-3.307,1.5-.07.034-.134.068-.2.1l.034-.018q-1.156.587-2.288,1.217-1.173.641-2.329,1.314l0,.016,0,0c.425-.221.848-.443,1.276-.662l0,0c.189-.091.38-.186.569-.284q1.648-.822,3.35-1.519c1.158-.478,2.34-.9,3.529-1.312,2.329-.805,4.691-1.53,7.07-2.2s4.787-1.294,7.214-1.808l-.025.007c.923-.191,1.854-.366,2.781-.523.9-.15,1.8-.289,2.7-.4,1.23-.155,2.463-.309,3.7-.4.61-.046,1.221-.086,1.831-.111.655-.025,1.31-.046,1.965-.057,1.226-.02,2.451-.043,3.675-.082.618-.02,1.237-.045,1.853-.068.484-.016.967-.041,1.449-.046v-.014c-.6-.007-1.205,0-1.81,0-1.246,0-2.5-.018-3.745-.068-1.219-.048-2.44-.111-3.664-.109-1.271,0-2.545.05-3.814.15-1.237.1-2.467.248-3.7.428-2.483.362-4.944.887-7.382,1.492C358.595,192.836,357.378,193.152,356.168,193.493Z" transform="translate(-309.72 -145.1)" fill="#72c484"/>
      <path id="Path_940" data-name="Path 940" d="M335.546,207.342q1.323-1.133,2.69-2.211c.992-.782,2-1.537,3.031-2.267s2.085-1.428,3.147-2.113c1.032-.66,2.085-1.3,3.147-1.91.523-.3,1.053-.6,1.585-.891s1.066-.566,1.6-.844c.637-.312,1.269-.628,1.913-.923.689-.316,1.376-.623,2.069-.923,1.121-.491,2.256-.96,3.391-1.421,1.158-.471,2.32-.921,3.5-1.335s2.347-.787,3.541-1.119c.61-.171,1.228-.337,1.847-.493.6-.148,1.2-.284,1.806-.412l0,0c.261-.055.525-.107.791-.159a3.053,3.053,0,0,1,.5-.068c.011,0,.007-.016,0-.016a4.958,4.958,0,0,0-.707.086c-.321.055-.641.109-.96.171-1.221.232-2.436.5-3.643.782s-2.413.6-3.6.976c-1.2.377-2.4.773-3.582,1.21s-2.381.891-3.557,1.362-2.306.985-3.432,1.533c-.539.262-1.073.537-1.6.816-.555.3-1.105.591-1.649.9s-1.1.641-1.642.98-1.055.662-1.565,1.014-1.023.71-1.524,1.082-.973.725-1.449,1.1c-1,.787-1.967,1.6-2.9,2.463s-1.858,1.724-2.756,2.615l0,.014Z" transform="translate(-316.648 -145.391)" fill="#72c484"/>
      <path id="Path_941" data-name="Path 941" d="M371.32,269.941c-2.038-.855-4.052-1.769-6.029-2.761-1.128-.568-2.254-1.142-3.363-1.744-.587-.321-1.173-.641-1.758-.966-.555-.312-1.1-.637-1.653-.957-.5-.291-.992-.6-1.478-.914-.539-.348-1.078-.7-1.61-1.062-1.053-.716-2.083-1.467-3.1-2.229q-.969-.754-1.919-1.524c-.625-.509-1.235-1.037-1.847-1.565-1.89-1.637-3.709-3.359-5.465-5.139a69.062,69.062,0,0,1-4.917-5.533c-.28-.359-.557-.716-.823-1.082a64.388,64.388,0,0,1-4.034-6.322c-1.226-2.188-2.358-4.426-3.361-6.727l-.027-.064.007.02c-.023-.055-.045-.109-.066-.161h0c-.227-.541-.443-1.087-.639-1.642-.143-.407-.264-.823-.384-1.237l-.014,0c.1.341.177.689.277,1.03.136.464.28.93.434,1.389.327.946.664,1.89,1.03,2.822q.7,1.767,1.492,3.5c.512,1.11,1.046,2.21,1.621,3.286.309.582.632,1.153.955,1.731.316.557.659,1.1,1.005,1.64.325.514.669,1.019,1.019,1.517.359.514.723,1.028,1.112,1.521a62.359,62.359,0,0,0,4.116,4.814c1.715,1.819,3.532,3.548,5.417,5.192.944.823,1.894,1.633,2.881,2.4,1.055.819,2.131,1.615,3.225,2.374a58.772,58.772,0,0,0,6.465,3.959c1.11.575,2.247,1.11,3.388,1.617,1.189.527,2.4,1.023,3.614,1.489,1.139.434,2.295.828,3.448,1.226,1.219.418,2.442.816,3.682,1.178h0v-.011c-.917-.346-1.824-.7-2.729-1.078Z" transform="translate(-325.181 -96.855)" fill="#72c484"/>
      <path id="Path_942" data-name="Path 942" d="M352.578,258.119c-.514-.357-1.028-.712-1.535-1.083-.264-.193-.53-.384-.794-.58-.239-.177-.475-.359-.714-.534-.109-.082-.216-.164-.323-.246h0c-.039-.025-.073-.052-.109-.08l-.027-.021h0l0,0h0l-.057-.046,0,0c-1.508-1.153-3-2.335-4.414-3.609-.91-.821-1.78-1.685-2.633-2.567-.873-.9-1.731-1.817-2.561-2.756q-1.266-1.433-2.492-2.886c-.778-.91-1.521-1.849-2.267-2.788l-.014-.014-.007-.009,0,0-.027-.032,0,0-.011-.014.011.011c-.1-.121-.189-.239-.284-.364l0,0-.009-.011,0,0-.013-.018h0l-.009-.011,0,0c-.3-.387-.6-.773-.9-1.167-.732-.957-1.444-1.931-2.133-2.911-.35-.5-.7-1-1.03-1.512-.171-.257-.337-.516-.493-.782a4.847,4.847,0,0,1-.334-.612v0l-.021-.057a.008.008,0,0,0-.016,0,3.242,3.242,0,0,0,.221.466c.134.255.273.512.414.762.289.514.587,1.023.887,1.53.584.987,1.187,1.969,1.808,2.938,1.344,2.1,2.709,4.184,4.246,6.145l.011.014.018.027v0l.007.011h0l0,0,0,.007.023.025-.014-.011c.953,1.212,1.942,2.395,2.986,3.532.853.926,1.721,1.84,2.617,2.729a36.5,36.5,0,0,0,2.8,2.495c.994.8,2.022,1.553,3.075,2.269s2.129,1.4,3.227,2.04c1.076.628,2.176,1.212,3.282,1.787q1.709.89,3.438,1.753l0,0,0-.018c-.935-.575-1.858-1.167-2.779-1.762C354.618,259.5,353.59,258.821,352.578,258.119Z" transform="translate(-324.511 -90.371)" fill="#72c484"/>
      <path id="Path_943" data-name="Path 943" d="M328.978,234.6v0l0,0Z" transform="translate(-325.011 -88.883)" fill="#72c484"/>
      <path id="Path_944" data-name="Path 944" d="M333.584,241.359l.007.011,0,0Z" transform="translate(-319.137 -80.256)" fill="#72c484"/>
      <path id="Path_945" data-name="Path 945" d="M344.451,259.831c-.291-.3-.58-.6-.857-.917-.587-.653-1.151-1.328-1.692-2.019l.014.02c-.025-.034-.052-.066-.075-.1v0l-.034-.045-.016-.02,0,0-.011-.016,0,.007-.075-.1h0l0,0-.018-.018-.009-.011-.027-.039-.007-.007,0,0v0l-.066-.084.034.043c-.739-.948-1.442-1.919-2.14-2.9s-1.369-1.958-2.026-2.956a62.246,62.246,0,0,1-3.766-6.445c-.564-1.128-1.121-2.265-1.646-3.413q-.409-.894-.805-1.79c-.243-.557-.48-1.117-.718-1.674l0,.007-.009-.02v0l-.016-.03v0c-.087-.209-.175-.414-.262-.621.011.027.025.057.037.086-.012-.025-.023-.05-.034-.077l0,.007a.212.212,0,0,0-.018-.041l0-.009-.014-.032c-.307-.746-.621-1.5-.935-2.24l0-.016-.014-.032c-.073-.177-.148-.352-.221-.532l.021.057c-.066-.157-.13-.316-.2-.475v0c-.546-1.326-1.087-2.649-1.6-3.982h-.011c.382,1.392.8,2.772,1.226,4.15.371,1.2.755,2.4,1.169,3.593s.853,2.376,1.344,3.541c.066.159.132.316.2.475l0-.007.007.025,0,0,0,0v0l0,0v0l.009.016h0l0,0v0l0,.011,0,0,0,0h0l.016.027c.011.036.027.07.039.1v-.007l.007.016-.007-.009.023.046c.252.607.523,1.21.81,1.8.544,1.142,1.117,2.267,1.744,3.363.659,1.144,1.346,2.265,2.074,3.366a55.713,55.713,0,0,0,4.587,5.963c.812.928,1.639,1.842,2.515,2.7.441.428.889.848,1.342,1.258.228.2.455.409.691.6a2.36,2.36,0,0,0,.441.323l0,0,0-.014a1.038,1.038,0,0,1-.132-.091A8.659,8.659,0,0,1,344.451,259.831Z" transform="translate(-327.231 -95.507)" fill="#72c484"/>
      <path id="Path_946" data-name="Path 946" d="M415.14,244.849l.007.007.009,0c.225-.616.441-1.23.655-1.849.4-1.16.787-2.324,1.13-3.5.184-.63.359-1.26.523-1.9.141-.559.282-1.128.4-1.7v0l0-.009v-.009a.318.318,0,0,0,.011-.057v0l0-.009v0l0,0h0c.1-.469.193-.939.275-1.415a31.41,31.41,0,0,0,.427-3.716c.034-.6.05-1.21.05-1.81,0-.641,0-1.285-.041-1.922v.03c-.045-1.042-.134-2.079-.259-3.116-.155-1.239-.332-2.474-.578-3.7-.125-.612-.266-1.228-.439-1.831a7.313,7.313,0,0,0-.55-1.38c0-.011-.014,0-.011.007a7.051,7.051,0,0,1,.311.8,15.763,15.763,0,0,1,.482,2.6c.1.839.159,1.683.214,2.527v-.025l0,.05,0-.025,0,.03c.032.921.077,1.84.077,2.763,0,.639,0,1.278-.023,1.919-.018.612-.052,1.226-.089,1.837-.077,1.228-.193,2.454-.346,3.67-.077.632-.166,1.26-.259,1.888s-.2,1.237-.3,1.858c-.093.591-.2,1.18-.312,1.772s-.227,1.2-.346,1.8c-.15.744-.3,1.485-.477,2.224S415.331,244.115,415.14,244.849Z" transform="translate(-215.225 -111.366)" fill="#72c484"/>
      <path id="Path_947" data-name="Path 947" d="M413.917,242.709c.466-1.139.932-2.276,1.365-3.427.443-1.178.864-2.365,1.226-3.573a25.052,25.052,0,0,0,.8-3.609,31.618,31.618,0,0,0,.323-3.739c.034-1.244.009-2.486-.068-3.727a.679.679,0,0,0,.007.068c-.023-.434-.068-.864-.109-1.3-.043-.4-.087-.812-.152-1.217-.071-.432-.148-.86-.25-1.283a5.511,5.511,0,0,1-.2-.846c0-.011-.016-.014-.016,0a1.173,1.173,0,0,0,.03.216c.027.161.059.323.086.482a9.646,9.646,0,0,1,.13,1.114v0a26.3,26.3,0,0,1-.1,3.359c-.055.6-.116,1.192-.184,1.787-.061.53-.139,1.058-.2,1.587-.15,1.214-.341,2.424-.516,3.634s-.375,2.424-.6,3.629c.011-.036.016-.08.025-.116-.034.166-.064.334-.1.5v0l0,.014,0,0h0l0,.011,0,.021,0,0,0,.016,0,.023,0,.023v0c-.027.13-.055.259-.08.389q-.6,3-1.4,5.96l.007.009Z" transform="translate(-216.801 -107.404)" fill="#72c484"/>
      <path id="Path_948" data-name="Path 948" d="M421.43,203.032c-1.028-.762-2.081-1.492-3.175-2.163-1.069-.655-2.185-1.235-3.311-1.79-1.076-.525-2.154-1.046-3.241-1.546-.553-.262-1.114-.512-1.681-.746-.546-.227-1.094-.455-1.628-.716h0c-.241-.123-.487-.246-.73-.362h0l-.089-.046h0c-.114-.055-.227-.114-.343-.161a.418.418,0,0,0-.139-.048v.018h.016a.511.511,0,0,1,.116.045c.471.234.916.516,1.369.785.507.3,1.032.575,1.546.866,1.005.569,1.96,1.221,2.938,1.837,1.046.66,2.09,1.317,3.1,2.038s1.983,1.492,2.945,2.279c.98.8,1.947,1.615,2.918,2.422.905.748,1.8,1.5,2.683,2.267l.025.02,0,0v0l.055.048,0-.007.03.025.075.068,0,0c.355.316.709.637,1.067.953l0,0,.025.023-.009-.009.023.02-.007-.007c.3.264.591.528.891.794.107.091.211.186.316.277h0l.018.016a.516.516,0,0,1,.052.046l.043.039-.018-.018.025.018.007.011c.043.036.084.073.125.111.146.127.3.259.441.389l0-.007c.025.025.052.048.08.073l-.018-.018c.1.093.214.191.323.282l.021.02c.443.387.889.778,1.33,1.164q1.15,1.013,2.306,2.01l.482.421,0,0c.1.093.209.184.316.278.03.027.061.055.091.08.83.751,1.669,1.5,2.492,2.265q1.293,1.2,2.552,2.436h0l.009-.009c-.214-.286-.425-.571-.641-.855-1.51-1.985-3-3.989-4.653-5.863-.823-.939-1.687-1.84-2.572-2.72-.855-.853-1.721-1.7-2.62-2.506-1-.9-2.026-1.749-3.07-2.588C423.37,204.52,422.413,203.76,421.43,203.032Z" transform="translate(-225.468 -138.744)" fill="#72c484"/>
      <path id="Path_949" data-name="Path 949" d="M411.555,246.645c-2.508-.2-5.019-.357-7.52-.628-1.3-.139-2.593-.284-3.882-.464s-2.556-.371-3.83-.571c-1.205-.189-2.411-.4-3.6-.655-.594-.125-1.185-.25-1.776-.391-.63-.15-1.255-.312-1.883-.473.025,0,.046.011.071.018-1.062-.3-2.126-.619-3.157-1.023-.518-.2-1.032-.416-1.535-.646-.223-.1-.446-.2-.66-.316-.159-.082-.311-.177-.475-.246-.009,0-.016.009,0,.016a1.152,1.152,0,0,1,.148.08h0c.173.1.343.207.516.307l-.007,0a35.706,35.706,0,0,0,6.827,3.031c.562.189,1.126.368,1.694.532.609.173,1.226.352,1.842.5,1.226.3,2.456.587,3.7.812,2.549.468,5.117.832,7.691,1.126,2.486.286,4.982.432,7.484.473.352.009.7.014,1.057.014q1.634,0,3.266-.1c1.219-.08,2.431-.189,3.645-.291,1.276-.109,2.547-.223,3.816-.366l0-.018q-3.029-.078-6.047-.223C416.474,247.018,414.011,246.836,411.555,246.645Z" transform="translate(-255.799 -80.396)" fill="#72c484"/>
      <path id="Path_950" data-name="Path 950" d="M396.607,244.279l-.152,0h-.021Z" transform="translate(-239.059 -76.543)" fill="#72c484"/>
      <path id="Path_951" data-name="Path 951" d="M396.205,170.676a6.888,6.888,0,0,1,.182,1.33c.041.48.059.964.075,1.444v.027l0,.009v-.007c0,.025,0,.052,0,.077l0,0c.036,1.178.05,2.358.087,3.543l0-.007c.007.161.009.325.014.489l0,0,0,.048v.009l0,.016v.036a.169.169,0,0,0,0,.048l0-.018,0,.02v0l.014.539v.011c0,.209.009.423.018.63v.007l0,.043v0c0,.23.009.466.016.7v0l0,.039.014.366,0-.084c0,.089.007.18.007.268v-.03l0,.036,0-.007,0,.034v0l0-.02c0,.025,0,.052,0,.077v0c.021.648.046,1.292.068,1.937.023.58.039,1.162.066,1.74.009.257.018.512.03.769.014.528.034,1.051.057,1.578v-.023l0,.057v.023l0,.041v-.03q.014.4.034.805c.02.662.059,1.328.089,1.992q.048,1.078.1,2.16c.061,1.242.12,2.488.193,3.734.05.973.1,1.947.161,2.92.393-.034.787-.066,1.183-.091q-.061-.819-.118-1.637c-.091-1.283-.2-2.563-.293-3.846-.182-2.529-.332-5.062-.516-7.591-.18-2.472-.425-4.939-.669-7.409-.123-1.237-.232-2.476-.366-3.716-.064-.621-.13-1.239-.216-1.86a6.51,6.51,0,0,0-.278-1.383c0-.009-.018,0-.016.009a1.448,1.448,0,0,1,.05.15Z" transform="translate(-239.414 -170.517)" fill="#72c484"/>
      <path id="Path_952" data-name="Path 952" d="M402.123,191.436l.043,0c.341-.71.68-1.421,1.005-2.138q.778-1.723,1.46-3.484c.439-1.153.855-2.315,1.26-3.479.218-.628.441-1.253.655-1.881.2-.582.389-1.164.584-1.749.361-1.087.664-2.195,1.037-3.277l-.011,0c-.325.764-.623,1.54-.935,2.308q-.519,1.293-1.069,2.57c-1.01,2.329-2.051,4.639-3.106,6.947-.625,1.364-1.255,2.722-1.9,4.073.157.007.309.016.464.036C401.78,191.385,401.953,191.41,402.123,191.436Z" transform="translate(-233.059 -164.26)" fill="#72c484"/>
      <path id="Path_953" data-name="Path 953" d="M404.179,189.972a4.4,4.4,0,0,1,.732.321c.091.048.18.1.268.146.243-.273.48-.548.719-.826,1.633-1.894,3.179-3.861,4.7-5.849.764-1,1.505-2.01,2.254-3.02.362-.493.712-1,1.069-1.492.177-.25.355-.493.537-.741l.239-.332c.045-.061.093-.123.134-.191l-.014-.007c-.061.07-.114.148-.17.218l-.284.346c-.2.232-.391.462-.587.691q-.644.757-1.3,1.5c-1.678,1.9-3.379,3.78-5.078,5.663q-1.614,1.784-3.229,3.566Z" transform="translate(-229.2 -161.007)" fill="#72c484"/>
      <path id="Path_954" data-name="Path 954" d="M407.381,190.32c.216.2.427.4.639.6q1.852-.982,3.7-1.974,3.421-1.842,6.811-3.752,1.63-.921,3.266-1.837.819-.454,1.646-.9c.266-.143.53-.287.8-.428.23-.118.468-.225.7-.35l-.007-.009c-.223.1-.455.2-.678.3-.264.121-.525.243-.784.364-.509.241-1.014.482-1.519.728l-3.266,1.583q-3.452,1.682-6.872,3.434-1.705.873-3.416,1.74C408.057,189.984,407.72,190.152,407.381,190.32Z" transform="translate(-225.111 -156.314)" fill="#72c484"/>
      <path id="Path_955" data-name="Path 955" d="M414.6,189.74c.639-.139,1.276-.273,1.919-.391.3-.057.612-.111.921-.166a5.3,5.3,0,0,0,.562-.1l0-.016a6.963,6.963,0,0,1-.844.091c-.38.032-.762.064-1.144.1-.819.068-1.633.171-2.451.264-1.205.139-2.411.3-3.614.459q-.72.1-1.439.2c-.23.314-.466.63-.7.944,1.008-.184,2.015-.382,3.018-.582Q412.713,190.148,414.6,189.74Z" transform="translate(-224.571 -146.889)" fill="#72c484"/>
      <path id="Path_956" data-name="Path 956" d="M411.992,193.231c.3-.007.607-.016.912-.03.823-.014,1.64-.039,2.461-.009.443.02.882.043,1.321.091a10.361,10.361,0,0,1,1.2.209v0a5.873,5.873,0,0,1,.664.227c.086.043.173.082.257.127a.769.769,0,0,0,.089.041h0a.007.007,0,0,0,0-.014l-.045-.023,0,0a6.076,6.076,0,0,0-.941-.473c-.214-.077-.425-.155-.646-.214-.237-.066-.477-.125-.716-.184h-.009l-.027-.009a18.625,18.625,0,0,0-2.586-.366c-.848-.073-1.7-.1-2.547-.121-1.21-.027-2.42-.023-3.63-.034-.455,0-.91-.009-1.365-.018-.139.214-.277.421-.416.63-.091.139-.184.275-.275.414.321-.007.641-.016.962-.025h-.029c1.792-.055,3.584-.134,5.374-.218Z" transform="translate(-227.253 -142.596)" fill="#72c484"/>
      <path id="Path_957" data-name="Path 957" d="M393.368,193.794c-.853.3-1.708.609-2.558.907q-1.828.631-3.671,1.239-.873.29-1.742.587c-.271.093-.541.186-.814.275-.109.039-.223.075-.33.116-.014.007-.066.016-.066.036l.011.007,0,0a.823.823,0,0,1,.173-.061v0c.721-.209,1.451-.4,2.176-.582,1.226-.314,2.456-.614,3.679-.946q1.774-.478,3.532-1h0l.016,0C393.64,194.174,393.5,193.983,393.368,193.794Z" transform="translate(-254.663 -140.86)" fill="#72c484"/>
      <path id="Path_958" data-name="Path 958" d="M381.235,192.3c.234.041.473.059.707.08.475.036.948.057,1.426.075,1.035.036,2.072.077,3.109.116,2.5.1,4.994.28,7.5.366.532.02,1.067.034,1.6.043-.041-.057-.082-.109-.125-.164-.2-.273-.407-.548-.612-.819-.464,0-.926.018-1.387.027-2.536.059-5.069.114-7.6.2h.039l-1.371.043h0c-.616.018-1.235.036-1.856.043a8.2,8.2,0,0,1-1.735-.093l0,0c-.039-.014-.079-.021-.116-.036l-.007-.007h0l0,.014c.02.032.114.043.145.05C381.042,192.26,381.14,192.278,381.235,192.3Z" transform="translate(-258.974 -143.153)" fill="#72c484"/>
      <path id="Path_959" data-name="Path 959" d="M381.774,184.948l.318.177.691.384h0c.03.016.057.034.086.048v0c.262.145.528.291.789.432l-.018-.007.061.032h0l.013.007.007,0h0c.134.071.266.146.4.218q1.17.655,2.34,1.321c.748.43,1.5.862,2.256,1.276.152.086.307.171.459.255q1.071.593,2.156,1.169c.13-.161.264-.318.4-.478.061-.068.121-.141.182-.209-1.205-.539-2.415-1.073-3.614-1.621-1.128-.512-2.249-1.039-3.372-1.565q-.829-.382-1.658-.762c-.275-.127-.548-.252-.821-.382-.248-.116-.5-.23-.739-.364v0a.819.819,0,0,1-.075-.045l0-.014-.014,0-.007.011c0,.011.014.016.023.023C381.678,184.889,381.728,184.918,381.774,184.948Z" transform="translate(-257.946 -152.296)" fill="#72c484"/>
      <path id="Path_960" data-name="Path 960" d="M386.385,181.8c.653.566,1.314,1.126,1.983,1.671,1,.823,2.013,1.633,3,2.465.964.807,1.913,1.64,2.818,2.513l-.089-.086c.073.068.146.139.216.207.209-.239.418-.482.625-.719-.155-.132-.312-.261-.469-.393-.516-.416-1.044-.823-1.576-1.223-.5-.378-1.019-.737-1.533-1.1s-1.021-.7-1.533-1.044c-.53-.357-1.051-.716-1.569-1.082-.5-.355-1-.712-1.489-1.082a16.34,16.34,0,0,1-1.412-1.158,3.538,3.538,0,0,1-.446-.528h0l-.011-.02-.014-.018-.011.009a3.543,3.543,0,0,0,.594.744C385.767,181.25,386.074,181.528,386.385,181.8Z" transform="translate(-253.777 -158.175)" fill="#72c484"/>
      <path id="Path_961" data-name="Path 961" d="M391.652,178.692q1.351,3.558,2.656,7.129c.43,1.173.855,2.351,1.285,3.525.443,1.208.9,2.406,1.339,3.616.057.159.116.321.175.484.186-.043.373-.066.559-.093.141-.02.277-.039.419-.057-.191-.482-.387-.96-.585-1.44-.459-1.114-.925-2.226-1.385-3.341q-1.464-3.544-2.977-7.066c-.985-2.267-1.992-4.521-3.006-6.77l-.014,0c.246.662.5,1.317.757,1.974C391.14,177.334,391.395,178.016,391.652,178.692Z" transform="translate(-247.105 -165.213)" fill="#72c484"/>
    </g>
    <text id="CuyInvitation" transform="translate(140 217.35)" fill="#72c484" font-size="31" font-family="SegoePrint, Segoe Print"><tspan x="0" y="0">CuyInvitation</tspan></text>
  </g>
</svg>
