<svg xmlns="http://www.w3.org/2000/svg" width="102" height="102.778" viewBox="0 0 102 102.778">
  <g id="Group_192" data-name="Group 192" transform="translate(-140 -10)">
    <g id="Group_162" data-name="Group 162" transform="translate(-186.231 -160.517)">
      <path id="Path_924" data-name="Path 924" d="M427.082,220.919a28.045,28.045,0,0,0-.256-3.244,25.763,25.763,0,0,0-.566-2.889c-.128-.486-.264-.968-.415-1.447a16.286,16.286,0,0,0-.559-1.542c-.193-.444-.4-.883-.625-1.309-.246-.458-.511-.909-.785-1.351-.572-.926-1.181-1.833-1.84-2.7-.29-.385-.585-.766-.9-1.129-.291-.337-.59-.663-.9-.984s-.629-.653-.956-.967c-.313-.3-.632-.584-.956-.868l.006,0-.106-.091-.018-.018q-.523-.453-1.06-.884a27.389,27.389,0,0,0-2.254-1.649,13.73,13.73,0,0,0-2.656-1.321c-.416-.156-.842-.277-1.267-.407-.543-.235-1.1-.45-1.66-.632a22.918,22.918,0,0,0-3.081-.748c-.106-.019-.213-.033-.319-.051.144-.211.291-.417.419-.64.082-.138.158-.28.239-.42.073-.121.148-.243.226-.362.008-.012.017-.026.026-.038h0v0l0,0,0,0h0l0,0,0-.005h0l.009-.017.252-.371-.009.011.028-.039v0h0l0,0,0,0v0h0c.078-.117.15-.236.225-.357.083-.137.171-.269.258-.4.059-.089.115-.178.169-.27l.038-.013a0,0,0,1,0,0-.006l-.03.007.014-.025a.263.263,0,0,0,.1-.085.25.25,0,0,0,.039-.173c0-.01.009-.018.013-.029a.065.065,0,0,0,0-.1.066.066,0,0,0-.066-.017h0a.436.436,0,0,0-.158-.118c.142-.177.283-.357.424-.536.317-.4.63-.8.942-1.208s.609-.785.91-1.182c.155-.205.306-.411.451-.623s.284-.424.428-.634.292-.437.433-.66a3.229,3.229,0,0,0,.177-.328.3.3,0,0,0,.034-.225.292.292,0,0,0-.063-.254l-.06-.053c-.041-.037-.085-.077-.13-.113-.077-.063-.157-.122-.232-.187-.107-.089-.212-.18-.319-.267-.156-.122-.309-.247-.465-.367-.19-.147-.379-.3-.566-.452-.685-.554-1.362-1.114-2.069-1.64-.357-.264-.717-.521-1.062-.8-.129-.106-.252-.221-.385-.32a.859.859,0,0,0-.136-.09.691.691,0,0,0-.165-.072.346.346,0,0,0-.235.007h-.039c-.027,0-.053,0-.079,0-.048,0-.093,0-.14,0-.131.006-.261.015-.392.023H405c-.384.022-.767.01-1.152.005-.243,0-.485,0-.727,0-.257,0-.513,0-.771,0-.553,0-1.107.02-1.659.035s-1.118.027-1.678.041-1.1.031-1.655.059c-.576.027-1.15.076-1.723.137-.541.057-1.079.127-1.616.207-.257.037-.514.074-.772.112-.119.018-.236.032-.354.057a.8.8,0,0,0-.226.075.269.269,0,0,0-.127.018.593.593,0,0,0-.135.093c-.026.024-.053.047-.077.072a1.207,1.207,0,0,1-.117.112c-.129.113-.256.227-.381.345-.164.157-.325.315-.489.472-.184.177-.367.355-.549.533-.379.382-.746.774-1.113,1.165-.192.205-.383.413-.567.624s-.347.407-.517.613-.331.413-.5.619c-.081.1-.162.2-.245.291l-.116.136a.511.511,0,0,0-.038.048c-.119.108.012.316.08.426.127.2.259.4.4.593.124.175.252.347.374.523l.359.524c.151.219.3.441.451.659s.3.431.453.647c.139.2.284.4.435.587.132.166.267.33.394.5.093.12.182.243.278.361.073.089.143.179.211.272l.149.207-.024.022a.225.225,0,0,0-.057.115l-.006,0a.089.089,0,0,0-.035-.019.068.068,0,0,0-.046.124.713.713,0,0,0,.054.094c.041.057.087.112.131.165.092.11.181.223.273.334.339.4.687.8,1.017,1.2.159.195.318.392.48.585q.222.263.451.518a18.88,18.88,0,0,0-2.175.835c-.452.207-.891.443-1.32.692s-.869.51-1.287.791q-.685.456-1.353.938c-.4.287-.791.592-1.176.9-.808.644-1.581,1.326-2.331,2.038-.449.426-.881.869-1.3,1.324-.148-.205-.3-.411-.449-.613-.328-.432-.66-.864-1.014-1.275-.328-.379-.665-.747-1.009-1.109s-.709-.738-1.079-1.091-.757-.7-1.144-1.038l.018.016c-.021-.02-.044-.038-.065-.057l-.006-.007v0q-.6-.518-1.209-1.011a31.164,31.164,0,0,0-2.543-1.86,15.425,15.425,0,0,0-3-1.49c-.471-.175-.952-.314-1.429-.458-.615-.267-1.239-.509-1.874-.712a25.907,25.907,0,0,0-3.475-.844,27.794,27.794,0,0,0-3.433-.375,31.738,31.738,0,0,0-3.512.046q-1.693.107-3.37.344a25.909,25.909,0,0,0-3.229.642,21,21,0,0,0-3.256,1.177c-.509.233-1,.5-1.49.78s-.979.577-1.451.893q-.773.513-1.527,1.056c-.452.326-.892.668-1.326,1.016-.912.727-1.784,1.5-2.629,2.3a31.461,31.461,0,0,0-2.534,2.711c-.363.435-.724.875-1.061,1.332s-.635.9-.932,1.363a34.26,34.26,0,0,0-1.794,3.191,29.963,29.963,0,0,0-1.377,3.129,26.369,26.369,0,0,0-.956,3.244,32.937,32.937,0,0,0-.615,3.461,21.952,21.952,0,0,0-.112,3.473,27.065,27.065,0,0,0,.373,3.506,32.849,32.849,0,0,0,.738,3.284,22.853,22.853,0,0,0,1.231,3.35,27.033,27.033,0,0,0,1.492,2.861,31.025,31.025,0,0,0,1.934,2.852,19,19,0,0,0,2.159,2.368c.441.4.9.784,1.375,1.151.43.335.87.659,1.323.966.472.319.957.62,1.459.9.536.3,1.09.563,1.648.816.522.24,1.046.471,1.581.681s1.057.382,1.593.543,1.1.3,1.655.45c.508.136,1.018.27,1.531.385q1.649.37,3.326.593a32.777,32.777,0,0,0,3.419.267q.52.016,1.037.016c.8,0,1.6-.028,2.4-.079.542-.035,1.085-.073,1.625-.127.569-.055,1.138-.13,1.7-.215,1.038-.156,2.072-.345,3.091-.6a35.848,35.848,0,0,0,3.508-1.1q1.573-.571,3.084-1.291c.878-.416,1.744-.861,2.581-1.354a24.106,24.106,0,0,0,2.656-1.831,27.8,27.8,0,0,0,2.4-2.143q.552-.551,1.074-1.129c.285.308.581.608.891.892.391.359.8.7,1.219,1.022.382.3.772.584,1.173.855.419.284.849.552,1.294.8.476.261.967.5,1.461.723.462.212.928.418,1.4.6s.937.338,1.412.483.979.268,1.468.4c.451.12.9.239,1.358.341.975.219,1.958.392,2.948.527a29.331,29.331,0,0,0,3.033.234c.307.008.614.015.921.015q1.063,0,2.125-.071c.481-.031.961-.064,1.441-.111.505-.05,1.009-.115,1.51-.191.92-.139,1.837-.3,2.741-.532a31.716,31.716,0,0,0,3.108-.972q1.392-.507,2.735-1.145c.778-.368,1.546-.762,2.288-1.2a21.146,21.146,0,0,0,2.355-1.623,25.831,25.831,0,0,0,3.973-3.952c.336-.418.664-.846.964-1.292a15.355,15.355,0,0,0,.828-1.389,24.56,24.56,0,0,0,1.2-2.665,25.49,25.49,0,0,0,.954-2.917,17.9,17.9,0,0,0,.5-3.143C427.065,223.033,427.106,221.975,427.082,220.919ZM403.19,196.409c-.458-.023-.917-.028-1.376-.024.261-.019.522-.037.781-.061s.53-.053.794-.083.538-.061.8-.109.519-.1.775-.164.508-.144.758-.228c.062-.021.122-.046.184-.068l-.107.141c-.115.153-.225.311-.339.466-.08.107-.165.211-.252.311C404.54,196.5,403.865,196.442,403.19,196.409ZM392.4,191.817c.06-.505.1-1.008.149-1.513.035-.4.068-.793.1-1.191q1.178-.048,2.354-.1,1.689-.075,3.379-.155l.594-.03c-.364.268-.728.534-1.1.8-.451.322-.9.646-1.346.976-.9.665-1.792,1.326-2.709,1.964-.443.308-.889.611-1.331.921-.1.068-.2.139-.295.208.015-.122.027-.246.039-.368C392.291,192.823,392.339,192.319,392.4,191.817Zm.455-4.744c.027-.263.043-.528.059-.792s.034-.544.051-.815.021-.515.022-.773c0-.086,0-.173,0-.26l.107.076c.106.076.211.151.317.226.222.156.442.313.665.468.449.31.906.612,1.365.908.932.6,1.871,1.193,2.794,1.807.192.128.381.257.569.387l-1.293.078q-1.7.106-3.4.22l-1.414.093Q392.771,187.884,392.852,187.074Zm12.6-2.971c.073-.069.145-.141.215-.214,0,.193.008.387.021.58l0-.033c.019.268.036.535.072.8.029.233.062.467.1.7.076.5.173,1,.265,1.49.028.156.057.31.086.466-.153.007-.307.013-.46.022-.539.029-1.079.052-1.618.084-1.1.065-2.2.117-3.3.184l-.255.016.509-.413c.43-.353.859-.705,1.291-1.055s.839-.676,1.255-1.02.814-.685,1.212-1.038Q405.155,184.393,405.456,184.1Zm.848,4.332c.032.186.063.371.091.557.039.261.081.521.116.781s.066.511.1.765c.077.52.145,1.038.2,1.56.022.2.041.4.062.594-.112-.071-.225-.142-.336-.215-.2-.132-.411-.256-.615-.385s-.439-.269-.66-.4c-.445-.263-.88-.546-1.32-.818-.475-.295-.951-.592-1.424-.892s-.939-.6-1.406-.9l-.513-.333q.552-.026,1.1-.056c.542-.029,1.085-.056,1.627-.087s1.094-.057,1.641-.091C405.42,188.485,405.863,188.46,406.3,188.434Zm-13.958,5.918q.383-.268.763-.538,1.35-.955,2.675-1.946c.889-.665,1.766-1.344,2.651-2.013.415-.315.832-.627,1.244-.948q.622.423,1.256.826c.465.3.934.582,1.407.865s.95.585,1.422.881c.436.274.872.542,1.317.8s.9.491,1.351.723l-.008,0,.02.01.019.009-.009,0q.241.126.472.269c-.23.007-.464.029-.695.043-.252.016-.506.028-.757.045-.526.032-1.053.049-1.577.083-1.088.069-2.171.172-3.252.286-.538.056-1.074.114-1.613.171s-1.065.1-1.6.135-1.092.063-1.639.1-1.1.085-1.644.125c-.527.039-1.051.077-1.578.1-.089,0-.178.009-.269.015Zm18.016-5.635q-.236.314-.473.632c-.149.2-.294.4-.446.6-.3.394-.613.782-.923,1.17l-.51.64c-.15.191-.3.387-.442.582l-.015.02c-.069-.5-.156-1-.237-1.5-.04-.254-.086-.506-.13-.761s-.086-.516-.132-.776-.091-.505-.14-.759c-.011-.054-.023-.109-.035-.164.438-.028.874-.055,1.313-.076.523-.025,1.048-.055,1.571-.072.262-.008.526-.008.788-.02.068,0,.138-.009.207-.015C410.625,188.381,410.491,188.547,410.363,188.717Zm-3.8-4.234c.341.256.685.508,1.022.767.714.547,1.374,1.156,2.091,1.7.3.229.611.451.92.671l0,0-.1,0c-.259.021-.519.047-.778.065s-.528.038-.792.054c-.52.031-1.04.065-1.562.089l-.6.029-.014-.063c-.127-.536-.258-1.071-.374-1.61-.11-.511-.213-1.028-.291-1.546-.032-.2-.058-.408-.085-.611l.028.022C406.2,184.2,406.377,184.348,406.559,184.484Zm-11.885-.3c.544-.075,1.091-.13,1.638-.182s1.088-.09,1.635-.127q1-.059,1.991-.081,1.669-.037,3.34-.008c.487.008.977.012,1.465.01.142,0,.281,0,.422,0,.093,0,.186,0,.279,0-.1.079-.2.159-.3.238-.233.188-.464.378-.695.568-.841.691-1.715,1.34-2.571,2.008-.428.335-.86.663-1.288,1q-.4.311-.8.618l-.031-.02q-.689-.428-1.381-.849c-.462-.282-.928-.562-1.389-.847-.48-.3-.967-.586-1.454-.869s-.962-.557-1.441-.838q-.344-.2-.691-.4l-.063-.034c.086-.01.172-.023.258-.035C393.955,184.283,394.313,184.23,394.673,184.182Zm-6.533,4.683c.146-.159.29-.317.438-.476.357-.388.72-.77,1.085-1.151s.732-.759,1.114-1.124c.362-.348.734-.688,1.113-1.02.138-.12.28-.236.422-.354.079-.063.157-.13.24-.188.042-.026.084-.052.124-.081.013-.009.027-.021.04-.031,0,.035-.007.069-.009.1-.012.217-.023.435-.047.651-.029.267-.067.532-.1.8s-.065.523-.1.783q-.1.821-.221,1.641c-.015.1-.026.206-.039.31-.487.033-.974.065-1.461.1-.553.04-1.107.079-1.66.124-.263.022-.526.045-.789.068l-.329.031C388.022,188.991,388.082,188.929,388.14,188.865Zm2.785,4.125c-.148-.178-.291-.362-.439-.54-.334-.407-.654-.82-.966-1.245-.15-.205-.3-.412-.451-.615-.142-.188-.291-.368-.437-.552-.165-.207-.313-.426-.469-.639-.032-.044-.063-.086-.1-.129l.246,0c1.1-.021,2.2-.065,3.3-.109.179-.006.358-.016.537-.023-.092.8-.155,1.605-.245,2.407-.056.506-.145,1.006-.239,1.507-.043.218-.085.435-.113.655l-.035-.037c-.086-.1-.169-.194-.255-.29C391.147,193.25,391.035,193.122,390.925,192.989Zm1.365,2.471c-.19-.19-.382-.376-.58-.558-.028-.026-.059-.05-.087-.076.037-.021.074-.041.11-.064l.018,0h.019a.362.362,0,0,0,.123-.024c.146.007.292.009.44.009h.28c.263,0,.526-.005.789-.013.548-.018,1.093-.034,1.642-.059s1.082-.032,1.622-.043,1.076-.023,1.613-.048,1.1-.072,1.646-.114l1.634-.127c.532-.04,1.065-.076,1.6-.1s1.083-.049,1.623-.086c.253-.018.51-.037.762-.071s.509-.079.764-.12c.231-.038.466-.06.7-.1.084-.016.168-.035.252-.054-.018.02-.034.04-.052.061l-.633.117c-.444.083-.887.168-1.334.236-.2.028-.394.051-.59.073-.259.031-.52.059-.779.088-.276.032-.551.073-.826.11s-.55.067-.825.1-.525.06-.788.087-.535.056-.8.078l-.791.063c-.551.046-1.1.086-1.654.119s-1.118.056-1.678.09c-.263.016-.527.036-.791.033-.127,0-.252,0-.38-.008-.068,0-.136-.005-.2-.005-.042,0-.083,0-.123,0h0c-.005,0-.007,0,0,.006a.2.2,0,0,0,.044.005l.119,0,.277.018c.185.012.369.021.553.022h.092c.248,0,.5,0,.744,0h.833c.557,0,1.115,0,1.673-.009.259,0,.52-.008.779-.018s.536-.024.8-.036.541-.028.812-.049c.129-.01.258-.022.384-.036.16-.018.319-.04.477-.065l-.044.006.138-.02c.39-.056.778-.1,1.167-.16s.762-.109,1.14-.186c.5-.1,1-.231,1.5-.361.208-.054.414-.111.619-.175l0,.005c-.032.037-.062.076-.092.114-.076.02-.151.037-.226.058-.164.047-.328.1-.492.146-.246.076-.49.152-.735.224s-.49.134-.735.193c-.531.128-1.066.23-1.605.312h0l-.014,0h-.011c-.29.041-.585.076-.877.11-.266.032-.531.061-.8.086s-.556.045-.834.073c-.256.025-.513.057-.772.081s-.547.047-.82.064c-.546.035-1.091.038-1.638.054-.269.007-.537.012-.806.013l-.408,0a2.73,2.73,0,0,1-.291-.008h0l-.022,0s-.007,0-.005.005l.017,0c.021,0,.042,0,.062.006.08.007.159.008.239.01.193.007.385.019.577.026.387.02.775.027,1.16.045.431.017.863.033,1.293.033.112,0,.226,0,.338,0,.266,0,.53-.02.8-.027s.534-.019.8-.036.541-.037.812-.064.546-.076.816-.123c.535-.1,1.07-.2,1.6-.333.26-.066.521-.136.776-.219s.5-.174.746-.267c.337-.128.669-.269,1-.4-.152.195-.295.4-.432.6l-.277.094c-.225.077-.451.148-.68.211-.246.068-.5.128-.745.185-.507.114-1.015.22-1.528.3h-.006l-.024,0h.011l-.012,0v0c-.177.025-.358.047-.536.061-.52.044-1.041.073-1.56.122-.536.052-1.071.1-1.609.155-.276.026-.554.054-.831.077s-.542.043-.814.06-.534.031-.8.049c-.121.006-.245.016-.366.027a1.508,1.508,0,0,0-.227.025v.007l.011,0h0a2.156,2.156,0,0,1,.271-.013c.261,0,.525,0,.788,0s.533.006.8,0c.281,0,.563-.015.845-.024s.538-.02.807-.032c.531-.026,1.06-.062,1.587-.1.264-.022.527-.042.79-.06s.509-.037.763-.068a9.589,9.589,0,0,0,1.565-.35c.244-.072.487-.144.727-.226s.462-.171.688-.271h0l.006,0h0c.1-.045.2-.093.3-.142l-.066.1,0,0-.005.007v0l-.006.011-.006.01-.01.013,0,0,.012-.02c-.009.013-.018.028-.027.04h0l0,0c-.06.092-.121.185-.182.277l.005-.007-.01.014-.005.007,0,0c-.059.089-.118.178-.181.264l-.012.017-.084.024c-.174.047-.351.088-.526.13-.378.089-.761.159-1.144.217l-.216.029c-.536.067-1.074.1-1.613.148s-1.1.1-1.655.159-1.124.13-1.686.178c-.272.024-.545.044-.816.064-.133.01-.267.02-.4.025-.081,0-.161,0-.242.006v.007c.057,0,.116,0,.173,0h.057c.086,0,.173,0,.26,0,.222-.008.444-.017.666-.023l.079,0c-.579.056-1.157.122-1.734.2a23.207,23.207,0,0,0-2.855.568l-.008-.008c-.1-.09-.2-.176-.292-.268q-.277-.268-.559-.53C393.005,196.172,392.648,195.817,392.29,195.461Zm-11.781,41.906c-.655.723-1.357,1.405-2.08,2.06a24.824,24.824,0,0,1-2.558,2.027q-.762.5-1.563.948a36.7,36.7,0,0,1-5.78,2.566c-.886.3-1.779.568-2.687.786-1.027.247-2.068.427-3.112.579-1.072.155-2.151.246-3.232.313q-1.171.065-2.341.054c-.566-.006-1.129-.037-1.7-.07s-1.138-.081-1.7-.15c-1.049-.124-2.089-.3-3.123-.514-.4-.086-.8-.178-1.2-.281-1.1-.288-2.209-.573-3.29-.942-.543-.188-1.075-.41-1.6-.642-.472-.21-.941-.423-1.4-.651a18.014,18.014,0,0,1-2.214-1.341c-.66-.466-1.3-.954-1.916-1.48a18.093,18.093,0,0,1-1.755-1.8,23.541,23.541,0,0,1-1.488-1.967c-.06-.089-.12-.178-.178-.269-.317-.494-.635-.989-.925-1.5-.261-.461-.505-.93-.742-1.405s-.473-.971-.689-1.465c-.226-.518-.428-1.042-.613-1.576-.045-.136-.09-.274-.133-.41a26.19,26.19,0,0,1-.778-3.231,29.275,29.275,0,0,1-.425-3.235,24.682,24.682,0,0,1,.043-3.182,25.444,25.444,0,0,1,.453-3.067c.06-.278.119-.554.185-.829a25.788,25.788,0,0,1,.973-3.234c.4-1.041.855-2.054,1.349-3.051.087-.173.176-.346.268-.518a33.332,33.332,0,0,1,1.723-2.933,25.836,25.836,0,0,1,2.05-2.692q.465-.523.952-1.025c.831-.854,1.7-1.675,2.6-2.448a29.7,29.7,0,0,1,2.607-2.03,28.926,28.926,0,0,1,2.7-1.622c.49-.257.981-.509,1.487-.73.454-.2.917-.376,1.387-.54.385-.125.772-.244,1.163-.348a30.709,30.709,0,0,1,3.228-.651c1.113-.171,2.232-.3,3.357-.368.066-.005.133-.007.2-.01a.285.285,0,0,0,.052.007c1.11-.005,2.216-.019,3.325.01.422.028.843.067,1.261.124q.825.114,1.64.281c.187.038.37.079.555.122a33.284,33.284,0,0,1,3.276.93c.527.184,1.052.373,1.569.587.469.191.927.4,1.382.63.749.379,1.481.792,2.2,1.231q.591.361,1.166.753c.073.055.147.11.221.168.774.59,1.535,1.2,2.268,1.843.358.315.709.634,1.054.967a29.585,29.585,0,0,1,2.074,2.222c.513.612,1,1.253,1.458,1.906-.28.34-.559.682-.822,1.038-.289.392-.562.8-.828,1.208-.214.333-.416.673-.614,1.015-.375-.572-.768-1.135-1.18-1.679-.271-.358-.545-.714-.838-1.053-.27-.313-.55-.617-.834-.917s-.586-.61-.891-.9-.624-.577-.946-.857l.01.008-.048-.043-.008-.006,0,0c-.328-.285-.662-.562-1-.835a25.508,25.508,0,0,0-2.1-1.536,12.717,12.717,0,0,0-2.475-1.231c-.387-.145-.784-.259-1.18-.379-.507-.22-1.023-.421-1.547-.59a21.451,21.451,0,0,0-2.872-.7,22.792,22.792,0,0,0-2.836-.31,25.748,25.748,0,0,0-2.9.038q-1.4.087-2.785.284a21.4,21.4,0,0,0-2.665.529,17.477,17.477,0,0,0-2.689.973c-.421.193-.831.412-1.231.645s-.809.476-1.2.736q-.636.425-1.26.873c-.373.269-.737.552-1.1.839q-1.129.9-2.172,1.9a26.209,26.209,0,0,0-2.094,2.239c-.3.36-.6.723-.876,1.1s-.524.743-.77,1.125a28.217,28.217,0,0,0-1.482,2.637,25,25,0,0,0-1.139,2.583,22.046,22.046,0,0,0-.788,2.68,26.953,26.953,0,0,0-.508,2.858,18.029,18.029,0,0,0-.092,2.869,22.786,22.786,0,0,0,.307,2.9,27.415,27.415,0,0,0,.611,2.713,18.956,18.956,0,0,0,1.016,2.766,22.506,22.506,0,0,0,1.233,2.364,25.655,25.655,0,0,0,1.6,2.355,15.71,15.71,0,0,0,1.784,1.956c.365.335.747.648,1.137.951.355.277.719.544,1.093.8.39.264.79.513,1.205.74.444.245.9.465,1.361.674.43.2.866.389,1.307.563s.871.315,1.316.449.911.25,1.367.372c.419.111.84.222,1.264.316.907.205,1.825.366,2.747.492a27.332,27.332,0,0,0,2.824.22c.285.007.571.012.858.012q.991,0,1.981-.065c.448-.029.9-.06,1.342-.1.471-.046.941-.106,1.407-.176.858-.13,1.712-.285,2.553-.5a29.186,29.186,0,0,0,2.9-.906q1.3-.471,2.548-1.065c.725-.344,1.441-.712,2.131-1.12a19.619,19.619,0,0,0,2.195-1.512,22.409,22.409,0,0,0,1.981-1.769,22.972,22.972,0,0,0,1.723-1.912c.08-.1.16-.2.239-.3h0l0,0,0,0,0,0,.008-.014v0c.026-.051.055-.1.083-.15s.042-.073.064-.108.052-.077.08-.115c.016-.021.029-.044.047-.064.111-.138.233-.265.345-.4l.086-.109c.09-.137.178-.277.26-.419l-.005-.01c.034-.055.07-.109.1-.164s.063-.116.1-.173l.016-.023c.085-.147.166-.295.245-.444a21.828,21.828,0,0,0,.951-2.071,1.119,1.119,0,0,1,.037-.114c.033-.085.072-.17.109-.255.005-.013.01-.029.016-.044.02-.049.037-.1.056-.147l0,.009c.011-.032.024-.064.035-.1.023-.065.047-.132.069-.2v0l.017-.047.2-.556c.089-.252.177-.507.27-.758.008-.026.019-.051.029-.077l-.011-.041c.08-.267.158-.534.224-.8a16.655,16.655,0,0,0,.467-2.928c.067-.984.106-1.971.086-2.955a26.316,26.316,0,0,0-.241-3.022c-.08-.577-.181-1.153-.3-1.725.061-.178.123-.356.191-.532.009-.023.019-.045.027-.067.019.074.036.148.054.223.045.2.088.4.131.592.1.446.185.9.267,1.344.05.269.1.535.147.8s.085.531.123.8c.08.562.146,1.123.2,1.687q.026.352.045.705c.013.245.025.491.026.735,0,.478-.005.958-.04,1.435-.078,1.113-.188,2.224-.368,3.326v.005c-.011.063-.022.127-.031.188h0l0,.012v0c-.006.037-.013.074-.019.11l0-.02c-.15.851-.311,1.7-.468,2.55l0,0,0,0c.158-.658.315-1.313.481-1.967.136-.531.271-1.063.374-1.6q.166-.851.272-1.712c.065-.55.111-1.1.133-1.657a13.374,13.374,0,0,0-.04-1.705v0q-.039-.46-.1-.918c-.069-.54-.167-1.078-.273-1.612-.054-.267-.116-.531-.177-.8s-.122-.526-.19-.787-.128-.507-.2-.76c-.066-.231-.137-.464-.212-.695-.037-.115-.075-.232-.114-.347q.216-.555.46-1.1l.054.194c.073.259.143.52.215.779s.137.516.2.777.122.511.173.77c.054.278.1.557.145.836s.089.557.128.837c.073.529.139,1.06.207,1.59s.116,1.048.162,1.574v.017l.009.1c.039.482.065.964.07,1.449s-.021.977-.044,1.465l0,0,0,0c.035-.254.068-.509.1-.762s.069-.511.1-.767a11.775,11.775,0,0,0,.056-1.469c-.01-.558-.044-1.114-.1-1.669q-.076-.8-.213-1.59c-.046-.271-.1-.54-.163-.807s-.125-.553-.2-.826c-.139-.522-.306-1.036-.492-1.543l.005.019c-.128-.353-.262-.7-.391-1.053.061-.137.123-.274.188-.409.117.4.241.8.383,1.188.093.26.189.521.276.783a5.838,5.838,0,0,1,.218.76v0a1.61,1.61,0,0,1,.021.173l0,0,0,0a2.9,2.9,0,0,0-.036-.4c-.031-.231-.069-.463-.11-.693v0h0l0-.012-.005-.024a7.99,7.99,0,0,0-.4-1.533c-.065-.169-.139-.336-.216-.5.042-.086.082-.172.124-.257s.077-.148.115-.222l.019.058c.076.228.14.46.21.692.153.516.311,1.031.462,1.548s.3,1.063.436,1.6c.131.518.242,1.04.338,1.566.01.054.02.11.028.165v-.012l0,.024h0c.075.425.142.853.217,1.28v0c.038.223.083.444.124.666h0l0,.01h0v.007l0,0,0-.005c-.007-.066-.021-.131-.031-.2-.015-.094-.029-.191-.042-.286-.028-.19-.054-.381-.08-.572-.055-.387-.1-.776-.15-1.163a20.43,20.43,0,0,0-.66-3.315q-.222-.765-.514-1.507c-.087-.222-.179-.441-.287-.654l-.016-.029.016-.031q.124-.236.253-.47c.051.164.1.328.154.491q.2.613.388,1.227c.158.5.317,1.009.468,1.515.076.255.149.51.223.767q.054.188.106.38c.032.118.064.239.087.36v0a.341.341,0,0,1,.005.056l.005,0,0,0v0c0-.016,0-.032,0-.048-.005-.052-.011-.1-.02-.157-.014-.106-.03-.214-.048-.32q-.056-.339-.11-.679c-.072-.465-.152-.929-.256-1.389a8.634,8.634,0,0,0-.494-1.511c-.106-.245-.218-.486-.342-.723-.024-.045-.05-.089-.075-.134q.308-.549.642-1.082.092.236.174.475c.1.286.185.575.271.864a30.035,30.035,0,0,1,.776,3.305,30.707,30.707,0,0,1,.392,3.349c0,.047.005.094.008.143a34.427,34.427,0,0,1-.026,3.54c-.033.582-.067,1.164-.134,1.742-.063.556-.154,1.108-.264,1.658-.007.032-.013.064-.022.1a25.777,25.777,0,0,1-1.02,3.313c-.189.5-.385,1-.593,1.487l-.009.04a1.3,1.3,0,0,1-.052.163c-.027.068-.056.136-.086.205s-.055.138-.086.2c-.054.117-.108.232-.169.346-.041.078-.086.153-.132.229-.018.044-.038.088-.056.133-.048.108-.1.214-.155.317l-.014.028c-.055.1-.113.2-.175.3-.016.025-.031.05-.048.074a16.048,16.048,0,0,1-.914,1.444c-.151.214-.308.424-.468.634-.019.029-.039.058-.058.088a3.343,3.343,0,0,1-.228.284l-.049.057c-.011.016-.025.03-.037.045-.053.06-.106.121-.16.181-.148.168-.294.337-.441.505-.052.063-.106.124-.16.186l.013.018Zm-4.951-14.222a23.876,23.876,0,0,0,.331,3.108,29.218,29.218,0,0,0,.654,2.911,20.181,20.181,0,0,0,1.091,2.968c.173.376.353.752.539,1.122l0,0q-.569.8-1.219,1.547l-.222.249c-.542.6-1.121,1.161-1.719,1.7a20.378,20.378,0,0,1-2.112,1.674q-.63.417-1.293.782a29.907,29.907,0,0,1-4.773,2.12c-.731.246-1.47.469-2.22.65-.847.2-1.707.353-2.57.478-.887.129-1.778.2-2.671.259-.643.034-1.287.052-1.933.044-.467-.005-.931-.03-1.4-.057s-.941-.066-1.409-.124c-.864-.1-1.725-.251-2.579-.424-.331-.073-.662-.146-.99-.233-.912-.238-1.825-.472-2.717-.778-.449-.155-.889-.337-1.323-.53-.372-.165-.745-.334-1.11-.512l.04.02-.055-.027-.034-.017a15.2,15.2,0,0,1-1.829-1.109c-.544-.384-1.077-.789-1.583-1.222A14.878,14.878,0,0,1,341,236.261a19.062,19.062,0,0,1-1.23-1.624c-.05-.075-.1-.147-.147-.222-.262-.409-.524-.817-.764-1.239-.216-.381-.417-.771-.612-1.162s-.391-.8-.569-1.21c-.186-.428-.354-.861-.506-1.3-.037-.114-.073-.226-.109-.339a21.685,21.685,0,0,1-.643-2.669,24.476,24.476,0,0,1-.352-2.672,20.791,20.791,0,0,1,.034-2.629,21.028,21.028,0,0,1,.376-2.534c.049-.229.1-.456.152-.686a21.016,21.016,0,0,1,.8-2.67c.329-.86.706-1.7,1.115-2.521.072-.142.145-.285.22-.427a27.648,27.648,0,0,1,1.424-2.423,21.613,21.613,0,0,1,1.694-2.224q.384-.432.786-.847c.687-.7,1.4-1.382,2.15-2.022a25.557,25.557,0,0,1,2.1-1.638l.019-.012.037-.026a24.665,24.665,0,0,1,2.229-1.339c.405-.212.813-.422,1.23-.6.374-.164.757-.309,1.145-.445.317-.1.638-.2.96-.287a25.015,25.015,0,0,1,2.666-.538c.918-.14,1.844-.245,2.772-.3.056,0,.111-.006.166-.008a.2.2,0,0,0,.043,0c.915,0,1.831-.015,2.746.009.348.024.7.056,1.041.1.454.061.905.14,1.355.23.153.034.306.066.458.1a27.813,27.813,0,0,1,2.706.769c.435.151.87.309,1.3.485.388.16.766.335,1.143.521.617.313,1.223.655,1.814,1.016.326.2.646.408.964.622.061.046.122.091.183.138.639.488,1.267.995,1.874,1.522.293.259.586.525.869.8a24.249,24.249,0,0,1,1.713,1.835,27.435,27.435,0,0,1,1.663,2.233q.266.4.519.807c-.089.171-.177.341-.263.513a26.365,26.365,0,0,0-1.221,2.773A23.31,23.31,0,0,0,376.2,217a29.27,29.27,0,0,0-.546,3.068A19.455,19.455,0,0,0,375.558,223.145Zm5.648.476a18.417,18.417,0,0,1,.031-2.331c.033-.43.089-.859.158-1.285.012.161.026.322.036.482,0,.039,0,.079.006.117a28.388,28.388,0,0,1-.021,2.926c-.023.416-.051.831-.092,1.245C381.273,224.391,381.233,224.006,381.206,223.621Zm9.619-18.279.019-.012a.238.238,0,0,0,.031-.023,22,22,0,0,1,1.979-1.187c.358-.188.719-.373,1.088-.534.333-.147.673-.276,1.016-.4.282-.093.564-.179.851-.255a22.027,22.027,0,0,1,2.364-.477c.814-.126,1.635-.218,2.458-.27l.147-.008a.112.112,0,0,0,.037.005c.812,0,1.623-.013,2.435.008.309.021.617.048.923.091.4.055.8.124,1.2.2l.406.09a24.481,24.481,0,0,1,2.4.681c.385.134.77.274,1.148.429.343.142.679.3,1.013.462.548.278,1.084.582,1.609.9.289.176.574.361.854.551l.163.122c.565.434,1.123.882,1.662,1.349.261.231.518.466.771.709a21.43,21.43,0,0,1,1.518,1.626,23.824,23.824,0,0,1,1.473,1.979c.4.607.787,1.228,1.135,1.869a12.48,12.48,0,0,1,.843,1.9c.068.21.134.419.2.632a21.783,21.783,0,0,1,.568,2.42,22.646,22.646,0,0,1,.288,2.452c0,.035,0,.072.005.1a24.863,24.863,0,0,1-.019,2.594c-.025.425-.049.85-.1,1.275-.046.392-.108.78-.186,1.168l-.009.046-.016.073a18.964,18.964,0,0,1-.748,2.424c-.268.712-.558,1.415-.893,2.1a12.048,12.048,0,0,1-.929,1.542c-.337.474-.7.932-1.08,1.372-.065.075-.131.147-.2.221-.478.529-.991,1.028-1.521,1.508a18.155,18.155,0,0,1-1.874,1.483c-.371.247-.754.479-1.144.693a26.553,26.553,0,0,1-4.233,1.88c-.648.218-1.3.416-1.967.577-.752.179-1.515.312-2.28.423-.786.114-1.574.182-2.367.231-.57.03-1.142.045-1.713.038-.415-.006-.828-.027-1.24-.051s-.835-.06-1.251-.11c-.766-.092-1.529-.223-2.285-.378-.294-.064-.587-.131-.879-.206-.808-.211-1.617-.418-2.408-.69-.4-.137-.788-.3-1.174-.469-.328-.146-.655-.295-.978-.453l.031.017c-.017-.007-.031-.017-.048-.024a.331.331,0,0,0-.033-.016,13.473,13.473,0,0,1-1.62-.983c-.482-.34-.956-.7-1.4-1.083a13.332,13.332,0,0,1-1.286-1.321c-.23-.269-.448-.55-.66-.836a28.092,28.092,0,0,0,1.154-2.623,28.7,28.7,0,0,0,1.079-3.291,20.207,20.207,0,0,0,.563-3.545c.084-1.191.13-2.383.1-3.577a31.8,31.8,0,0,0-.289-3.66,28.782,28.782,0,0,0-.639-3.258q-.213-.821-.468-1.632a17.591,17.591,0,0,0-.632-1.739c-.041-.1-.086-.192-.13-.288q.341-.439.7-.861.341-.383.7-.751c.609-.624,1.245-1.226,1.907-1.793A22.778,22.778,0,0,1,390.825,205.342Zm34.806,17.917c-.029.515-.058,1.031-.117,1.544-.056.494-.137.983-.234,1.471l-.019.085a22.921,22.921,0,0,1-.905,2.936c-.324.862-.676,1.711-1.081,2.538a14.586,14.586,0,0,1-1.126,1.868c-.408.575-.846,1.128-1.306,1.661l-.24.265c-.582.64-1.2,1.246-1.845,1.826a21.628,21.628,0,0,1-2.267,1.8q-.674.448-1.386.839a32.011,32.011,0,0,1-5.122,2.275c-.786.263-1.579.5-2.384.7-.911.22-1.833.38-2.759.514-.951.137-1.907.217-2.865.278-.692.037-1.382.055-2.074.047-.5-.005-1-.033-1.5-.061s-1.009-.073-1.512-.133c-.928-.111-1.85-.269-2.768-.455-.356-.078-.711-.158-1.064-.251-.979-.255-1.957-.507-2.915-.835-.483-.166-.954-.363-1.421-.568-.418-.185-.833-.374-1.242-.577a16,16,0,0,1-1.964-1.189c-.585-.413-1.156-.848-1.7-1.312a15.87,15.87,0,0,1-1.2-1.193c.03-.036.061-.073.091-.11.074-.091.145-.184.218-.275l.038.047c.268.323.554.629.849.926a12.91,12.91,0,0,0,1.205,1.064c.214.168.43.33.653.485s.469.313.707.463c.215.135.426.275.642.408s.452.275.677.413.47.292.709.433c.224.13.457.246.691.361s.481.233.723.343.5.221.762.317.494.179.746.254c.28.081.562.157.843.232h0s.005-.005,0-.006c-.272-.1-.542-.2-.807-.315-.235-.1-.468-.216-.7-.33-.453-.226-.894-.478-1.333-.734l0,0-.005,0-.03-.017.018.009c-.224-.136-.445-.275-.667-.416l-.669-.419c-.22-.139-.436-.282-.654-.422s-.444-.282-.668-.42c-.464-.289-.931-.57-1.386-.873s-.872-.619-1.284-.957c-.35-.289-.691-.592-1.016-.91.083-.107.166-.214.248-.323.026.033.052.067.08.1.128.15.261.3.4.439.184.194.368.388.556.576s.4.38.614.562.408.341.621.5q.344.252.708.471t.711.41c.234.13.476.245.72.357.51.232,1.03.444,1.546.662h0v-.007c-.4-.211-.792-.433-1.18-.663l.017.01-.078-.047.008.005c-.373-.223-.738-.461-1.1-.7-.382-.256-.765-.514-1.144-.777-.449-.312-.9-.625-1.329-.963-.2-.157-.394-.319-.588-.483s-.363-.311-.534-.48q.157-.208.308-.421c.071.075.141.15.214.223l-.005-.005c.264.268.534.533.81.789.259.243.523.481.8.7a11.112,11.112,0,0,0,1.423.941q.345.2.7.374c.255.127.515.247.774.368h0l0-.005c-.447-.279-.888-.568-1.316-.875-.221-.16-.445-.316-.666-.475q-.308-.222-.61-.447c-.446-.328-.888-.658-1.32-1-.212-.168-.427-.333-.636-.505-.05-.04-.1-.083-.146-.123.07-.1.14-.2.207-.3.183-.272.355-.55.521-.832a13.792,13.792,0,0,0,1.538,1.678c.323.3.661.576,1.007.844.315.245.637.482.969.706s.7.455,1.068.658c.393.215.8.41,1.207.6.382.174.766.345,1.157.5s.773.28,1.167.4.808.222,1.212.33c.373.1.746.2,1.12.281q1.209.272,2.435.435a23.837,23.837,0,0,0,2.5.195c.255.008.507.011.761.011q.877,0,1.756-.057c.4-.026.794-.054,1.19-.093.417-.04.833-.094,1.248-.158.761-.112,1.517-.251,2.263-.438a26.1,26.1,0,0,0,2.568-.8q1.153-.418,2.26-.946c.643-.3,1.278-.63,1.89-.99a17.84,17.84,0,0,0,1.946-1.341,20.3,20.3,0,0,0,1.756-1.57,19.881,19.881,0,0,0,1.526-1.7c.279-.345.549-.7.8-1.066a12.806,12.806,0,0,0,.684-1.147,20.412,20.412,0,0,0,.986-2.2,20.931,20.931,0,0,0,.79-2.411,14.729,14.729,0,0,0,.412-2.595c.061-.872.1-1.747.077-2.62a23.4,23.4,0,0,0-.212-2.679,21.2,21.2,0,0,0-.469-2.387q-.157-.6-.341-1.194a12.8,12.8,0,0,0-.464-1.274c-.158-.367-.326-.729-.517-1.082-.2-.379-.421-.751-.648-1.116-.471-.765-.976-1.514-1.518-2.232-.241-.316-.483-.632-.743-.933-.241-.277-.487-.546-.742-.811s-.518-.54-.789-.8-.554-.511-.838-.759l.007.005-.04-.035-.007-.007,0,0c-.289-.253-.585-.5-.885-.741a22.589,22.589,0,0,0-1.863-1.362,11.238,11.238,0,0,0-2.194-1.091c-.343-.129-.695-.23-1.046-.335-.45-.195-.908-.373-1.372-.524a19.075,19.075,0,0,0-2.545-.617,20.416,20.416,0,0,0-2.513-.275,23.114,23.114,0,0,0-2.571.033c-.826.051-1.649.137-2.468.252a19.042,19.042,0,0,0-2.363.47,15.55,15.55,0,0,0-2.385.862c-.373.171-.736.365-1.091.573s-.718.422-1.064.652q-.563.378-1.115.775c-.333.238-.654.49-.973.743-.668.533-1.307,1.1-1.925,1.685a23.124,23.124,0,0,0-1.775,1.888l0,0-.188.224-.078.1-.025.029c-.073.093-.144.187-.215.281-.185.247-.362.5-.534.755l-.022.031v0c-.123.183-.246.367-.365.554s-.242.379-.364.565c-.055.085-.107.17-.166.251-.024.033-.051.064-.077.094L383.1,212c-.288.5-.557,1-.813,1.516q-.142.285-.279.569c-.038.088-.076.174-.113.262-.052.119-.1.241-.148.361v0c-.051.122-.1.247-.15.371l-.014.034q-.19.489-.383.974c-.075.246-.149.491-.235.73l-.007.019-.011.032h0l-.086.23c-.1.359-.2.722-.28,1.086a24.709,24.709,0,0,0-.451,2.534,16.165,16.165,0,0,0-.082,2.545,20.139,20.139,0,0,0,.273,2.567c.111.631.245,1.26.4,1.882-.115.374-.242.745-.374,1.113-.038-.137-.079-.274-.127-.409-.074-.207-.166-.409-.225-.62v0l-.006-.023h0a.438.438,0,0,1-.018-.088v-.006c0-.005-.005-.005-.005,0h0a.333.333,0,0,0,0,.1,3.207,3.207,0,0,0,.077.431,2.84,2.84,0,0,0,.144.441c.037.089.08.175.124.259-.029.08-.057.161-.087.24-.089.239-.183.476-.277.712-.032-.14-.064-.279-.1-.418-.089-.351-.207-.693-.3-1.042v.006c-.022-.084-.043-.17-.058-.255a.569.569,0,0,1-.013-.1v0s-.006,0-.006,0h0a.3.3,0,0,0,0,.087c.008.113.02.225.032.336a7.276,7.276,0,0,0,.11.765,4.827,4.827,0,0,0,.212.737c.01.03.025.059.036.088-.112.273-.227.544-.349.814-.046-.219-.087-.438-.132-.657-.079-.4-.17-.8-.273-1.19h0l0-.006,0-.01,0-.008v0c-.079-.3-.165-.608-.245-.912h0c-.045-.171-.086-.344-.12-.519-.013-.068-.028-.136-.039-.2a.37.37,0,0,1-.011-.066h-.008c0,.039.011.08.016.119.014.114.024.228.035.342q.036.364.088.726a13.425,13.425,0,0,0,.3,1.527,6.966,6.966,0,0,0,.237.753c.031.08.064.158.1.236-.077.169-.156.338-.237.505l-.018.033c-.019-.071-.038-.14-.057-.21,0-.016-.007-.032-.011-.048l0,.015c-.068-.268-.132-.538-.191-.809-.107-.495-.212-.991-.308-1.489-.1-.516-.214-1.031-.329-1.544-.119-.531-.243-1.061-.341-1.6-.049-.268-.093-.533-.129-.8a5.357,5.357,0,0,1-.056-.729v-.058s-.005-.005-.005,0a.994.994,0,0,0-.007.136c0,.094,0,.19,0,.283,0,.208.013.415.028.621.029.424.075.848.129,1.268a25.173,25.173,0,0,0,.559,3.155l0-.016a12.017,12.017,0,0,0,.37,1.173c.092.247.2.487.307.727-.037.072-.076.143-.114.214-.122-.257-.243-.515-.357-.777-.2-.457-.38-.924-.541-1.4-.04-.121-.082-.243-.119-.364a23.189,23.189,0,0,1-.689-2.864,25.979,25.979,0,0,1-.376-2.869,21.9,21.9,0,0,1,.036-2.822,22.662,22.662,0,0,1,.4-2.718c.052-.245.1-.491.164-.735a22.77,22.77,0,0,1,.862-2.866c.281-.735.6-1.455.935-2.166l.019.034.01-.024c.123-.283.261-.556.409-.827,0-.007.008-.017.015-.026.044-.1.091-.193.14-.287s.087-.17.133-.254l-.011-.018c.407-.75.843-1.487,1.312-2.2.131-.2.263-.393.4-.586a1.857,1.857,0,0,1,.1-.19,4,4,0,0,1,.231-.344c.074-.1.159-.2.242-.3.108-.123.219-.246.33-.366.016-.019.033-.037.05-.056l.009-.009.127-.134c.15-.183.3-.359.463-.534l-.008-.012c.234-.26.472-.516.716-.768.735-.755,1.5-1.483,2.307-2.17a26.888,26.888,0,0,1,2.3-1.787h0l.017-.011a26.141,26.141,0,0,1,2.393-1.437c.435-.227.871-.451,1.318-.647.4-.178.814-.334,1.23-.478.341-.112.683-.215,1.031-.31a27.08,27.08,0,0,1,2.861-.577c.987-.152,1.98-.263,2.977-.327l.177-.009a.161.161,0,0,0,.046.007c.981-.006,1.964-.017,2.948.008.372.025.747.06,1.118.111q.731.1,1.453.248c.165.036.328.071.491.109a29.129,29.129,0,0,1,2.9.825c.466.162.933.331,1.392.521.415.171.822.359,1.225.559.665.337,1.313.7,1.949,1.091.351.214.693.437,1.033.667l.2.148c.687.525,1.362,1.068,2.012,1.635.315.28.63.564.933.858a25.951,25.951,0,0,1,1.838,1.968,28.9,28.9,0,0,1,1.785,2.4c.488.732.95,1.486,1.372,2.261a15.387,15.387,0,0,1,1.021,2.3c.083.254.163.508.238.764a26.342,26.342,0,0,1,.689,2.93,27.734,27.734,0,0,1,.349,2.969c0,.043,0,.085.006.128A30.465,30.465,0,0,1,425.631,223.259Z" transform="translate(0.091 0.47)" fill="#fff"/>
      <path id="Path_925" data-name="Path 925" d="M404.063,194.8h0Z" transform="translate(2.853 0.901)" fill="#fff"/>
      <path id="Path_926" data-name="Path 926" d="M333.206,225.335c-.08-.562-.142-1.129-.168-1.7-.028-.587-.026-1.174-.007-1.761v.048c0-.066.006-.13.008-.2V221.7h0v-.039a24.3,24.3,0,0,1,.278-2.824,26.065,26.065,0,0,1,.762-3.34l0-.009,0-.008.013-.041v0l0-.009.029-.091a19.444,19.444,0,0,1,.838-2.187,24.459,24.459,0,0,1,1.647-3.01l-.019.03c.024-.036.046-.072.068-.108l.025-.039-.007.008q.445-.688.924-1.356c.316-.439.647-.867.983-1.289.369-.464.755-.914,1.147-1.357s.784-.855,1.18-1.279c.8-.853,1.64-1.661,2.5-2.446.29-.263.587-.522.887-.776.15-.128.3-.254.456-.378.108-.086.221-.17.32-.265l-.005,0c-.056.05-.117.1-.175.141l-.257.195c-.188.139-.373.282-.558.424q-.678.526-1.341,1.07c-.438.361-.869.73-1.29,1.112l.024-.022c-.226.2-.452.409-.674.618-.42.394-.828.8-1.217,1.227-.21.23-.413.465-.616.7-.187.213-.366.431-.54.654-.368.467-.724.944-1.072,1.424s-.677.931-.984,1.418l0-.008c-.236.369-.468.744-.695,1.119s-.43.729-.631,1.1c-.268.5-.524,1.013-.747,1.538-.112.259-.22.523-.322.786s-.206.538-.294.813c-.174.55-.331,1.1-.456,1.669s-.236,1.155-.327,1.737a23.151,23.151,0,0,0-.253,3.543,15.228,15.228,0,0,0,.093,1.726,15.485,15.485,0,0,0,.3,1.717l-.006-.023.019.076h0l0,.006,0,.015v0c.1.419.211.83.332,1.24.131.441.262.882.4,1.317l0,0,0,0c-.1-.392-.2-.784-.29-1.179C333.392,226.467,333.284,225.9,333.206,225.335Z" transform="translate(0.202 1.127)" fill="#fff"/>
      <path id="Path_927" data-name="Path 927" d="M336.373,231.891c-.187-.364-.357-.735-.513-1.114-.163-.4-.31-.8-.446-1.2-.091-.269-.172-.54-.253-.812s-.152-.52-.223-.78c-.141-.513-.273-1.027-.393-1.545,0-.012-.005-.024-.007-.035l0,.01c-.108-.481-.211-.963-.3-1.448s-.156-.957-.208-1.44c-.059-.542-.1-1.089-.113-1.633-.013-.561,0-1.122.016-1.683v.01c.029-.742.08-1.484.181-2.219.077-.56.188-1.115.318-1.665.121-.51.253-1.021.406-1.523h0a.165.165,0,0,1,.007-.024h0a.379.379,0,0,1,.025-.067c0-.005-.006-.007-.007,0a1.124,1.124,0,0,0-.043.117c-.025.073-.05.146-.074.219-.049.149-.1.3-.143.447l0-.005c-.009.034-.021.067-.032.1l0,0c-.01.032-.022.065-.031.1l0,0a.329.329,0,0,0-.015.041h0l-.018.051h0c-.007.03-.017.059-.027.089h0c-.028.093-.056.188-.085.28l0-.006c-.179.572-.339,1.153-.466,1.739q-.177.825-.285,1.663c-.074.569-.128,1.142-.146,1.716v-.011c0,.052,0,.106-.006.16,0-.019,0-.036,0-.054-.018.457-.008.914.013,1.372.012.275.03.55.06.824s.058.542.1.811.09.538.144.8c.062.308.129.613.2.917l.005.023h0v0c.091.4.187.8.3,1.189.079.273.163.543.249.814s.167.513.257.769a16.534,16.534,0,0,0,.665,1.59,14.392,14.392,0,0,0,.789,1.47q.467.737.964,1.453h0l0,0c-.311-.5-.621-.994-.893-1.512Z" transform="translate(0.233 1.641)" fill="#fff"/>
      <path id="Path_928" data-name="Path 928" d="M383.3,216.541Z" transform="translate(2.082 1.709)" fill="#fff"/>
      <path id="Path_929" data-name="Path 929" d="M387.2,239.221h0l-.014-.008Z" transform="translate(2.226 2.551)" fill="#fff"/>
      <path id="Path_930" data-name="Path 930" d="M388.984,202.22c.232-.167.467-.331.705-.49s.48-.3.722-.454q.728-.45,1.462-.889c.005,0,0-.008,0-.006-.452.234-.9.474-1.35.713s-.9.472-1.34.734c-.484.291-.961.6-1.423.928s-.9.667-1.338,1.022q-.359.3-.708.6c-.209.185-.41.378-.612.57s-.4.392-.588.592-.378.4-.557.612c-.361.421-.7.86-1.027,1.308s-.643.922-.951,1.392-.622.948-.894,1.447c-.129.239-.249.481-.358.73q-.134.3-.246.621l0,0,0,0a8.416,8.416,0,0,1,.472-1c.2-.363.435-.71.671-1.053h0c.117-.163.232-.324.35-.484.333-.448.679-.884,1.029-1.317s.708-.848,1.078-1.26c.186-.207.374-.411.568-.612s.381-.393.576-.584.4-.39.612-.576.428-.373.642-.558l.167-.141-.006,0,.016-.012.005,0h0l.007-.006h0v0l0,0,0,0,.161-.136h0c.338-.28.673-.562,1.018-.834Q388.408,202.637,388.984,202.22Z" transform="translate(1.977 1.109)" fill="#fff"/>
      <path id="Path_931" data-name="Path 931" d="M382.83,206.757l0-.006h0a2.711,2.711,0,0,1,.179-.228c.086-.1.175-.2.268-.3.176-.189.361-.368.547-.547.4-.382.809-.755,1.23-1.114l-.014.013c.226-.193.457-.381.689-.567s.455-.366.687-.544c.447-.346.9-.681,1.37-1s.95-.652,1.431-.97.953-.615,1.434-.917.98-.616,1.472-.923c0,0,0-.007-.005-.005q-.786.4-1.564.806c-.517.269-1.034.533-1.537.823a15.773,15.773,0,0,0-1.418.92c-.226.164-.449.329-.667.5q-.35.278-.689.574c-.431.379-.853.766-1.271,1.16s-.8.793-1.195,1.2c-.19.2-.376.4-.555.608-.088.1-.172.2-.254.311-.051.066-.1.134-.148.2l0,0Z" transform="translate(2.064 1.081)" fill="#fff"/>
      <path id="Path_932" data-name="Path 932" d="M396.258,200.216c-.558.065-1.113.143-1.665.242a15,15,0,0,0-1.627.369,13.6,13.6,0,0,0-1.6.569,11.775,11.775,0,0,0-1.5.774c-.481.3-.951.616-1.417.941a12.9,12.9,0,0,0-1.259.966h0l0,0v.006h0l.009-.006c.018-.016.036-.03.052-.045h0a9.174,9.174,0,0,1,1.25-.849c.436-.254.876-.505,1.331-.725l-.01.006c.315-.152.634-.3.958-.425.259-.106.52-.208.783-.3s.5-.181.759-.27c.531-.183,1.062-.359,1.6-.509s1.07-.283,1.608-.419c.556-.14,1.109-.287,1.665-.424v-.006C396.881,200.143,396.569,200.179,396.258,200.216Z" transform="translate(2.226 1.099)" fill="#fff"/>
      <path id="Path_933" data-name="Path 933" d="M421.078,224.6v0Z" transform="translate(3.485 2.008)" fill="#fff"/>
      <path id="Path_934" data-name="Path 934" d="M421.548,217.462c-.029-.271-.067-.542-.108-.812s-.08-.515-.131-.772-.107-.5-.17-.752c-.142-.566-.328-1.119-.515-1.67v0c0-.013-.009-.028-.013-.043v0l-.005-.012V213.4c-.01-.032-.022-.064-.033-.1h0c-.011-.035-.024-.072-.037-.11-.087-.247-.178-.494-.281-.736-.1-.226-.2-.449-.3-.671s-.228-.46-.347-.689c-.057-.111-.114-.223-.176-.331-.04-.067-.084-.134-.126-.2h0c-.006-.006-.01-.019-.016-.025l-.006.005,0,0h0c.011.018.022.036.034.054h0a2.682,2.682,0,0,1,.187.354q.107.232.2.47c.128.315.245.634.355.956.158.48.283.97.4,1.461.06.255.119.511.172.769s.1.5.152.75c.1.52.178,1.042.239,1.567s.123,1.057.164,1.586c0,.02,0,.039,0,.058v.006h0v.022h0c.026.4.038.794.032,1.194-.007.423-.028.847-.051,1.269-.059,1.083-.184,2.159-.33,3.232-.072.523-.146,1.045-.232,1.567s-.175,1.06-.277,1.589v0h0v.005l0,.013v.013h0l0,.02,0-.027v-.005l-.006.032c-.107.533-.228,1.063-.387,1.584-.083.273-.167.544-.26.814s-.2.556-.3.834l0,.005,0,0c.321-.725.649-1.45.908-2.2.179-.516.323-1.042.455-1.573q.194-.773.348-1.556l0,.011,0-.02a.318.318,0,0,0,.007-.034v.007c.008-.039.017-.08.024-.119s.012-.058.019-.089l0,.01.006-.028,0-.011v-.01h0l0-.01,0,.009h0c.066-.336.132-.673.186-1.011.051-.318.1-.638.145-.957.075-.524.118-1.051.151-1.58.019-.286.036-.574.046-.861.007-.268.011-.533.013-.8.005-.553-.021-1.107-.066-1.659C421.6,217.987,421.577,217.723,421.548,217.462ZM420.6,213.4Z" transform="translate(3.418 1.486)" fill="#fff"/>
      <path id="Path_935" data-name="Path 935" d="M420.094,227.6c.059-.27.116-.537.159-.809.078-.488.135-.98.184-1.473.024-.249.049-.5.074-.75.025-.233.05-.467.094-.7.013-.056.026-.113.044-.168l-.006,0a4.068,4.068,0,0,0-.132.563c-.048.243-.09.486-.138.729l0-.012c0,.019-.007.037-.01.056h0c-.064.319-.136.637-.213.952-.086.351-.188.7-.287,1.044-.074.258-.149.515-.232.77s-.175.519-.271.777a15.218,15.218,0,0,1-.641,1.49l-.118.231a15.132,15.132,0,0,1-.843,1.418c-.317.474-.65.938-.989,1.4s-.666.89-1.007,1.328c-.175.224-.351.449-.531.67s-.355.422-.538.629c-.162.179-.325.353-.491.527l0,.006h0q.529-.482,1.046-.982c.4-.386.78-.8,1.147-1.214s.738-.856,1.094-1.3.705-.885,1.015-1.356c.152-.23.3-.464.431-.705.146-.267.281-.539.408-.817a10.8,10.8,0,0,0,.555-1.542C419.975,228.11,420.038,227.856,420.094,227.6Z" transform="translate(3.229 1.975)" fill="#fff"/>
      <path id="Path_936" data-name="Path 936" d="M393.544,195.083h0Z" transform="translate(2.462 0.912)" fill="#fff"/>
      <path id="Path_937" data-name="Path 937" d="M400.573,194.621h0Z" transform="translate(2.723 0.895)" fill="#fff"/>
      <path id="Path_938" data-name="Path 938" d="M358.467,191.327c-.579-.019-1.157-.014-1.737,0s-1.145.036-1.715.088-1.154.107-1.729.19-1.174.192-1.757.313-1.136.255-1.7.4-1.113.308-1.664.479-1.1.355-1.639.553-1.111.415-1.658.643c-.524.217-1.04.455-1.543.712l0,0c-.435.222-.863.451-1.286.695-.392.225-.777.466-1.155.71-.481.312-.95.64-1.419.969-.484.34-.973.676-1.456,1.018l0,.005h0c.376-.234.753-.468,1.133-.7q.751-.454,1.513-.889c.245-.141.491-.28.741-.412s.506-.265.759-.4c.908-.453,1.835-.868,2.769-1.259a32.289,32.289,0,0,1,3.262-1.154c.569-.171,1.143-.33,1.719-.48.53-.139,1.06-.263,1.593-.38.486-.1.975-.191,1.463-.269s.994-.147,1.491-.205q1.714-.2,3.441-.243c.578-.012,1.156-.018,1.734-.009s1.135.036,1.7.07h0l.348.023c.562.038,1.123.09,1.683.159q.422.051.84.121c.132.022.262.047.393.073.077.016.152.036.23.045.005,0,.006-.006,0-.007a1.805,1.805,0,0,1-.184-.039c-.115-.028-.231-.054-.346-.08-.24-.051-.48-.1-.723-.145-.552-.1-1.108-.188-1.663-.27-.576-.084-1.151-.158-1.73-.216S359.041,191.344,358.467,191.327Z" transform="translate(0.4 0.772)" fill="#fff"/>
      <path id="Path_939" data-name="Path 939" d="M347.9,191.846c-.54.155-1.079.325-1.61.513q-.414.148-.827.3c-.27.1-.537.214-.8.321-.51.208-1.016.435-1.508.683l-.09.046.016-.008q-.527.268-1.043.555-.535.292-1.062.6l0,.007h0c.194-.1.387-.2.582-.3h0c.086-.041.173-.085.259-.13q.751-.375,1.528-.693c.528-.218,1.067-.412,1.61-.6,1.062-.367,2.14-.7,3.224-1s2.183-.59,3.29-.825l-.011,0c.421-.087.845-.167,1.268-.239s.821-.132,1.232-.184c.561-.071,1.123-.141,1.687-.18.278-.021.557-.039.835-.051.3-.011.6-.021.9-.026.559-.009,1.118-.02,1.676-.037.282-.009.564-.021.845-.031.221-.007.441-.019.661-.021v-.006c-.274,0-.55,0-.826,0-.568,0-1.139-.008-1.708-.031s-1.113-.051-1.671-.05c-.58,0-1.161.023-1.739.068s-1.125.113-1.685.195c-1.133.165-2.255.4-3.367.68C349.011,191.547,348.456,191.691,347.9,191.846Z" transform="translate(0.51 0.741)" fill="#fff"/>
      <path id="Path_940" data-name="Path 940" d="M335.541,198.038q.6-.517,1.227-1.008c.452-.357.912-.7,1.382-1.034s.951-.651,1.435-.964.951-.591,1.435-.871c.238-.138.48-.275.723-.407s.486-.258.731-.385c.29-.142.579-.286.872-.421.314-.144.628-.284.944-.421.511-.224,1.029-.438,1.546-.648s1.058-.42,1.6-.609,1.07-.359,1.615-.51c.278-.078.56-.154.842-.225s.548-.13.823-.188h0l.361-.073a1.393,1.393,0,0,1,.227-.031c.005,0,0-.007,0-.007a2.263,2.263,0,0,0-.323.039c-.146.025-.292.05-.438.078-.557.106-1.111.226-1.661.357s-1.1.276-1.642.445-1.1.353-1.633.552-1.086.407-1.622.621-1.052.449-1.565.7c-.246.119-.49.245-.73.372s-.5.27-.752.412-.5.292-.749.447-.481.3-.714.463-.467.324-.695.494-.444.331-.661.5c-.454.359-.9.731-1.322,1.123s-.847.786-1.257,1.193l0,.006Z" transform="translate(0.308 0.732)" fill="#fff"/>
      <path id="Path_941" data-name="Path 941" d="M348.214,247.308c-.929-.39-1.848-.807-2.749-1.259-.514-.259-1.028-.521-1.534-.8-.268-.146-.535-.292-.8-.441s-.5-.29-.754-.437c-.227-.133-.452-.274-.674-.417-.246-.159-.492-.318-.734-.484-.48-.327-.95-.669-1.415-1.016q-.442-.344-.875-.695c-.285-.232-.563-.473-.842-.714-.862-.747-1.692-1.532-2.492-2.344a31.487,31.487,0,0,1-2.242-2.523c-.128-.164-.254-.327-.375-.494a29.363,29.363,0,0,1-1.84-2.883c-.559-1-1.076-2.018-1.533-3.068l-.012-.029,0,.009-.03-.074h0c-.1-.247-.2-.5-.291-.749-.065-.186-.12-.375-.175-.564h-.006c.045.156.081.314.127.47.062.212.128.424.2.634.149.431.3.862.47,1.287q.319.806.68,1.6c.233.506.477,1.008.74,1.5.141.265.288.526.436.789s.3.5.458.748.3.465.465.692.33.469.507.694a28.446,28.446,0,0,0,1.877,2.2c.782.83,1.611,1.618,2.47,2.368.43.375.864.745,1.314,1.094.481.373.972.736,1.471,1.083A26.8,26.8,0,0,0,343,245.286c.506.262,1.025.506,1.545.737.542.241,1.093.467,1.648.679.52.2,1.046.378,1.572.559.556.191,1.114.372,1.679.537h0v-.005c-.418-.158-.832-.321-1.245-.492Z" transform="translate(0.06 2.147)" fill="#fff"/>
      <path id="Path_942" data-name="Path 942" d="M339.952,244.684c-.234-.163-.469-.325-.7-.494-.12-.088-.242-.175-.362-.264s-.217-.164-.326-.244l-.147-.112h0c-.018-.011-.033-.024-.05-.036l-.012-.009h0l-.026-.021h0c-.688-.526-1.369-1.065-2.013-1.646-.415-.374-.812-.768-1.2-1.171s-.789-.829-1.168-1.257-.762-.874-1.137-1.316c-.355-.415-.694-.843-1.034-1.271l-.006-.006,0,0h0l-.012-.015,0,0-.005-.006.005.005c-.044-.055-.086-.109-.13-.166h0l0-.005h0l-.006-.008h0l0-.005v0c-.137-.176-.273-.353-.409-.532-.334-.437-.659-.881-.973-1.328-.16-.229-.319-.457-.47-.69-.078-.117-.153-.235-.225-.357a2.212,2.212,0,0,1-.152-.279h0l-.009-.026a0,0,0,0,0-.007,0,1.473,1.473,0,0,0,.1.213c.061.116.124.233.189.347.132.234.268.467.4.7.267.45.541.9.824,1.34.613.956,1.235,1.908,1.936,2.8l.005.006.008.012h0l0,.005h0v0l0,0,.01.011-.006-.005c.435.553.886,1.092,1.362,1.611.389.422.785.839,1.194,1.245a16.639,16.639,0,0,0,1.279,1.138c.453.363.922.708,1.4,1.035s.971.637,1.472.93.993.553,1.5.815q.779.406,1.568.8h0l0-.008c-.426-.262-.847-.532-1.267-.8C340.882,245.315,340.414,245,339.952,244.684Z" transform="translate(0.079 2.336)" fill="#fff"/>
      <path id="Path_943" data-name="Path 943" d="M328.976,234.592h0l0,0Z" transform="translate(0.065 2.379)" fill="#fff"/>
      <path id="Path_944" data-name="Path 944" d="M333.584,241.359l0,0,0,0Z" transform="translate(0.236 2.63)" fill="#fff"/>
      <path id="Path_945" data-name="Path 945" d="M335.084,243.273c-.133-.136-.264-.276-.391-.418-.268-.3-.525-.606-.772-.921l.006.009-.034-.045h0l-.016-.021-.007-.009,0,0-.005-.007v0l-.034-.046h0l-.008-.008,0-.005-.012-.018,0,0v0h0l-.03-.038.016.02c-.337-.432-.658-.875-.976-1.321s-.624-.893-.924-1.348a28.385,28.385,0,0,1-1.718-2.939c-.257-.514-.511-1.033-.751-1.557q-.187-.408-.367-.816c-.111-.254-.219-.509-.328-.763l0,0,0-.009h0l-.007-.013v0c-.039-.1-.08-.189-.119-.283.005.012.011.026.017.039l-.016-.035,0,0a.1.1,0,0,0-.008-.019v0l-.006-.015c-.14-.34-.283-.682-.426-1.022l0-.007-.006-.015c-.033-.081-.067-.161-.1-.243l.009.026c-.03-.072-.059-.144-.089-.217h0c-.249-.6-.5-1.208-.731-1.816h-.005c.174.635.363,1.264.559,1.893.169.549.344,1.1.533,1.639s.389,1.084.613,1.615c.03.073.06.144.091.217v0l0,.011v0h0l0,0h0l0,.007h0v0h0l0,.005v0h0l.007.012c.005.017.012.032.018.048v0l0,.007,0,0,.01.021c.115.277.238.552.369.822.248.521.509,1.034.8,1.534.3.522.614,1.033.946,1.535a25.409,25.409,0,0,0,2.092,2.719c.37.423.748.84,1.147,1.232.2.195.405.387.612.574.1.092.207.187.315.274a1.078,1.078,0,0,0,.2.147h0l0-.006a.476.476,0,0,1-.06-.041A3.947,3.947,0,0,1,335.084,243.273Z" transform="translate(0 2.186)" fill="#fff"/>
      <path id="Path_946" data-name="Path 946" d="M415.14,229.67l0,0h0c.1-.281.2-.561.3-.843.18-.529.359-1.06.515-1.6.084-.287.164-.575.239-.865.064-.255.129-.514.181-.774h0v-.008a.151.151,0,0,0,.005-.026v-.008h0q.07-.32.126-.645a14.337,14.337,0,0,0,.195-1.695c.016-.276.023-.552.023-.826,0-.292,0-.586-.019-.876v.013c-.021-.475-.061-.948-.118-1.421-.071-.565-.151-1.128-.263-1.689-.057-.279-.121-.56-.2-.835a3.334,3.334,0,0,0-.251-.63c0-.005-.006,0-.005,0a3.208,3.208,0,0,1,.142.363,7.183,7.183,0,0,1,.22,1.186c.048.383.073.767.1,1.152v.013c.015.42.035.839.035,1.26,0,.291,0,.583-.01.875s-.024.559-.04.838c-.035.56-.088,1.119-.158,1.674-.035.288-.076.575-.118.861s-.091.564-.138.847-.092.538-.142.808-.1.549-.158.822c-.068.339-.139.677-.218,1.014S415.227,229.335,415.14,229.67Z" transform="translate(3.264 1.724)" fill="#fff"/>
      <path id="Path_947" data-name="Path 947" d="M413.909,230.385c.213-.52.425-1.038.622-1.563s.394-1.079.559-1.629a11.428,11.428,0,0,0,.365-1.646,14.415,14.415,0,0,0,.147-1.705c.016-.567,0-1.134-.031-1.7a.306.306,0,0,0,0,.031c-.01-.2-.031-.394-.05-.591s-.039-.37-.069-.555-.067-.392-.114-.585a2.512,2.512,0,0,1-.091-.386c0-.005-.007-.006-.007,0a.533.533,0,0,0,.013.1c.012.074.027.147.039.22a4.4,4.4,0,0,1,.059.508v0a11.989,11.989,0,0,1-.047,1.532c-.025.273-.053.543-.084.815-.028.242-.063.482-.093.724-.068.554-.156,1.106-.235,1.657s-.171,1.106-.274,1.655c.005-.017.007-.036.011-.053-.016.076-.029.152-.044.229v.006h0l0,.005,0,.009h0l0,.007,0,.01v.01h0c-.012.059-.025.118-.036.177q-.275,1.367-.64,2.718l0,0Z" transform="translate(3.218 1.839)" fill="#fff"/>
      <path id="Path_948" data-name="Path 948" d="M413.636,198.911c-.469-.347-.949-.68-1.448-.986s-1-.563-1.51-.816c-.491-.24-.982-.477-1.478-.705-.252-.119-.508-.233-.766-.34s-.5-.207-.743-.327h0c-.11-.056-.222-.112-.333-.165h0l-.04-.021h0c-.052-.025-.1-.052-.157-.074a.191.191,0,0,0-.063-.022v.008h.007a.234.234,0,0,1,.053.021c.215.107.418.235.624.358.231.137.471.262.705.4.458.259.894.557,1.34.838.477.3.953.6,1.413.929s.9.68,1.343,1.039.888.736,1.331,1.1c.413.341.821.684,1.224,1.034l.011.009h0l.025.022,0,0,.013.011.034.031h0c.162.144.324.29.486.435l0,0,.011.01,0,0,.01.009,0,0,.407.362c.049.041.1.085.144.127h0l.008.007a.228.228,0,0,1,.024.021l.02.018-.008-.008.011.008,0,.005c.02.017.038.033.057.051.066.058.136.118.2.177l0,0c.011.011.024.022.036.033l-.008-.008c.048.043.1.087.147.129l.009.009.607.531q.524.462,1.052.917l.22.192,0,0,.144.127.041.036c.379.342.761.686,1.137,1.033q.59.546,1.164,1.111h0l0,0c-.1-.131-.194-.26-.292-.39-.689-.905-1.369-1.819-2.122-2.674-.375-.428-.77-.839-1.173-1.24s-.785-.775-1.195-1.143c-.454-.409-.924-.8-1.4-1.18C414.521,199.589,414.084,199.243,413.636,198.911Z" transform="translate(2.966 0.926)" fill="#fff"/>
      <path id="Path_949" data-name="Path 949" d="M396.183,243.71c-1.144-.089-2.289-.163-3.43-.286-.591-.063-1.182-.13-1.77-.212s-1.166-.169-1.747-.26c-.55-.086-1.1-.182-1.643-.3-.271-.057-.54-.114-.81-.178-.287-.068-.573-.142-.859-.216l.032.008c-.484-.137-.97-.282-1.44-.467-.236-.093-.471-.19-.7-.295-.1-.046-.2-.093-.3-.144-.073-.037-.142-.081-.217-.112,0,0-.007,0,0,.007a.527.527,0,0,1,.067.036h0c.079.047.157.094.235.14l0,0a16.283,16.283,0,0,0,3.113,1.382c.256.086.513.168.773.243.278.079.559.161.84.23.559.137,1.12.268,1.686.37,1.163.214,2.334.38,3.508.513,1.134.131,2.272.2,3.413.216.161,0,.32.006.482.006q.745,0,1.489-.048c.556-.036,1.109-.086,1.662-.133.582-.05,1.162-.1,1.74-.167v-.008q-1.381-.036-2.758-.1C398.427,243.88,397.3,243.8,396.183,243.71Z" transform="translate(2.082 2.626)" fill="#fff"/>
      <path id="Path_950" data-name="Path 950" d="M396.513,244.276l-.069,0h-.009Z" transform="translate(2.57 2.739)" fill="#fff"/>
      <path id="Path_951" data-name="Path 951" d="M396.178,170.59a3.142,3.142,0,0,1,.083.607c.019.219.027.44.034.659v.013c0,.011,0,.024,0,.035h0c.017.537.023,1.076.039,1.616v0c0,.074,0,.148.006.223v.048a.077.077,0,0,0,0,.022l0-.008,0,.009v0l.006.246v.005c0,.1,0,.193.008.287v.023h0c0,.1,0,.213.007.317v.016l.006.167,0-.038c0,.04,0,.082,0,.122v.008c0,.011,0,.024,0,.035h0c.009.3.021.589.031.884.01.264.018.53.03.793,0,.117.008.233.013.351.006.241.016.479.026.72v.031q.006.184.016.367c.009.3.027.606.04.909q.022.492.047.985c.028.566.055,1.135.088,1.7.023.444.046.888.074,1.332.179-.016.359-.03.539-.041q-.028-.373-.054-.747c-.041-.585-.09-1.169-.134-1.754-.083-1.153-.151-2.309-.235-3.462-.082-1.127-.194-2.253-.3-3.379-.056-.564-.106-1.129-.167-1.695-.029-.283-.059-.565-.1-.848a2.968,2.968,0,0,0-.127-.631s-.008,0-.007,0a.672.672,0,0,1,.023.068Z" transform="translate(2.559)" fill="#fff"/>
      <path id="Path_952" data-name="Path 952" d="M401.59,182.728l.02,0c.156-.324.31-.648.458-.975q.355-.786.666-1.589c.2-.526.39-1.056.575-1.587.1-.286.2-.571.3-.858.091-.266.177-.531.267-.8.165-.5.3-1,.473-1.495l-.005,0c-.148.348-.284.7-.426,1.053q-.236.59-.487,1.172c-.461,1.062-.936,2.116-1.417,3.168-.285.622-.572,1.241-.868,1.858.072,0,.141.007.212.017Z" transform="translate(2.744 0.182)" fill="#fff"/>
      <path id="Path_953" data-name="Path 953" d="M404.175,183.45a2,2,0,0,1,.334.146l.122.066c.111-.124.219-.25.328-.376.745-.864,1.45-1.761,2.144-2.667.349-.455.687-.917,1.028-1.377.165-.225.325-.454.487-.68.081-.114.162-.225.245-.338l.109-.151c.021-.028.043-.056.061-.087l-.006,0c-.028.032-.052.067-.078.1l-.13.158-.268.315q-.294.345-.591.684c-.765.868-1.541,1.724-2.316,2.582l-1.473,1.626Z" transform="translate(2.857 0.277)" fill="#fff"/>
      <path id="Path_954" data-name="Path 954" d="M407.381,185.612c.1.09.195.18.291.272q.845-.448,1.687-.9,1.56-.84,3.106-1.711.744-.42,1.489-.838.373-.207.751-.411l.363-.195c.1-.054.214-.1.318-.16l0,0c-.1.048-.207.089-.309.137l-.358.166c-.232.11-.463.22-.693.332l-1.489.722q-1.574.767-3.134,1.566-.778.4-1.558.793Z" transform="translate(2.976 0.414)" fill="#fff"/>
      <path id="Path_955" data-name="Path 955" d="M410.9,189.371c.291-.063.582-.124.875-.178l.42-.076a2.416,2.416,0,0,0,.256-.048v-.007a3.177,3.177,0,0,1-.385.041c-.173.015-.347.029-.522.046-.373.031-.745.078-1.118.12-.55.063-1.1.136-1.648.21l-.656.089c-.1.143-.213.287-.319.43.459-.084.919-.174,1.376-.266Q410.043,189.557,410.9,189.371Z" transform="translate(2.992 0.689)" fill="#fff"/>
      <path id="Path_956" data-name="Path 956" d="M408.57,192.8c.138,0,.277-.007.416-.013.375-.006.748-.018,1.122,0,.2.009.4.02.6.041a4.726,4.726,0,0,1,.548.1v0a2.677,2.677,0,0,1,.3.1c.039.02.079.037.117.058a.349.349,0,0,0,.04.019h0a0,0,0,0,0,0-.006l-.021-.01h0a2.77,2.77,0,0,0-.429-.216c-.1-.035-.194-.071-.295-.1s-.218-.057-.327-.084h0l-.012,0a8.491,8.491,0,0,0-1.179-.167c-.387-.033-.775-.046-1.162-.055-.552-.012-1.1-.01-1.655-.016-.207,0-.415,0-.622-.008-.063.1-.127.192-.19.287l-.125.189.439-.011h-.013c.817-.025,1.635-.061,2.451-.1Z" transform="translate(2.914 0.814)" fill="#fff"/>
      <path id="Path_957" data-name="Path 957" d="M388.374,193.794c-.389.139-.779.278-1.167.414q-.834.288-1.674.565-.4.132-.794.268c-.123.043-.247.085-.371.125-.05.018-.1.034-.15.053-.006,0-.03.007-.03.017l.005,0h0a.377.377,0,0,1,.079-.028h0c.329-.1.662-.18.993-.266.559-.143,1.12-.28,1.678-.431q.809-.218,1.611-.457h0l.007,0Z" transform="translate(2.115 0.864)" fill="#fff"/>
      <path id="Path_958" data-name="Path 958" d="M381,192.132c.107.019.216.027.323.036.217.017.432.026.65.034.472.017.945.035,1.418.053,1.14.046,2.277.128,3.419.167.243.009.486.016.729.02-.019-.026-.037-.05-.057-.075-.091-.124-.186-.25-.279-.373-.212,0-.422.008-.633.012-1.156.027-2.312.052-3.466.09h.018l-.625.02h0c-.281.008-.563.017-.846.02a3.741,3.741,0,0,1-.791-.043h0c-.018-.006-.036-.009-.053-.017l0,0h0v.006c.009.015.052.02.066.023C380.912,192.115,380.956,192.124,381,192.132Z" transform="translate(1.989 0.797)" fill="#fff"/>
      <path id="Path_959" data-name="Path 959" d="M381.685,184.877l.145.081.315.175h0c.013.007.026.016.039.022h0c.119.066.241.133.36.2l-.008,0,.028.015h0l.006,0h0c.061.032.121.066.184.1q.534.3,1.067.6c.341.2.683.393,1.029.582l.21.116q.488.271.983.533c.059-.074.12-.145.184-.218.028-.031.055-.064.083-.1-.55-.246-1.1-.49-1.648-.739-.514-.233-1.026-.474-1.538-.714l-.756-.347c-.125-.058-.25-.115-.374-.174s-.227-.1-.337-.166h0l-.034-.021v-.006l-.006,0,0,.005c0,.005.006.007.01.01C381.641,184.85,381.664,184.864,381.685,184.877Z" transform="translate(2.019 0.531)" fill="#fff"/>
      <path id="Path_960" data-name="Path 960" d="M385.568,180.932c.3.258.6.513.9.762.456.375.918.745,1.37,1.124s.872.748,1.285,1.146l-.04-.039.1.094.285-.328-.214-.179c-.235-.19-.476-.375-.719-.558s-.465-.336-.7-.5-.466-.318-.7-.476-.479-.327-.716-.494-.456-.325-.679-.494a7.452,7.452,0,0,1-.644-.528,1.612,1.612,0,0,1-.2-.241h0l-.005-.009-.006-.008-.005,0a1.616,1.616,0,0,0,.271.339C385.285,180.681,385.425,180.808,385.568,180.932Z" transform="translate(2.141 0.36)" fill="#fff"/>
      <path id="Path_961" data-name="Path 961" d="M390.818,176.509q.616,1.623,1.211,3.251c.2.535.39,1.072.586,1.608.2.551.41,1.1.611,1.649l.08.221c.085-.02.17-.03.255-.043l.191-.026c-.087-.22-.176-.438-.267-.657-.209-.508-.422-1.015-.632-1.524q-.667-1.616-1.358-3.222-.674-1.551-1.371-3.088l-.006,0c.112.3.229.6.345.9S390.7,176.2,390.818,176.509Z" transform="translate(2.335 0.155)" fill="#fff"/>
    </g>
    <text id="CuyInvitation" transform="translate(140 105.778)" fill="#fff" font-size="15" font-family="SegoePrint, Segoe Print"><tspan x="0" y="0">CuyInvitation</tspan></text>
  </g>
</svg>
